<?xml version="1.0" encoding="utf-8"?>
<!-- Generator: Adobe Illustrator 23.0.1, SVG Export Plug-In . SVG Version: 6.00 Build 0)  -->
<svg version="1.1" id="Calque_1" xmlns="http://www.w3.org/2000/svg" xmlns:xlink="http://www.w3.org/1999/xlink" x="0px" y="0px"
	 viewBox="0 0 288 252" style="enable-background:new 0 0 288 252;" xml:space="preserve">
<path d="M251.4,122.7c-1.8-5.3-4.4-10-7.6-14.2c-3.3-4.2-7.1-7.6-11.5-10.3c-4.4-2.7-9.2-4.4-14.4-5.3c6.9-3.3,12.6-8.6,17.3-15.8
	c4.7-7.2,7-15.4,7-24.8c0-5.7-1-11.1-3-16.2c-2-5.1-4.7-9.5-8-13.3c-3.3-3.8-7.4-6.7-12-8.9c-4.7-2.2-9.6-3.3-14.8-3.3H125v0.1
	h-17.8v1.5c3.3,0,6.4,0.6,9.3,1.9c2.9,1.2,5.5,3,7.7,5.1c2.2,2.2,4,4.7,5.2,7.6c1,2.4,1.6,4.9,1.8,7.6v18.5v23.3v95.7v6.3l0,7.7h0
	v47.1L66.8,69H21.1v1.5c1.8,0,3.3,0.6,4.5,1.7c1.2,1.2,1.7,2.7,1.7,4.5V218c0,3.3-0.6,6.5-1.9,9.4c-1.2,2.9-3,5.5-5.1,7.7
	c-2.2,2.2-4.7,4-7.6,5.2c-2.9,1.3-6,1.9-9.4,1.9v1.3h49.4v-1.3c-3.3,0-6.4-0.6-9.3-1.9c-2.9-1.2-5.5-3-7.6-5.2
	c-2.2-2.2-3.9-4.8-5.1-7.7c-1.2-2.9-1.9-6-1.9-9.4V79.2l64.3,164.2H139V242c-1.9,0-3.4-0.6-4.6-1.7c-1.3-1.2-1.9-2.7-1.9-4.5v-49.6
	l9.8,0.1h28.8h40.4c5.9,0,11.4-1.2,16.5-3.6c5.2-2.4,9.7-5.8,13.5-10c3.8-4.3,6.9-9.2,9.1-14.9c2.3-5.7,3.4-11.8,3.4-18.3
	C254.1,133.5,253.2,127.9,251.4,122.7z M171.1,75.7V49.3v-7.8V18.5c0-1.8,0.6-3.3,1.8-4.5c1.2-1.2,2.7-1.8,4.5-1.8h11.3
	c2.2,0,4.4,0.8,6.8,2.5c2.3,1.7,4.5,4.2,6.5,7.5c2,3.3,3.6,7.5,4.9,12.5c1.2,5,1.9,10.9,1.9,17.5s-0.6,12.5-1.9,17.4
	s-2.8,9.1-4.8,12.4c-1.9,3.3-4.1,5.9-6.4,7.5s-4.6,2.6-6.8,2.8h-17.8V75.7z M212.1,159.4c-1.4,5.7-3.2,10.4-5.4,14.2
	c-2.2,3.8-4.6,6.6-7.3,8.4c-2.7,1.8-5.2,2.8-7.5,2.8h-8.5h-6c-1.8,0-3.3-0.6-4.5-1.8s-1.8-2.7-1.8-4.5v-12.8v-2.3v-15.8V93.7h20.8
	c2.3,0,4.8,1,7.5,2.9c2.7,1.9,5.1,4.8,7.3,8.5c2.2,3.8,4,8.5,5.4,14.2c1.4,5.7,2.1,12.4,2.1,20.1C214.2,147,213.5,153.7,212.1,159.4
	z"/>
</svg>
