<?xml version="1.0" encoding="utf-8"?>
<!-- Generator: Adobe Illustrator 23.0.1, SVG Export Plug-In . SVG Version: 6.00 Build 0)  -->
<svg version="1.1" id="Calque_1" xmlns="http://www.w3.org/2000/svg" xmlns:xlink="http://www.w3.org/1999/xlink" x="0px" y="0px"
	 viewBox="0 0 288 560" style="enable-background:new 0 0 288 560;" xml:space="preserve">
<!-- <style type="text/css">
	.st0{fill:none;stroke:#000000;stroke-miterlimit:10;}
</style> -->
<path class="st0" d="M251.35,186.67c-1.84-5.26-4.39-9.98-7.64-14.16c-3.26-4.17-7.1-7.6-11.53-10.28
	c-4.43-2.67-9.23-4.43-14.41-5.26c6.85-3.34,12.61-8.6,17.29-15.79c4.68-7.18,7.02-15.45,7.02-24.81c0-5.68-1-11.07-3.01-16.17
	c-2-5.09-4.68-9.52-8.02-13.28c-3.34-3.76-7.35-6.72-12.03-8.9c-4.68-2.17-9.61-3.26-14.79-3.26h-79.2v0.13h-17.85v1.49
	c3.32,0,6.44,0.63,9.34,1.87c2.91,1.24,5.49,2.96,7.73,5.11c2.25,2.17,4,4.69,5.23,7.61c1.03,2.39,1.63,4.93,1.81,7.61v18.54v23.31
	v95.74v6.27l-0.02,7.72l0.03,0v47.1L66.76,133.01H21.15v1.49c1.83,0,3.33,0.59,4.49,1.74c1.16,1.16,1.74,2.66,1.74,4.48v141.31
	c0,3.33-0.63,6.45-1.88,9.35c-1.25,2.92-2.95,5.5-5.11,7.73c-2.16,2.25-4.7,4-7.6,5.23c-2.91,1.26-6.02,1.87-9.35,1.87v1.26H52.8
	v-1.26c-3.33,0-6.44-0.61-9.34-1.87c-2.91-1.24-5.45-2.98-7.61-5.23c-2.16-2.23-3.86-4.81-5.11-7.73c-1.25-2.9-1.87-6.02-1.87-9.35
	V143.22l64.3,164.25h45.87v-1.5c-1.85,0-3.37-0.59-4.62-1.74c-1.26-1.16-1.87-2.66-1.87-4.48v-49.59l9.77,0.05h28.82h40.35
	c5.85,0,11.36-1.21,16.54-3.63c5.18-2.42,9.69-5.76,13.53-10.02c3.84-4.26,6.89-9.23,9.15-14.91c2.26-5.68,3.38-11.78,3.38-18.3
	C254.1,197.49,253.18,191.93,251.35,186.67z M171.14,139.67v-26.32v-7.77V82.53c0-1.84,0.58-3.34,1.75-4.51
	c1.17-1.17,2.67-1.75,4.51-1.75h11.28c2.17,0,4.43,0.84,6.77,2.51c2.34,1.67,4.51,4.18,6.52,7.52c2.01,3.34,3.63,7.52,4.89,12.53
	c1.25,5.01,1.88,10.86,1.88,17.54c0,6.68-0.63,12.49-1.88,17.42c-1.25,4.93-2.84,9.07-4.76,12.41c-1.92,3.34-4.05,5.85-6.39,7.52
	c-2.34,1.67-4.6,2.59-6.77,2.76h-17.8V139.67z M212.12,223.38c-1.42,5.68-3.22,10.4-5.39,14.16c-2.17,3.76-4.6,6.56-7.27,8.4
	c-2.68,1.84-5.18,2.76-7.52,2.76h-8.52h-6.01c-1.84,0-3.34-0.58-4.51-1.75c-1.17-1.17-1.75-2.67-1.75-4.51v-12.78v-2.26V211.6
	v-53.88h20.8c2.34,0,4.84,0.96,7.52,2.88c2.67,1.92,5.09,4.76,7.27,8.52c2.17,3.76,3.97,8.48,5.39,14.16
	c1.42,5.68,2.13,12.37,2.13,20.05C214.25,211.02,213.54,217.7,212.12,223.38z"/>
</svg>
