<?xml version="1.0" standalone="no"?>
<!DOCTYPE svg PUBLIC "-//W3C//DTD SVG 1.1//EN" "http://www.w3.org/Graphics/SVG/1.1/DTD/svg11.dtd" >
<svg>
<metadata>
Created by FontForge 20090622 at Mon Dec  3 13:54:03 2018
 By deploy user
Copyright (c) 2016 by AnthonyJames. All rights reserved.
</metadata>
<defs>
<font id="Goku-Regular" horiz-adv-x="521" >
  <font-face 
    font-family="Goku"
    font-weight="400"
    font-stretch="normal"
    units-per-em="1000"
    panose-1="0 0 0 0 0 0 0 0 0 0"
    ascent="750"
    descent="-250"
    x-height="493"
    cap-height="700"
    bbox="24.9333 -271 1496 876"
    underline-thickness="50"
    underline-position="-50"
    unicode-range="U+000D-U+FB06"
  />
<missing-glyph horiz-adv-x="180" 
 />
    <glyph glyph-name="oe.1" unicode="oe" horiz-adv-x="786" 
d="M665 216q33 0 56.5 -23.5t23.5 -56.5q0 -28 -15.5 -53t-41.5 -43.5t-61 -29t-75 -10.5q-46 0 -83.5 14t-66.5 40q-29 -26 -66 -40t-83 -14q-53 0 -95.5 19.5t-72 53t-45 78.5t-15.5 96t15.5 96t45 78t72 52.5t95.5 19.5q46 0 83 -14t66 -40q29 26 66.5 40t83.5 14
q59 0 104 -23.5t75 -63.5q21 -28 26.5 -56.5t-0.5 -52t-21.5 -38.5t-37.5 -15h-217v-62q0 -51 5.5 -84.5t16 -54t27 -29t39.5 -8.5q3 0 6 0.5t5 0.5q20 2 34.5 10.5t17.5 21.5q3 14 -5.5 23.5t-16.5 17.5q-24 24 -24 56q0 33 23.5 56.5t55.5 23.5zM531 481q-26 -14 -38 -53
t-12 -117v-62h97q21 0 36.5 23.5t15.5 71.5q0 54 -17.5 89.5t-40.5 47.5q-2 1 -7 3t-13 2t-13.5 -2t-7.5 -3zM324 311q0 91 -17.5 132.5t-53.5 41.5t-53.5 -41.5t-17.5 -132.5v-64v-65q0 -91 17.5 -132.5t53.5 -41.5t53.5 41.5t17.5 132.5v65v64z" />
    <glyph glyph-name="fi.1" unicode="fi" horiz-adv-x="477" 
d="M426 151v-120q0 -11 7.5 -18t18.5 -7v-6h-14h-83h-112v6q11 0 18 7t7 18v120v134v36q0 11 -7 18t-18 7h-34v-315q0 -11 7 -18t18 -7v-6h-193h-16v6q11 0 18 7t7 18v28v424q0 103 53.5 160t150.5 57q38 0 70 -11t54.5 -29.5t35 -43.5t12.5 -53q0 -33 -23 -56t-56 -23
t-56 23t-23 56q0 17 6 31t17 25l17 17.5t6 23.5q-4 18 -19 25t-26 7q-37 0 -48.5 -36t-11.5 -116v-151v-37h24h10h112h83h14v-6q-11 0 -18.5 -7t-7.5 -18v-36v-134z" />
    <glyph glyph-name="fl.1" unicode="fl" horiz-adv-x="477" 
d="M426 31q0 -11 7.5 -18t18.5 -7v-6h-14h-83h-112v6q11 0 18 7t7 18v72v48v134v61h-25h-34v-315q0 -11 7 -18t18 -7v-6h-193h-16v6q11 0 18 7t7 18v28v424q0 103 53.5 160t150.5 57q38 0 70 -11t54.5 -29.5t35 -43.5t12.5 -53v-412v-42v-78zM395 546q11 0 18 7t7 18
q0 5 -1 15t-8 24q-17 35 -54 57.5t-87 26.5q-35 2 -48 -36t-13 -118v-151v-37h24h35v162q0 11 -7 18.5t-18 7.5v6h126h26z" />
    <glyph glyph-name="ft" unicode="ft" horiz-adv-x="538" 
d="M426 107q0 -35 8 -52t20.5 -21t28 2t30.5 15v-8q-23 -16 -54 -29.5t-65 -13.5q-26 0 -49 7t-40 22.5t-27 40t-10 59.5v192q0 11 -7 18t-18 7h-34v-315q0 -11 7 -18t18 -7v-6h-193h-16v6q11 0 18 7t7 18v28v424q0 103 53.5 160t150.5 57q38 0 70 -11t54.5 -29.5t35 -43.5
t12.5 -53q0 -33 -23 -56t-56 -23t-56 23t-23 56q0 17 6 31t17 25l17 17.5t6 23.5q-4 18 -19 25t-26 7q-37 0 -48.5 -36t-11.5 -116v-151v-37h34q29 0 59 8.5t55 23.5t42.5 35.5t20.5 43.5h6v-111h65v-6h-65v-239v0z" />
    <glyph glyph-name="AE.1" unicode="AE" horiz-adv-x="833" 
d="M593 441v-89h33q20 0 37.5 7.5t30.5 21t20.5 31t7.5 37.5h6v-199h-6q0 41 -28 69t-68 28h-33v-193v-63v-9v-51q0 -11 7.5 -18t18.5 -7h24h36q25 0 46.5 9.5t37.5 25.5t25.5 37.5t9.5 45.5h5v-124h-345h-48v6q11 0 18 7t7 18v25v291h-161l-121 -250q-6 -14 -6 -28
q0 -26 18.5 -45t44.5 -19v-5h-180v5q38 0 66 24t50 65l292 606h20h198h29h118v-125h-5q0 25 -9.5 46.5t-25.5 37.5t-37.5 25.5t-46.5 9.5h-60q-11 0 -18.5 -7t-7.5 -18v-92v-31v-105zM435 352v86v93v150l-159 -329h159z" />
    <glyph glyph-name="OE.1" unicode="OE" horiz-adv-x="887" 
d="M647 441v-89h32q20 0 38 7.5t31 21t20.5 31t7.5 37.5h5v-199h-5q0 41 -28 69t-69 28h-32v-193v-63v-9v-51q0 -11 7 -18t18 -7h24h37q24 0 45.5 9.5t37.5 25.5t25.5 37.5t9.5 45.5h6v-124h-345h-159q-75 0 -135 27.5t-102 75t-64 111t-22 136.5t22 136.5t64 111t102 75
t135 27.5h357h29h118v-125h-6q0 25 -9.5 46.5t-25.5 37.5t-37.5 25.5t-45.5 9.5h-61q-11 0 -18 -7t-7 -18v-92v-31v-105zM218 238q0 -71 10.5 -115.5t28.5 -70.5t42.5 -35.5t53.5 -9.5t54 9.5t43 35.5t28.5 70.5t10.5 115.5v112v112q0 70 -10.5 115t-28.5 71t-43 35.5
t-54 9.5t-53.5 -9.5t-42.5 -35.5t-28.5 -71t-10.5 -115v-112v-112z" />
    <glyph glyph-name=".notdef" horiz-adv-x="180" 
 />
    <glyph glyph-name="NULL" horiz-adv-x="0" 
 />
    <glyph glyph-name="NULL" horiz-adv-x="0" 
 />
    <glyph glyph-name="C_R" unicode="&#xd;" horiz-adv-x="1467" 
d="M1440 -26q5 -44 -8.5 -84.5t-46 -69t-82.5 -41t-119 -1.5q-54 9 -91 40t-63 75.5t-44 97t-34 104.5q-50 -29 -96.5 -65.5l-91 -74l-88 -73.5t-88 -63t-90.5 -43t-95 -14q-42 1 -75 13.5t-56 32t-35 45t-12 52.5q0 32 18.5 58.5t49.5 44.5q-53 13 -95.5 44.5t-71.5 76.5
t-44.5 101.5t-15.5 119.5q0 82 26 152q-30 17 -48.5 46.5t-18.5 65.5q0 27 10.5 50.5t28.5 41t42.5 27.5t52.5 10q35 0 64.5 -16t47.5 -42q42 15 93 15q18 0 34.5 -2t30.5 -5l67.5 67t70 58.5t73.5 41.5t79 16h2q35 0 66 -13.5t54.5 -37.5t38.5 -56t17 -69h7q109 0 169 -51
t60 -141q0 -74 -41.5 -122t-116.5 -64q33 -9 60 -42q17 -22 31.5 -52.5t26.5 -66.5q42 9 87 9h2q54 0 99 -15.5t79 -42.5t54.5 -62.5t25.5 -75.5zM801 609v-63v-20q42 23 67 66t25 96v2q-11 4 -23 4h-6h-28h-10q-11 0 -18 -7t-7 -18v-25v-35zM974 508q0 43 -6.5 74t-17.5 53
t-24.5 34.5t-28.5 18.5q0 -55 -26.5 -99.5t-69.5 -68.5v-199h59q17 0 37 9.5t37 31t28.5 57.5t11.5 89zM720 844q-38 0 -73.5 -13t-68.5 -35t-64.5 -50t-62.5 -59q22 -7 38.5 -15.5t27.5 -16.5q37 -24 56 -60q26 -46 70 -70v119v25q0 11 -7.5 18t-18.5 7v6h70h114h92
q-2 35 -16.5 62t-37.5 45t-53.5 27.5t-64.5 9.5h-1zM383 693q-24 0 -45 -6.5t-37 -23.5t-27 -46.5t-16 -75.5q43 26 83.5 65l82.5 82q-18 5 -41 5zM35 614q0 -6 3.5 -18t11 -25t20.5 -26t31 -22q25 57 66 98.5t98 61.5q-17 26 -45.5 40t-60.5 14q-27 0 -49.5 -9.5t-39 -26.5
t-26 -39.5t-9.5 -47.5zM403 -209q58 0 109.5 18.5t99.5 48t94 67l93 75.5h-182v6q11 0 18.5 7t7.5 18v51v87v93v257q-37 19 -62 55q3 -11 3 -23q0 -33 -23.5 -56t-56.5 -23q-32 0 -55.5 23t-23.5 56q0 18 7.5 34t20.5 27q8 7 16 17t5 24q-4 18 -28 29l-94.5 -95t-95.5 -74
q-1 -12 -1.5 -24.5t-0.5 -26.5v-112v-112q0 -98 18 -148t49 -69q36 15 82 15q30 0 60 -8q8 8 11 19q3 14 -5 24t-16 17q-13 11 -20.5 26.5t-7.5 34.5q0 32 23.5 55.5t55.5 23.5q33 0 56.5 -23.5t23.5 -55.5q0 -31 -19 -58t-48 -47q-21 -15 -60 -29.5t-93 -14.5q-34 0 -62 6
q-32 -17 -51 -43t-19 -58q0 -15 8.5 -34.5t28.5 -37t53 -30t81 -12.5zM327 18q23 -11 56 -11q14 0 26.5 2t20.5 4q15 4 27 11q-10 2 -24 4.5t-31 2.5q-38 0 -75 -13zM813 11q32 26 66 50t69 44q-13 42 -26 79.5t-30 66.5t-39 46t-52 18v-56v-105v-72v-51q0 -5 3 -11t9 -9z
M1286 -204q24 -3 52.5 7.5t51.5 33.5t36 57.5t7 79.5q-5 38 -25 72.5t-52.5 60.5t-76.5 41t-97 15h-1q-45 0 -85 -9q19 -55 36.5 -116t39 -112.5t48.5 -87.5t66 -42z" />
    <glyph glyph-name="space" unicode=" " horiz-adv-x="180" 
 />
    <glyph glyph-name="s" unicode="s" horiz-adv-x="402" 
d="M156 448q2 -24 19 -45.5t41.5 -43.5l52.5 -45t52 -50t40 -58t16 -69q0 -33 -13.5 -58.5t-37.5 -43t-57 -26.5t-71 -9q-36 0 -67.5 10.5t-55 29t-37 43.5t-13.5 54q0 32 23 55.5t56 23.5t56 -23.5t23 -55.5q0 -25 -12 -43q-5 -8 -10.5 -13t-10.5 -11q-11 -11 -12 -22.5
t7 -21.5q18 -21 53 -21q12 0 25.5 2t24.5 8t18 18t7 32q0 32 -17.5 60t-43 53t-56 49t-56 48.5t-43 51t-17.5 57.5q0 24 13 44.5t36 34.5t53 22t65 8q22 0 40.5 -4l35.5 -7.5t35 -4t40 7.5v-120h-5q-3 19 -14 40.5t-29.5 40t-44 30.5t-57.5 12q-23 0 -38 -11t-14 -29z" />
    <glyph glyph-name="t" unicode="t" horiz-adv-x="321" 
d="M295 43q-23 -16 -54 -29.5t-65 -13.5q-26 0 -49 7t-40 22.5t-27 40t-10 59.5v277v56q0 11 -7 18t-18 7v6q29 0 59.5 8.5t55.5 23.5t42.5 35t20.5 43h6v-110h64v-6h-64v-25v-71v-284q0 -35 8 -52t20.5 -21t28 2t30.5 15z" />
    <glyph glyph-name="u" unicode="u" 
d="M471 31q0 -11 7 -18t18 -7v-6h-112q-29 0 -45 10.5t-22 34.5q-33 -20 -71 -32.5t-71 -12.5q-26 0 -48.5 7t-39.5 22.5t-27 40.5t-10 60v128v44v160q0 11 -7 18t-18 7v6h112q40 0 56 -20t16 -68v-103v-59v-135q0 -35 11 -52t27.5 -21t35 2t33.5 15q-3 15 -3 36v374
q0 11 -7.5 18t-18.5 7v6h112q41 0 56.5 -20t15.5 -68v-103v-111v-160v0z" />
    <glyph glyph-name="x" unicode="x" horiz-adv-x="526" 
d="M501 488q-30 0 -54 -17t-38 -43l-85 -145l157 -267q6 -10 20 -10v-6h-14h-63h-125v6q5 0 8.5 3.5t3.5 8.5t-1 7l-105 179l-68 -116q-8 -13 -8 -28q0 -23 16 -39t39 -16v-5h-159v5q30 0 53.5 17.5t38.5 42.5l85 145l-157 268q-6 9 -20 9v6h14h63h125v-6q-13 0 -13 -12
q0 -3 2 -7l105 -179l68 116q8 13 8 28q0 23 -16 39t-39 16v5h159v-5v0z" />
    <glyph glyph-name="y" unicode="y" horiz-adv-x="641" 
d="M335 7l-199 464q-9 17 -25 17v5h198v-5q-16 0 -16 -16q0 -5 1 -7l119 -277l89 207q6 12 6 26q0 28 -19.5 47.5t-47.5 19.5v5h175v-5q-35 0 -61 -22.5t-40 -53.5l-259 -604q-15 -35 -42.5 -57t-65.5 -22q-26 0 -48 12t-39 32.5t-26.5 47.5t-9.5 58q0 32 23 55.5t56 23.5
t56 -23.5t23 -55.5q0 -38 -26 -59l-7 -7t-5 -7q-9 -12 -10 -24t3 -21.5t12.5 -16t18.5 -6.5q14 0 27 7.5t23.5 18t18.5 23t13 23.5z" />
    <glyph glyph-name="z" unicode="z" horiz-adv-x="493" 
d="M300 5q19 0 36 7.5t29.5 20t19.5 29.5t7 36h6v-98h-373l263 469q2 4 2 6q0 13 -13 13h-30h-55q-38 0 -64.5 -27t-26.5 -65h-6v97h373l-263 -469q-2 -4 -2 -6q0 -5 3.5 -9t8.5 -4h85v0z" />
    <glyph glyph-name="A" unicode="A" horiz-adv-x="626" 
d="M570 24q7 -19 26 -19v-5h-193v5q7 0 11.5 5t4.5 11q0 2 -0.5 3t-0.5 3l-48 140h-204l-24 -69q-3 -11 -3 -22q0 -29 20.5 -50t49.5 -21v-5h-179v5q19 0 35.5 7.5t30 20t23.5 28.5t16 33l26 77v2h1l179 527zM368 173l-100 296l-101 -296h201z" />
    <glyph glyph-name="B" unicode="B" horiz-adv-x="575" 
d="M400 372q31 -5 57.5 -21t46 -41t30.5 -56.5t11 -66.5q0 -39 -13.5 -73t-36.5 -59.5t-54 -40t-66 -14.5h-161h-115h-69v6q11 0 18 7t7 18v25v382v93v87v15v11v25q0 11 -7 18t-18 7v6h316q31 0 59 -13t48 -35.5t32 -53t12 -64.5q0 -56 -28 -99t-69 -63zM214 441v-67h71
q13 1 27 11t25.5 30t19 49.5t7.5 69.5t-7.5 70t-19.5 50t-26 30t-27 10h-45q-11 0 -18 -7t-7 -18v-92v-31v-105zM297 6q14 0 30 11t29 33.5t21.5 56.5t8.5 80t-8.5 80t-21.5 56.5t-29 34t-30 11.5h-83v-215v-63v-9v-51q0 -11 7 -18t18 -7h24h34z" />
    <glyph glyph-name="C" unicode="C" horiz-adv-x="577" 
d="M30 350q0 73 20.5 136.5t59 111t93.5 75t124 27.5q55 0 93.5 -14.5t60.5 -29.5q29 -20 47.5 -47t18.5 -58q0 -33 -23 -56t-56 -23t-56 23t-23 56q0 18 7.5 34t20.5 27q8 7 15.5 17t5.5 24q-3 13 -14.5 21t-29.5 13q-8 2 -21 4t-27 2q-29 0 -52.5 -9.5t-40 -35.5t-26 -71
t-9.5 -115v-112v-112q0 -71 9.5 -115.5t26 -70.5t40 -35.5t52.5 -9.5q14 0 27 2t21 4q18 5 29.5 13t14.5 21q2 14 -5.5 24t-15.5 17q-13 11 -20.5 26.5t-7.5 34.5q0 32 23 55.5t56 23.5t56 -23.5t23 -55.5q0 -31 -18.5 -58t-47.5 -47q-22 -15 -60.5 -29.5t-93.5 -14.5
q-69 0 -124 27.5t-93.5 75t-59 111t-20.5 136.5z" />
    <glyph glyph-name="D" unicode="D" horiz-adv-x="699" 
d="M319 700q72 0 136 -27.5t111.5 -75t75 -111.5t27.5 -136t-27.5 -136t-75 -111.5t-111.5 -75t-136 -27.5h-220h-69v6q11 0 18 7t7 18v25v382v93v87v15v11v25q0 11 -7 18t-18 7v6h45h244zM319 6q51 0 85 27t54.5 73.5t28.5 109t8 134.5t-8 134.5t-28.5 109t-54.5 73.5
t-85 27h-70q-15 0 -25 -10.5t-10 -24.5v-113v-105v-287v-113q0 -14 10 -24.5t25 -10.5h70z" />
    <glyph glyph-name="E" unicode="E" horiz-adv-x="454" 
d="M214 441v-89h32q20 0 37.5 7.5t31 21t21 31t7.5 37.5h5v-199h-5q0 20 -7.5 38t-21 31t-31 20.5t-37.5 7.5h-32v-193v-63v-9v-51q0 -11 7 -18t18 -7h24h37q24 0 45.5 9.5t37.5 25.5t25.5 37.5t9.5 45.5h6v-124h-345h-49v6q11 0 18 7t7 18v25v382v93v138q0 11 -7 18t-18 7
v6h49h198h29h118v-125h-6q0 25 -9.5 46.5t-25.5 37.5t-37.5 25.5t-45.5 9.5h-61q-11 0 -18 -7t-7 -18v-92v-31v-105z" />
    <glyph glyph-name="F" unicode="F" horiz-adv-x="454" 
d="M424 700v-125h-6q0 25 -9.5 46.5t-25.5 37.5t-37.5 25.5t-45.5 9.5h-61q-11 0 -18 -7t-7 -18v-92v-31v-105v-89h32q20 0 37.5 7.5t31 21t21 31t7.5 37.5h5v-199h-5q0 20 -7.5 38t-21 31t-31 20.5t-37.5 7.5h-32v-193v-63v-9v-51q0 -11 7 -18t18 -7v-6h-15h-37h-108h-49v6
q11 0 18 7t7 18v138v43v319v138q0 11 -7 18t-18 7v6h49h198h29h118z" />
    <glyph glyph-name="G" unicode="G" horiz-adv-x="638" 
d="M608 264q-11 0 -18.5 -7t-7.5 -18v-208q0 -11 7.5 -18t18.5 -7v-6h-209v6q9 0 15.5 5.5t8.5 14.5q-20 -12 -43.5 -19t-52.5 -7q-69 0 -124 27.5t-93.5 75t-59 111t-20.5 136.5t20.5 136.5t59 111t93.5 75t124 27.5q55 0 93.5 -14.5t60.5 -29.5q29 -20 47.5 -47t18.5 -58
q0 -33 -23 -56t-56 -23t-56 23t-23 56q0 18 7.5 34t20.5 27q8 7 15.5 17t5.5 24q-3 13 -14.5 21t-29.5 13q-8 2 -23 4.5t-44 2.5q-24 -1 -44.5 -13t-34.5 -39t-22 -71.5t-8 -108.5v-112v-112q0 -65 8 -109t22 -71.5t34.5 -39.5t44.5 -12q29 0 53 7t44 20v206q0 11 -7 18
t-18 7v6h209v-6v0z" />
    <glyph glyph-name="H" unicode="H" horiz-adv-x="582" 
d="M526 441v-239v-33v-138q0 -11 7.5 -18t18.5 -7v-6h-15h-37h-108h-49v6q11 0 18 7t7 18v138v177h-154v-144v-33v-138q0 -11 7 -18t18 -7v-6h-15h-37h-108h-49v6q11 0 18 7t7 18v138v269v93v138q0 11 -7 18t-18 7v6h49h108h37h15v-6q-11 0 -18 -7t-7 -18v-138v-90v-88h154
v85v93v138q0 11 -7 18t-18 7v6h49h108h37h15v-6q-11 0 -18.5 -7t-7.5 -18v-138v-90z" />
    <glyph glyph-name="I" unicode="I" horiz-adv-x="269" 
d="M214 151v-120q0 -11 7 -18t18 -7v-6h-14h-83h-112v6q11 0 18 7t7 18v120v398v120q0 11 -7 18t-18 7v6h112h83h14v-6q-11 0 -18 -7t-7 -18v-120v-398z" />
    <glyph glyph-name="J" unicode="J" horiz-adv-x="449" 
d="M394 165q0 -31 -14.5 -60.5t-39 -53t-58 -37.5t-70.5 -14q-38 0 -71 11.5t-58 32t-39 47.5t-14 58q0 33 23 56t56 23t56 -23t23 -56q0 -35 -26 -58q-15 -14 -18 -26t-1 -23t14 -23.5t32 -10.5q14 1 23 14t14 34.5t7 49.5t2 59v504q0 11 -7 18t-18 7v6h193h16v-6
q-11 0 -18 -7t-7 -18v-28v-476z" />
    <glyph glyph-name="K" unicode="K" horiz-adv-x="650" 
d="M620 694q-51 -2 -95 -22t-77 -54l-38 -42q-17 -20 -40.5 -45l-48.5 -53l270 -462q6 -10 20 -10v-6h-13h-64h-83q-20 0 -34 4t-20 15l-25.5 44l-33.5 56.5l-37 63l-36 61.5l-30.5 52t-20.5 36v-149v-32v-120q0 -11 7 -18t18 -7v-6h-14h-83h-112v6q11 0 18 7t7 18v120v328
v70v120q0 11 -7 18t-18 7v6h112h83h14v-6q-11 0 -18 -7t-7 -18v-120v-65v-116l225 249q12 14 12 31q0 20 -13.5 33t-33.5 13v6h216v-6v0z" />
    <glyph glyph-name="L" unicode="L" horiz-adv-x="454" 
d="M214 546v-287v-105v-113q0 -14 10 -24.5t25 -10.5h51q24 0 45.5 9.5t37.5 25.5t25.5 37.5t9.5 45.5h6v-124h-118h-29h-198h-49v6q11 0 18 7t7 18v138v319v43v138q0 11 -7 18t-18 7v6h49h108h37h15v-6q-11 0 -18 -7t-7 -18v-92v-31z" />
    <glyph glyph-name="M" unicode="M" horiz-adv-x="815" 
d="M759 151v-120q0 -11 7.5 -18t18.5 -7v-6h-14h-83h-112v6q11 0 18 7t7 18v120v398v108l-238 -657l-237 657v-561q0 -38 26 -64.5t64 -26.5v-5h-186v5q38 0 64 26.5t26 64.5v576l-1 5q-7 17 -24 17v6h213v-6q-19 0 -19 -19q0 -4 1 -6l155 -428l154 428q1 2 1 6q0 8 -5 13.5
t-13 5.5v6h90h16h83h14v-6q-11 0 -18.5 -7t-7.5 -18v-110v-10v-398z" />
    <glyph glyph-name="N" unicode="N" horiz-adv-x="675" 
d="M645 700v-6q-41 0 -69 -28t-28 -68v-567q0 -11 7.5 -18t18.5 -7v-6h-184l-258 659v-557q0 -20 7.5 -37.5t20.5 -31t30.5 -21t37.5 -7.5v-5h-198v5q20 0 37.5 7.5t30.5 21t20.5 31t7.5 37.5v567q0 11 -7 18t-18 7v6h183l259 -659v557q0 20 -7.5 37.5t-21 30.5t-31 20.5
t-37.5 7.5v6h199z" />
    <glyph glyph-name="O" unicode="O" horiz-adv-x="707" 
d="M353 700q75 0 135 -27.5t102 -75t64.5 -111t22.5 -136.5t-22.5 -136.5t-64.5 -111t-102 -75t-135 -27.5t-135 27.5t-102 75t-64 111t-22 136.5t22 136.5t64 111t102 75t135 27.5zM489 462q0 70 -10.5 115t-28.5 71t-43 35.5t-54 9.5t-53.5 -9.5t-42.5 -35.5t-28.5 -71
t-10.5 -115v-112v-112q0 -71 10.5 -115.5t28.5 -70.5t42.5 -35.5t53.5 -9.5t54 9.5t43 35.5t28.5 70.5t10.5 115.5v112v112z" />
    <glyph glyph-name="P" unicode="P" horiz-adv-x="575" 
d="M317 700q108 0 168 -51t60 -141t-60 -141.5t-168 -51.5h-103v-56v-105v-72v-51q0 -11 7 -18t18 -7v-6h-70h-139v6q11 0 18 7t7 18v51v87v93v382v25q0 11 -7 18t-18 7v6h69h115h103zM283 321q17 0 35 9.5t33 31t25 57.5t10 89t-10 88.5t-25 57.5t-33 31t-35 9h-6h-38
q-11 0 -18 -7t-7 -18v-25v-40v-58v-225h64h5z" />
    <glyph glyph-name="Q" unicode="Q" horiz-adv-x="710" 
d="M680 -67q-1 -16 -6.5 -31t-17 -27t-28.5 -19.5t-40 -7.5q-37 0 -64.5 18.5t-52 40.5t-50.5 40.5t-60 18.5q-25 0 -41 -8t-30 -17q-12 -9 -16.5 -3.5t5.5 13.5q9 6 18.5 10t22.5 9t29.5 12t37.5 19q-8 -1 -16.5 -1h-17.5q-75 0 -135 27.5t-102 75t-64 111t-22 136.5
t22 136.5t64 111t102 75t135 27.5t135 -27.5t102 -75t64.5 -111t22.5 -136.5q0 -101 -41.5 -182t-118.5 -126q-24 -14 -50 -24.5t-51 -19.5t-48 -16.5t-39 -14.5q6 3 16.5 4.5t16.5 1.5q36 0 64.5 -12t54.5 -26t52 -26t56 -12q27 0 48 8t34 28h9zM218 238q0 -71 10.5 -115.5
t28.5 -70.5t42.5 -35.5t53.5 -9.5t54 9.5t43 35.5t28.5 70.5t10.5 115.5v112v112q0 70 -10.5 115t-28.5 71t-43 35.5t-54 9.5t-53.5 -9.5t-42.5 -35.5t-28.5 -71t-10.5 -115v-112v-112z" />
    <glyph glyph-name="R" unicode="R" horiz-adv-x="683" 
d="M580 27q15 -15 34 -17.5t35 11.5l4 -4q-5 -6 -17 -14t-29.5 -15.5t-40.5 -12.5t-50 -5q-67 0 -106.5 25.5t-61.5 63.5t-33 82t-22.5 82.5t-28 64.5t-50.5 27v-56v-105v-72v-51q0 -11 7 -18t18 -7v-6h-70h-139v6q11 0 18 7t7 18v51v87v93v382v25q0 11 -7 18t-18 7v6h69
h115h103q108 0 168 -51t60 -141q0 -75 -41.5 -123t-118.5 -63q33 -10 63 -42q19 -22 35 -57t31 -72t31 -71t35 -53zM214 644v-35v-63v-225h59q17 0 36.5 9.5t36.5 31t28.5 57.5t11.5 89t-10 88.5t-25 57.5t-33 31t-35 9h-6h-28h-10q-11 0 -18 -7t-7 -18v-25z" />
    <glyph glyph-name="S" unicode="S" horiz-adv-x="507" 
d="M411 655q29 -20 47.5 -46.5t18.5 -57.5q0 -33 -23 -56t-56 -23t-56 23t-23 56q0 18 7.5 34t20.5 27q8 7 15.5 17t4.5 24q-2 10 -12 17.5t-25.5 12.5t-34.5 8t-38 3q-26 0 -46.5 -9.5t-31.5 -27.5t-10.5 -43t17.5 -56q17 -32 45.5 -60.5t60.5 -55.5l65 -54t59.5 -56.5
t43.5 -63.5t17 -74q0 -52 -20.5 -88.5t-52.5 -60t-73 -34.5t-81 -11q-55 0 -93.5 14.5t-60.5 29.5q-29 20 -47.5 47t-18.5 58q0 32 23 55.5t56 23.5t56 -23.5t23 -55.5q0 -38 -28 -61q-8 -7 -15.5 -17t-4.5 -24q2 -10 12 -17.5t25.5 -13t34 -8t38.5 -2.5q25 0 46 9.5
t32 27.5t10.5 43t-16.5 56q-18 32 -46 60t-60.5 55.5l-65.5 54.5t-59.5 56.5t-43.5 63.5t-17 74q0 51 20.5 88t52.5 60.5t72.5 34.5t81.5 11q55 0 93.5 -14.5t60.5 -30.5z" />
    <glyph glyph-name="T" unicode="T" horiz-adv-x="578" 
d="M30 700h518v-125h-5q0 25 -9.5 46.5t-25.5 37.5t-37.5 25.5t-46.5 9.5h-30q-11 0 -18.5 -7t-7.5 -18v-10v-113v-105v-287v-23v-100q0 -11 7.5 -18t18.5 -7v-6h-16h-33h-3h-106h-3h-33h-15v6q11 0 18 7t7 18v100v23v287v105v113v10q0 11 -7 18t-18 7h-31q-24 0 -46 -9.5
t-38 -25.5t-25.5 -37.5t-9.5 -46.5h-5v125z" />
    <glyph glyph-name="U" unicode="U" horiz-adv-x="668" 
d="M440 700h198v-6q-40 0 -68 -28t-28 -68v-177v-71q0 -73 -10 -136.5t-36.5 -111t-74 -75t-122.5 -27.5t-122.5 27.5t-74.5 75t-37 111t-10 136.5v319q0 11 -7 18t-18 7v6h15h67h108h49v-6q-11 0 -18.5 -7t-7.5 -18v-319v-112q0 -76 10.5 -122.5t27 -71t37.5 -31t41 -2.5
q96 19 136.5 104t40.5 235v80v168q0 40 -28 68t-68 28v6z" />
    <glyph glyph-name="X" unicode="X" horiz-adv-x="674" 
d="M485 700h159v-6q-30 0 -53.5 -17t-38.5 -42l-145 -248l217 -371q6 -10 20 -10v-6h-14h-63h-142v6q5 0 8.5 3.5t3.5 8.5t-2 7l-165 283l-128 -220q-8 -13 -8 -28q0 -23 16 -39t39 -16v-5h-159v5q30 0 53.5 17.5t38.5 42.5l145 248l-217 371q-6 10 -20 10v6h14h63h142v-6
q-12 0 -12 -13q0 -4 2 -6l165 -283l128 219q8 14 8 28q0 23 -16 39t-39 16v6z" />
    <glyph glyph-name="Y" unicode="Y" horiz-adv-x="671" 
d="M641 694q-30 0 -53.5 -17t-38.5 -42l-140 -240v-244v-120q0 -11 7 -18t18 -7v-6h-14h-83h-112v6q11 0 18 7t7 18v310l-200 343q-6 10 -20 10v6h14h63h142v-6q-12 0 -12 -13q0 -4 2 -6l163 -280l127 216q8 14 8 28q0 23 -16 39t-39 16v6h159v-6z" />
    <glyph glyph-name="Z" unicode="Z" horiz-adv-x="618" 
d="M365 6q25 0 46.5 9.5t37.5 25.5t25.5 37.5t9.5 45.5h5v-124h-143h-316l379 675q1 2 1 6q0 13 -12 13h-114h-31q-24 0 -45.5 -9.5t-37.5 -25.5t-25.5 -37.5t-9.5 -46.5h-6v125h143h316l-378 -675q-2 -4 -2 -6q0 -13 13 -13h17h96h31v0z" />
    <glyph glyph-name="d" unicode="d" horiz-adv-x="537" 
d="M487 31q0 -11 7 -18t18 -7v-6h-112q-32 0 -48 13t-21 42q-16 -21 -42.5 -37t-59.5 -18q-44 -2 -81.5 14t-64.5 48t-42.5 78.5t-15.5 105.5q0 57 14 102t39 77t58 49t72 17q42 0 72 -14.5t49 -25.5v33v185q0 11 -7.5 18t-18.5 7v6h112q41 0 56.5 -20t15.5 -68v-133v-328
v-89v-31zM269 21q16 2 32 13.5t29 30.5q-1 5 -1 11v12v61v294q-12 7 -26.5 12.5t-30.5 4.5q-18 -2 -34 -13.5t-27.5 -36.5t-18 -65.5t-7.5 -98.5q-2 -118 21 -174t63 -51z" />
    <glyph glyph-name="zero" unicode="0" horiz-adv-x="654" 
d="M327 700q58 0 111.5 -21t94.5 -64t66 -109t25 -156t-25 -156t-66 -109t-94.5 -64t-111.5 -21t-111.5 21t-95 64t-66 109t-24.5 156t24.5 156t66 109t95 64t111.5 21zM435 388q-1 73 -3.5 129t-18.5 107q-13 39 -36 54.5t-50 15.5q-28 0 -50.5 -15.5t-35.5 -54.5
q-17 -50 -19.5 -106.5t-2.5 -129.5v-77q0 -72 2.5 -128.5t19.5 -106.5q13 -39 35.5 -54.5t50.5 -15.5q27 0 50 15.5t36 54.5q16 51 18.5 107t3.5 128v77z" />
    <glyph glyph-name="one" unicode="1" horiz-adv-x="269" 
d="M214 31q0 -11 7 -18t18 -7v-6h-97h-112v6q11 0 18 7t7 18v31v26v61v335v125q0 11 -7 18t-18 7v6q51 8 99.5 24.5t84.5 35.5v-221v-328v-89v-31v0z" />
    <glyph glyph-name="two" unicode="2" horiz-adv-x="522" 
d="M486 222q1 -4 3.5 -20.5t2 -40t-7 -50.5t-21.5 -50t-41.5 -40t-67.5 -20q-33 -3 -65 3t-62 15l-56.5 16.5t-48.5 7.5q-30 0 -44.5 -13t-16.5 -29h-7q-12 16 -19 44.5t-3.5 64.5t21 77.5t54.5 84.5q31 36 66 70.5t66.5 69.5t55.5 71t32 75q7 36 3 61.5t-15 42t-26.5 24.5
t-31.5 8q-19 0 -38 -3t-34 -8t-25 -12.5t-12 -17.5q-3 -14 4.5 -24t15.5 -17q13 -11 20.5 -26.5t7.5 -34.5q0 -32 -23 -55.5t-56 -23.5t-56 23.5t-23 55.5q0 31 18.5 58t47.5 47q22 15 60.5 29.5t92.5 14.5q40 0 82.5 -11t76 -34.5t53.5 -60t16 -88.5q-3 -42 -22 -73.5
t-47.5 -55t-64.5 -41.5t-74 -34l-75.5 -31.5t-68.5 -34.5q-49 -29 -68.5 -64t-23.5 -67q14 42 55.5 65.5t103.5 23.5q18 0 41 -3.5l47.5 -7.5t49 -7.5t45.5 -3.5q38 0 66.5 12t28.5 38h8z" />
    <glyph glyph-name="three" unicode="3" horiz-adv-x="540" 
d="M297 385q25 6 62.5 1.5t72 -24t57.5 -56.5t20 -95q-3 -49 -27.5 -88t-61 -66.5t-81.5 -42t-89 -14.5q-55 0 -93.5 14.5t-60.5 29.5q-29 20 -47.5 47t-18.5 58q0 32 23 55.5t56 23.5t56 -23.5t23 -55.5q0 -38 -28 -61q-8 -7 -15.5 -17t-4.5 -24q2 -15 22.5 -24.5
t47.5 -13.5q21 -3 42.5 11.5t39 41.5t29 65.5t11.5 83.5q0 36 -11.5 65.5t-32.5 49t-50.5 26.5t-65.5 -1l-2 7q25 12 50.5 34.5t46 51t34.5 61.5t17 68q1 24 -2 46t-11.5 38.5t-22 26.5t-32.5 10q-20 0 -38.5 -3t-34 -8t-25.5 -12.5t-12 -17.5q-3 -14 4.5 -24t15.5 -17
q28 -23 28 -61q0 -33 -23 -56t-56 -23t-56 23t-23 56q0 31 18.5 57.5t47.5 46.5q22 16 60.5 30.5t93.5 14.5q37 0 77.5 -7.5t74.5 -24.5t55.5 -46.5t21.5 -72.5q0 -35 -18 -61.5t-45.5 -46.5t-59.5 -33.5t-59 -22.5z" />
    <glyph glyph-name="four" unicode="4" horiz-adv-x="483" 
d="M384 155h69v-6h-69v-73v-14v-31q0 -11 7 -18t18 -7v-6h-97h-112v6q11 0 18 7t7 18v31v14v26v47h-188h-7q26 58 57 116t57.5 112.5t44.5 103.5t20 91q1 27 -5 46.5t-15.5 32.5t-20 19.5t-19.5 6.5v7q49 20 95.5 15.5t80.5 -27.5q23 -15 38 -41t17 -57t-10.5 -66t-43.5 -68
q-26 -28 -61 -57l-73.5 -63t-77.5 -74.5t-73 -90.5h184v8v37v57q0 10 -7 17.5t-18 7.5v6q49 8 96 25.5t82 34.5h6v-153v-30v-10z" />
    <glyph glyph-name="five" unicode="5" horiz-adv-x="540" 
d="M257 405q46 6 92 -4.5t83 -35.5t58.5 -64t18.5 -90q-3 -49 -27.5 -88t-61.5 -66.5t-81.5 -42t-88.5 -14.5q-55 0 -93.5 14.5t-60.5 29.5q-29 20 -47.5 47t-18.5 58q0 32 23 55.5t56 23.5t56 -23.5t23 -55.5q0 -38 -28 -61q-8 -7 -15.5 -17t-4.5 -24q2 -15 22.5 -24.5
t47.5 -13.5q21 -3 42.5 11.5t39 41.5t29 65.5t11.5 83.5q0 28 -8 54.5t-23.5 47.5t-39 33.5t-54.5 12.5q-48 0 -84 -17t-57 -34v237q0 21 7 43.5t25 41t49.5 30.5t79.5 12q19 0 40.5 -3.5l44 -7.5t45 -7.5t43.5 -3.5q19 0 36 3t30.5 9t21.5 15.5t8 22.5h8q1 -4 3.5 -21
t1.5 -40.5t-6.5 -50t-21 -49.5t-42 -40t-67.5 -20q-33 -3 -66.5 3t-65 15l-59 16.5t-49.5 7.5q-29 0 -45 -13.5t-16 -28.5v-158l25.5 20t40.5 25.5t54.5 23.5t65.5 15z" />
    <glyph glyph-name="six" unicode="6" horiz-adv-x="597" 
d="M351 412q45 4 85.5 -7.5t70 -37t46 -64.5t13.5 -88t-24.5 -88.5t-54.5 -67.5t-74.5 -43.5t-85.5 -15.5q-58 0 -111.5 21t-95 64t-66 109t-24.5 156q0 67 18 130t55.5 112t94.5 78.5t135 29.5q53 0 92 -14.5t61 -29.5q29 -20 47.5 -47t18.5 -58q0 -32 -23 -55.5t-56 -23.5
t-56 23.5t-23 55.5q0 19 7.5 34.5t20.5 26.5q8 7 15.5 17t4.5 24q-2 10 -14.5 18.5t-31 14t-42 7t-47.5 -1.5q-26 -4 -42.5 -33t-27 -74t-14.5 -101.5t-4 -115.5q15 8 49.5 24t82.5 21zM307 9q15 0 30.5 16.5t27 44.5t18.5 65.5t6 79.5q-1 36 -14.5 67t-36.5 51.5t-53.5 28
t-65.5 -2.5q0 -65 4 -128t14 -112.5t27 -79.5t43 -30z" />
    <glyph glyph-name="seven" unicode="7" horiz-adv-x="522" 
d="M469 699q10 -14 16.5 -36.5t6.5 -51.5q0 -52 -20 -95t-47.5 -83l-55.5 -79.5t-44.5 -83t-14.5 -94.5t36 -114q-17 -28 -46.5 -45t-64.5 -17q-27 0 -50 10t-40.5 28t-28 41.5t-11.5 50.5q-3 55 22.5 96.5t66 76.5t89 66t91.5 64.5t73 72.5t35 89q-14 -42 -56 -65.5
t-103 -23.5q-19 0 -42 3.5l-47.5 7l-48.5 7t-45 3.5q-19 0 -36 -2.5t-30.5 -8.5t-21.5 -15.5t-8 -22.5h-8q-1 4 -3.5 20.5t-1.5 40t6.5 50.5t21 50t41.5 39.5t68 20.5q33 3 65.5 -3t62.5 -15l56.5 -16.5t48.5 -7.5q30 0 44.5 13.5t16.5 28.5h6h1v0z" />
    <glyph glyph-name="eight" unicode="8" horiz-adv-x="567" 
d="M402 387q27 -20 51.5 -41.5t43 -45t29.5 -50t11 -56.5q0 -51 -22.5 -87.5t-58.5 -60.5t-81.5 -35t-90.5 -11h-1q-43 0 -87 10.5t-80 31.5t-58.5 53t-22.5 76q0 32 14 56t34 41.5t42.5 28t40.5 15.5q-27 21 -52 42.5t-43.5 45t-29.5 50t-11 56.5q0 51 23 88t60 60.5
t83 34.5t92 11q43 0 87 -10.5t80 -32t58.5 -54t22.5 -75.5q0 -33 -14.5 -57t-35 -41t-43.5 -27.5t-41 -15.5zM288 694q-29 0 -52.5 -9.5t-36 -27.5t-12.5 -43t19 -56q29 -46 80 -84.5l104 -76.5q16 30 19.5 64.5t3.5 66.5q0 33 -6 63t-20 53t-38 36.5t-61 13.5zM283 6
q28 0 50.5 10t35 28t11.5 43t-19 55q-28 45 -78.5 83l-102.5 76q-15 -30 -18.5 -64t-3.5 -66q0 -33 6 -62.5t20 -52.5t38 -36.5t61 -13.5z" />
    <glyph glyph-name="nine" unicode="9" horiz-adv-x="597" 
d="M270 700q58 0 111.5 -21t94.5 -64t66 -109t25 -156q0 -67 -18 -130t-55.5 -112t-94 -78.5t-134.5 -29.5q-54 0 -93 14.5t-61 29.5q-29 20 -47.5 47t-18.5 58q0 32 23 55.5t56 23.5t56 -23.5t23 -55.5q0 -19 -7.5 -34.5t-20.5 -26.5q-8 -7 -15.5 -17t-4.5 -24
q2 -11 14.5 -19.5t31 -13.5t42 -6.5t47.5 1.5q25 4 42 32.5t27.5 73.5t14.5 102t4 116q-8 -4 -20.5 -11t-29 -13.5t-37.5 -12.5t-45 -8q-45 -5 -85.5 7t-70 37.5t-46 64t-13.5 88.5q3 49 24.5 88.5t54.5 67.5t74.5 43.5t85.5 15.5zM208 485q1 -36 14.5 -67t36.5 -51.5
t53.5 -28t65.5 2.5q0 65 -4 128t-14 112.5t-27 79.5t-43 30q-15 0 -30.5 -16.5t-27 -45t-18.5 -65.5t-6 -79z" />
    <glyph glyph-name="agrave" unicode="&#xe0;" horiz-adv-x="490" 
d="M440 31q0 -11 7 -18t18 -7v-6h-112q-32 0 -48 12t-21 40q-20 -22 -49 -35.5t-62 -16.5q-32 -3 -60 4.5t-48.5 25t-31.5 43.5t-7 60q3 30 17 51t34 36.5t45 26t51 18.5q53 16 76.5 32t31.5 30v50q0 57 -12.5 85t-50.5 23q-46 -5 -52 -32q-3 -14 6 -23.5l17 -17.5
q11 -11 17 -25t6 -31q0 -33 -23 -56t-56 -23t-56 23t-23 56q0 28 15 53t41.5 43.5t61.5 29t75 10.5t75 -10.5t61 -29t41.5 -43.5t15.5 -53v-282v-7v-26v-10zM271 47q3 3 6 5.5t6 5.5q-1 7 -1.5 14.5t-0.5 15.5v38v191q-14 -18 -31.5 -30.5t-33.5 -30t-27 -46t-11 -77.5
q0 -38 9.5 -59.5t24 -30.5t30.5 -7t29 11zM330 556q4 -6 4 -11q0 -8 -5 -12.5t-12 -4.5q-5 0 -9 2l-145 96q-7 5 -7 14q0 7 4.5 12t12.5 5h57q8 0 13 -6z" />
    <glyph glyph-name="aacute" unicode="&#xe1;" horiz-adv-x="490" 
d="M440 31q0 -11 7 -18t18 -7v-6h-112q-32 0 -48 12t-21 40q-20 -22 -49 -35.5t-62 -16.5q-32 -3 -60 4.5t-48.5 25t-31.5 43.5t-7 60q3 30 17 51t34 36.5t45 26t51 18.5q53 16 76.5 32t31.5 30v50q0 57 -12.5 85t-50.5 23q-46 -5 -52 -32q-3 -14 6 -23.5l17 -17.5
q11 -11 17 -25t6 -31q0 -33 -23 -56t-56 -23t-56 23t-23 56q0 28 15 53t41.5 43.5t61.5 29t75 10.5t75 -10.5t61 -29t41.5 -43.5t15.5 -53v-282v-7v-26v-10zM271 47q3 3 6 5.5t6 5.5q-1 7 -1.5 14.5t-0.5 15.5v38v191q-14 -18 -31.5 -30.5t-33.5 -30t-27 -46t-11 -77.5
q0 -38 9.5 -59.5t24 -30.5t30.5 -7t29 11zM247 651q4 6 13 6h57q8 0 12.5 -5t4.5 -12q0 -9 -7 -14l-145 -96q-4 -2 -9 -2q-7 0 -12 4.5t-5 12.5q0 5 4 11z" />
    <glyph glyph-name="acircumflex" unicode="&#xe2;" horiz-adv-x="490" 
d="M440 31q0 -11 7 -18t18 -7v-6h-112q-32 0 -48 12t-21 40q-20 -22 -49 -35.5t-62 -16.5q-32 -3 -60 4.5t-48.5 25t-31.5 43.5t-7 60q3 30 17 51t34 36.5t45 26t51 18.5q53 16 76.5 32t31.5 30v50q0 57 -12.5 85t-50.5 23q-46 -5 -52 -32q-3 -14 6 -23.5l17 -17.5
q11 -11 17 -25t6 -31q0 -33 -23 -56t-56 -23t-56 23t-23 56q0 28 15 53t41.5 43.5t61.5 29t75 10.5t75 -10.5t61 -29t41.5 -43.5t15.5 -53v-282v-7v-26v-10zM271 47q3 3 6 5.5t6 5.5q-1 7 -1.5 14.5t-0.5 15.5v38v191q-14 -18 -31.5 -30.5t-33.5 -30t-27 -46t-11 -77.5
q0 -38 9.5 -59.5t24 -30.5t30.5 -7t29 11zM344 556q5 -5 5 -11q0 -8 -5 -12.5t-12 -4.5q-4 0 -10 2l-77 52l-78 -52q-4 -2 -9 -2q-7 0 -12 4.5t-5 12.5q0 6 5 11l86 95q4 6 13 6q7 0 12 -6z" />
    <glyph glyph-name="atilde" unicode="&#xe3;" horiz-adv-x="490" 
d="M440 31q0 -11 7 -18t18 -7v-6h-112q-32 0 -48 12t-21 40q-20 -22 -49 -35.5t-62 -16.5q-32 -3 -60 4.5t-48.5 25t-31.5 43.5t-7 60q3 30 17 51t34 36.5t45 26t51 18.5q53 16 76.5 32t31.5 30v50q0 57 -12.5 85t-50.5 23q-46 -5 -52 -32q-3 -14 6 -23.5l17 -17.5
q11 -11 17 -25t6 -31q0 -33 -23 -56t-56 -23t-56 23t-23 56q0 28 15 53t41.5 43.5t61.5 29t75 10.5t75 -10.5t61 -29t41.5 -43.5t15.5 -53v-282v-7v-26v-10zM271 47q3 3 6 5.5t6 5.5q-1 7 -1.5 14.5t-0.5 15.5v38v191q-14 -18 -31.5 -30.5t-33.5 -30t-27 -46t-11 -77.5
q0 -38 9.5 -59.5t24 -30.5t30.5 -7t29 11zM373 628v-16q0 -28 -19.5 -47.5t-47.5 -19.5q-23 0 -39 8t-28 17.5l-23 17.5t-24 8q-16 0 -27.5 -11t-11.5 -27h-5v15q0 28 19.5 47.5t47.5 19.5q19 0 33 -8t26.5 -17t25.5 -17t29 -8t27.5 11t11.5 27h5z" />
    <glyph glyph-name="adieresis" unicode="&#xe4;" horiz-adv-x="490" 
d="M440 31v10v26v7v282q0 28 -15.5 53t-41.5 43.5t-61 29t-75 10.5t-75 -10.5t-61.5 -29t-41.5 -43.5t-15 -53q0 -33 23 -56t56 -23t56 23t23 56q0 17 -6 31t-17 25l-17 17.5t-6 23.5q6 27 52 32q38 5 50.5 -23t12.5 -85v-50q-8 -14 -31.5 -30t-76.5 -32q-26 -8 -51 -18.5
t-45 -26t-34 -36.5t-17 -51q-4 -34 7 -60t31.5 -43.5t48.5 -25t60 -4.5q33 3 62 16.5t49 35.5q5 -28 21 -40t48 -12h112v6q-11 0 -18 7t-7 18zM271 47q-13 -9 -29 -11t-30.5 7t-24 30.5t-9.5 59.5q0 49 11 77.5t27 46t33.5 30t31.5 30.5v-191v-38q0 -8 0.5 -15.5t1.5 -14.5
q-3 -3 -6 -5.5t-6 -5.5zM220 592q0 -20 -15 -34.5t-35 -14.5q-21 0 -35.5 14.5t-14.5 34.5q0 21 14.5 35.5t35.5 14.5q20 0 35 -14.5t15 -35.5zM370 592q0 -20 -15 -34.5t-35 -14.5q-21 0 -35.5 14.5t-14.5 34.5q0 21 14.5 35.5t35.5 14.5q20 0 35 -14.5t15 -35.5z" />
    <glyph glyph-name="aring" unicode="&#xe5;" horiz-adv-x="490" 
d="M440 31q0 -11 7 -18t18 -7v-6h-112q-32 0 -48 12t-21 40q-20 -22 -49 -35.5t-62 -16.5q-32 -3 -60 4.5t-48.5 25t-31.5 43.5t-7 60q3 30 17 51t34 36.5t45 26t51 18.5q53 16 76.5 32t31.5 30v50q0 57 -12.5 85t-50.5 23q-46 -5 -52 -32q-3 -14 6 -23.5l17 -17.5
q11 -11 17 -25t6 -31q0 -33 -23 -56t-56 -23t-56 23t-23 56q0 28 15 53t41.5 43.5t61.5 29t75 10.5t75 -10.5t61 -29t41.5 -43.5t15.5 -53v-282v-7v-26v-10zM271 47q3 3 6 5.5t6 5.5q-1 7 -1.5 14.5t-0.5 15.5v38v191q-14 -18 -31.5 -30.5t-33.5 -30t-27 -46t-11 -77.5
q0 -38 9.5 -59.5t24 -30.5t30.5 -7t29 11zM245 657q28 0 44 -19t16 -46t-16 -45.5t-44 -18.5t-44 18.5t-16 45.5t16 46t44 19zM263 609q0 46 -18 46q-19 0 -19 -46v-17v-17q0 -45 19 -45q18 0 18 45v17v17z" />
    <glyph glyph-name="ccedilla" unicode="&#xe7;" horiz-adv-x="471" 
d="M311 413q8 8 16.5 17.5t5.5 23.5q-3 13 -17 21.5t-34 10.5q-4 1 -11 1q-23 0 -39.5 -8.5t-27.5 -29t-16.5 -54t-5.5 -84.5v-64v-65q0 -51 5.5 -84.5t16.5 -54t27.5 -29t39.5 -8.5q2 0 5 0.5t6 0.5q20 2 34 10.5t17 21.5q3 14 -5.5 23.5t-16.5 17.5q-24 24 -24 57
q0 32 23.5 55.5t56.5 23.5q32 0 55.5 -23.5t23.5 -55.5q0 -26 -12.5 -49t-35 -41t-52.5 -30t-65 -16q-6 -10 -17.5 -16t-21.5 -9q6 1 14.5 0t16.5 -5.5t13.5 -13t4.5 -21.5q-2 -23 -21 -36t-39 -13q-13 0 -22 3t-14 7q-15 10 -15 24q0 8 5 13.5t13 5.5t13.5 -5.5t5.5 -13.5
q0 -7 -7 -14l-4 -4t-1 -5q1 -7 17 -9q9 -2 18.5 12t9.5 35q0 17 -10 26.5t-27 5.5l-1 2q8 4 16 12t13 18q-50 2 -90 22.5t-68 53.5t-43 77t-15 94q0 51 15.5 96t45 78t72 52.5t95.5 19.5q40 0 75 -10.5t61 -29t41.5 -43.5t15.5 -53q0 -33 -23.5 -56t-55.5 -23
q-33 0 -56.5 23t-23.5 56q0 32 24 56z" />
    <glyph glyph-name="egrave" unicode="&#xe8;" horiz-adv-x="496" 
d="M367 216q32 0 55.5 -23.5t23.5 -55.5q0 -29 -15.5 -53.5t-41.5 -43.5t-61 -29.5t-75 -10.5q-53 0 -95.5 19.5t-72 53t-45 78.5t-15.5 96t15.5 96t45 78t72 52.5t95.5 19.5q48 0 88 -17.5t69 -45t45 -62.5t16 -69h-289v-52v-65q0 -51 5.5 -84.5t16.5 -54t27.5 -29
t39.5 -8.5q16 0 36.5 7t25.5 26q3 14 -5.5 23.5t-16.5 17.5q-24 24 -24 57q0 32 23.5 55.5t56.5 23.5zM232 481q-26 -14 -38 -53t-12 -117v-7h142q0 26 -1 53t-6 51t-15.5 43t-28.5 30q-2 1 -7 3t-13 2t-13.5 -2t-7.5 -3zM333 556q4 -6 4 -11q0 -8 -5 -12.5t-12 -4.5
q-5 0 -9 2l-145 96q-7 5 -7 14q0 7 4.5 12t12.5 5h57q8 0 13 -6z" />
    <glyph glyph-name="eacute" unicode="&#xe9;" horiz-adv-x="496" 
d="M367 216q32 0 55.5 -23.5t23.5 -55.5q0 -29 -15.5 -53.5t-41.5 -43.5t-61 -29.5t-75 -10.5q-53 0 -95.5 19.5t-72 53t-45 78.5t-15.5 96t15.5 96t45 78t72 52.5t95.5 19.5q48 0 88 -17.5t69 -45t45 -62.5t16 -69h-289v-52v-65q0 -51 5.5 -84.5t16.5 -54t27.5 -29
t39.5 -8.5q16 0 36.5 7t25.5 26q3 14 -5.5 23.5t-16.5 17.5q-24 24 -24 57q0 32 23.5 55.5t56.5 23.5zM232 481q-26 -14 -38 -53t-12 -117v-7h142q0 26 -1 53t-6 51t-15.5 43t-28.5 30q-2 1 -7 3t-13 2t-13.5 -2t-7.5 -3zM250 651q4 6 13 6h57q8 0 12.5 -5t4.5 -12
q0 -9 -7 -14l-145 -96q-4 -2 -9 -2q-7 0 -12 4.5t-5 12.5q0 5 4 11z" />
    <glyph glyph-name="ecircumflex" unicode="&#xea;" horiz-adv-x="496" 
d="M367 216q32 0 55.5 -23.5t23.5 -55.5q0 -29 -15.5 -53.5t-41.5 -43.5t-61 -29.5t-75 -10.5q-53 0 -95.5 19.5t-72 53t-45 78.5t-15.5 96t15.5 96t45 78t72 52.5t95.5 19.5q48 0 88 -17.5t69 -45t45 -62.5t16 -69h-289v-52v-65q0 -51 5.5 -84.5t16.5 -54t27.5 -29
t39.5 -8.5q16 0 36.5 7t25.5 26q3 14 -5.5 23.5t-16.5 17.5q-24 24 -24 57q0 32 23.5 55.5t56.5 23.5zM232 481q-26 -14 -38 -53t-12 -117v-7h142q0 26 -1 53t-6 51t-15.5 43t-28.5 30q-2 1 -7 3t-13 2t-13.5 -2t-7.5 -3zM347 556q5 -5 5 -11q0 -8 -5 -12.5t-12 -4.5
q-4 0 -10 2l-77 52l-78 -52q-4 -2 -9 -2q-7 0 -12 4.5t-5 12.5q0 6 5 11l86 95q6 6 13 6t12 -6z" />
    <glyph glyph-name="edieresis" unicode="&#xeb;" horiz-adv-x="496" 
d="M367 216q-33 0 -56.5 -23.5t-23.5 -55.5q0 -33 24 -57q8 -8 16.5 -17.5t5.5 -23.5q-5 -19 -25.5 -26t-36.5 -7q-23 0 -39.5 8.5t-27.5 29t-16.5 54t-5.5 84.5v65v52h289q0 34 -16 69t-45 62.5t-69 45t-88 17.5q-53 0 -95.5 -19.5t-72 -52.5t-45 -78t-15.5 -96t15.5 -96
t45 -78.5t72 -53t95.5 -19.5q40 0 75 10.5t61 29.5t41.5 43.5t15.5 53.5q0 32 -23.5 55.5t-55.5 23.5zM232 481q2 1 7.5 3t13.5 2t13 -2t7 -3q18 -11 28.5 -30t15.5 -43t6 -51t1 -53h-142v7q0 78 12 117t38 53zM223 592q0 -20 -15 -34.5t-35 -14.5t-35 14.5t-15 34.5
q0 21 15 35.5t35 14.5t35 -14.5t15 -35.5zM373 592q0 -20 -15 -34.5t-35 -14.5q-21 0 -35.5 14.5t-14.5 34.5q0 21 14.5 35.5t35.5 14.5q20 0 35 -14.5t15 -35.5z" />
    <glyph glyph-name="igrave" unicode="&#xec;" horiz-adv-x="259" 
d="M50 343v119q0 11 -7 18t-18 7v6h112h83h14v-6q-11 0 -18 -7t-7 -18v-119v-192v-120q0 -11 7 -18t18 -7v-6h-14h-83h-112v6q11 0 18 7t7 18v120v192zM214 556q5 -5 5 -11q0 -8 -5 -12.5t-12 -4.5q-4 0 -10 2l-144 96q-8 5 -8 14q0 7 5 12t12 5h58q7 0 12 -6z" />
    <glyph glyph-name="iacute" unicode="&#xed;" horiz-adv-x="259" 
d="M50 343v119q0 11 -7 18t-18 7v6h112h83h14v-6q-11 0 -18 -7t-7 -18v-119v-192v-120q0 -11 7 -18t18 -7v-6h-14h-83h-112v6q11 0 18 7t7 18v120v192zM132 651q4 6 12 6h58q7 0 12 -5t5 -12q0 -9 -8 -14l-144 -96q-6 -2 -10 -2q-7 0 -12 4.5t-5 12.5q0 6 5 11z" />
    <glyph glyph-name="icircumflex" unicode="&#xee;" horiz-adv-x="299" 
d="M70 343v119q0 11 -7 18t-18 7v6h112h83h14v-6q-11 0 -18 -7t-7 -18v-119v-192v-120q0 -11 7 -18t18 -7v-6h-14h-83h-112v6q11 0 18 7t7 18v120v192zM249 556q5 -5 5 -11q0 -8 -5 -12.5t-12 -4.5q-4 0 -10 2l-77 52l-78 -52q-4 -2 -9 -2q-7 0 -12 4.5t-5 12.5q0 6 5 11
l86 95q6 6 13 6t12 -6z" />
    <glyph glyph-name="idieresis" unicode="&#xef;" horiz-adv-x="299" 
d="M70 343v119q0 11 -7 18t-18 7v6h112h83h14v-6q-11 0 -18 -7t-7 -18v-119v-192v-120q0 -11 7 -18t18 -7v-6h-14h-83h-112v6q11 0 18 7t7 18v120v192zM124 592q0 -20 -14.5 -34.5t-34.5 -14.5q-21 0 -35.5 14.5t-14.5 34.5q0 21 14.5 35.5t35.5 14.5q20 0 34.5 -14.5
t14.5 -35.5zM274 592q0 -20 -14.5 -34.5t-35.5 -14.5q-20 0 -34.5 14.5t-14.5 34.5q0 21 14.5 35.5t34.5 14.5q21 0 35.5 -14.5t14.5 -35.5z" />
    <glyph glyph-name="eth" unicode="&#xf0;" horiz-adv-x="506" 
d="M288 573q31 -24 65.5 -56.5t62.5 -73.5t46.5 -90t18.5 -106q0 -51 -16 -96t-45.5 -78.5t-71.5 -53t-95 -19.5t-95.5 19.5t-72 53t-45 78.5t-15.5 96t15.5 96t45 78t72 52.5t95.5 19.5q20 0 40 -3q-17 30 -42 55l-46 -34l-6 8l45 33q-33 32 -63.5 50.5t-41.5 23.5h63
q10 -5 31 -16.5t47 -30.5l64 47h17zM324 311q0 91 -17.5 132.5t-53.5 41.5t-53.5 -41.5t-17.5 -132.5v-64v-65q0 -91 17.5 -132.5t53.5 -41.5t53.5 41.5t17.5 132.5v65v64z" />
    <glyph glyph-name="ntilde" unicode="&#xf1;" 
d="M471 31q0 -11 7 -18t18 -7v-6h-13h-84h-112v6q11 0 18.5 7t7.5 18v71v284q0 35 -11 52t-27.5 21t-35 -2t-33.5 -15q3 -17 3 -37v-222v-32v-120q0 -11 7 -18t18 -7v-6h-14h-83h-112v6q11 0 18 7t7 18v120v311q0 11 -7 18t-18 7v6h112q29 0 45 -10.5t22 -34.5
q34 21 71.5 33t71.5 12q25 0 48 -7t39.5 -22.5t26.5 -40t10 -59.5v-277v-56zM373 628v-16q0 -28 -19.5 -47.5t-47.5 -19.5q-23 0 -39 8t-28 17.5l-23 17.5t-24 8q-17 0 -28 -11t-11 -27h-5v15q0 28 19.5 47.5t47.5 19.5q19 0 33 -8t26.5 -17t25.5 -17t29 -8t27 11t11 27h6z
" />
    <glyph glyph-name="ograve" unicode="&#xf2;" horiz-adv-x="506" 
d="M253 493q53 0 95 -19.5t71.5 -52.5t45.5 -78t16 -96t-16 -96t-45.5 -78.5t-71.5 -53t-95 -19.5t-95.5 19.5t-72 53t-45 78.5t-15.5 96t15.5 96t45 78t72 52.5t95.5 19.5zM324 311q0 91 -17.5 132.5t-53.5 41.5t-53.5 -41.5t-17.5 -132.5v-64v-65q0 -91 17.5 -132.5
t53.5 -41.5t53.5 41.5t17.5 132.5v65v64zM338 556q4 -6 4 -11q0 -8 -5 -12.5t-12 -4.5q-5 0 -9 2l-145 96q-7 5 -7 14q0 7 4.5 12t12.5 5h57q8 0 13 -6z" />
    <glyph glyph-name="oacute" unicode="&#xf3;" horiz-adv-x="506" 
d="M253 493q53 0 95 -19.5t71.5 -52.5t45.5 -78t16 -96t-16 -96t-45.5 -78.5t-71.5 -53t-95 -19.5t-95.5 19.5t-72 53t-45 78.5t-15.5 96t15.5 96t45 78t72 52.5t95.5 19.5zM324 311q0 91 -17.5 132.5t-53.5 41.5t-53.5 -41.5t-17.5 -132.5v-64v-65q0 -91 17.5 -132.5
t53.5 -41.5t53.5 41.5t17.5 132.5v65v64zM255 651q4 6 13 6h57q8 0 12.5 -5t4.5 -12q0 -9 -7 -14l-145 -96q-4 -2 -9 -2q-7 0 -12 4.5t-5 12.5q0 5 4 11z" />
    <glyph glyph-name="ocircumflex" unicode="&#xf4;" horiz-adv-x="506" 
d="M253 493q53 0 95 -19.5t71.5 -52.5t45.5 -78t16 -96t-16 -96t-45.5 -78.5t-71.5 -53t-95 -19.5t-95.5 19.5t-72 53t-45 78.5t-15.5 96t15.5 96t45 78t72 52.5t95.5 19.5zM324 311q0 91 -17.5 132.5t-53.5 41.5t-53.5 -41.5t-17.5 -132.5v-64v-65q0 -91 17.5 -132.5
t53.5 -41.5t53.5 41.5t17.5 132.5v65v64zM352 556q5 -5 5 -11q0 -8 -5 -12.5t-12 -4.5q-4 0 -10 2l-77 52l-78 -52q-4 -2 -9 -2q-7 0 -12 4.5t-5 12.5q0 6 5 11l86 95q6 6 13 6t12 -6z" />
    <glyph glyph-name="otilde" unicode="&#xf5;" horiz-adv-x="506" 
d="M253 493q53 0 95 -19.5t71.5 -52.5t45.5 -78t16 -96t-16 -96t-45.5 -78.5t-71.5 -53t-95 -19.5t-95.5 19.5t-72 53t-45 78.5t-15.5 96t15.5 96t45 78t72 52.5t95.5 19.5zM324 311q0 91 -17.5 132.5t-53.5 41.5t-53.5 -41.5t-17.5 -132.5v-64v-65q0 -91 17.5 -132.5
t53.5 -41.5t53.5 41.5t17.5 132.5v65v64zM365 628v-16q0 -28 -19.5 -47.5t-47.5 -19.5q-23 0 -38.5 8t-28 17.5l-23.5 17.5t-24 8q-16 0 -27 -11t-11 -27h-5v15q0 28 19.5 47.5t47.5 19.5q18 0 32 -8t27 -17l25.5 -17t29.5 -8q16 0 27 11t11 27h5z" />
    <glyph glyph-name="odieresis" unicode="&#xf6;" horiz-adv-x="506" 
d="M253 493q-53 0 -95.5 -19.5t-72 -52.5t-45 -78t-15.5 -96t15.5 -96t45 -78.5t72 -53t95.5 -19.5t95 19.5t71.5 53t45.5 78.5t16 96t-16 96t-45.5 78t-71.5 52.5t-95 19.5zM324 247v-65q0 -91 -17.5 -132.5t-53.5 -41.5t-53.5 41.5t-17.5 132.5v65v64q0 91 17.5 132.5
t53.5 41.5t53.5 -41.5t17.5 -132.5v-64zM228 592q0 -20 -15 -34.5t-35 -14.5t-35 14.5t-15 34.5q0 21 15 35.5t35 14.5t35 -14.5t15 -35.5zM378 592q0 -20 -15 -34.5t-35 -14.5q-21 0 -35.5 14.5t-14.5 34.5q0 21 14.5 35.5t35.5 14.5q20 0 35 -14.5t15 -35.5z" />
    <glyph glyph-name="oslash" unicode="&#xf8;" horiz-adv-x="506" 
d="M345 475q65 -27 100.5 -89t35.5 -140q0 -51 -16 -96t-45.5 -78t-71.5 -52.5t-95 -19.5q-56 0 -101 21l-43 -103h-9l46 107q-58 30 -89.5 89t-31.5 132q0 51 15.5 96t45 78.5t72 53t95.5 19.5q47 0 85 -15l59 140h8zM182 181q0 -37 3 -65l129 305q-16 64 -61 64
q-36 0 -53.5 -41.5t-17.5 -132.5v-65v-65zM324 311q0 57 -8 97l-130 -306q13 -95 67 -95q36 0 53.5 41.5t17.5 132.5v65v65z" />
    <glyph glyph-name="ugrave" unicode="&#xf9;" 
d="M471 31q0 -11 7 -18t18 -7v-6h-112q-29 0 -45 10.5t-22 34.5q-33 -20 -71 -32.5t-71 -12.5q-26 0 -48.5 7t-39.5 22.5t-27 40.5t-10 60v128v44v160q0 11 -7 18t-18 7v6h112q40 0 56 -20t16 -68v-103v-59v-135q0 -35 11 -52t27.5 -21t35 2t33.5 15q-3 15 -3 36v374
q0 11 -7.5 18t-18.5 7v6h112q41 0 56.5 -20t15.5 -68v-103v-111v-160zM345 556q5 -5 5 -11q0 -8 -5 -12.5t-12 -4.5q-4 0 -10 2l-144 96q-8 5 -8 14q0 7 5 12t12 5h58q7 0 12 -6z" />
    <glyph glyph-name="uacute" unicode="&#xfa;" 
d="M471 31q0 -11 7 -18t18 -7v-6h-112q-29 0 -45 10.5t-22 34.5q-33 -20 -71 -32.5t-71 -12.5q-26 0 -48.5 7t-39.5 22.5t-27 40.5t-10 60v128v44v160q0 11 -7 18t-18 7v6h112q40 0 56 -20t16 -68v-103v-59v-135q0 -35 11 -52t27.5 -21t35 2t33.5 15q-3 15 -3 36v374
q0 11 -7.5 18t-18.5 7v6h112q41 0 56.5 -20t15.5 -68v-103v-111v-160zM263 651q4 6 12 6h58q7 0 12 -5t5 -12q0 -9 -8 -14l-144 -96q-6 -2 -10 -2q-7 0 -12 4.5t-5 12.5q0 6 5 11z" />
    <glyph glyph-name="ucircumflex" unicode="&#xfb;" 
d="M471 31q0 -11 7 -18t18 -7v-6h-112q-29 0 -45 10.5t-22 34.5q-33 -20 -71 -32.5t-71 -12.5q-26 0 -48.5 7t-39.5 22.5t-27 40.5t-10 60v128v44v160q0 11 -7 18t-18 7v6h112q40 0 56 -20t16 -68v-103v-59v-135q0 -35 11 -52t27.5 -21t35 2t33.5 15q-3 15 -3 36v374
q0 11 -7.5 18t-18.5 7v6h112q41 0 56.5 -20t15.5 -68v-103v-111v-160zM360 556q4 -6 4 -11q0 -17 -17 -17q-3 0 -9 2l-78 52l-77 -52q-6 -2 -9 -2q-17 0 -17 17q0 7 4 11l87 95q4 6 12 6t13 -6z" />
    <glyph glyph-name="udieresis" unicode="&#xfc;" 
d="M471 31v160v111v103q0 48 -15.5 68t-56.5 20h-112v-6q11 0 18.5 -7t7.5 -18v-374q0 -21 3 -36q-15 -9 -33.5 -15t-35 -2t-27.5 21t-11 52v135v59v103q0 48 -16 68t-56 20h-112v-6q11 0 18 -7t7 -18v-160v-44v-128q0 -35 10 -60t27 -40.5t39.5 -22.5t48.5 -7q33 0 71 12.5
t71 32.5q6 -24 22 -34.5t45 -10.5h112v6q-11 0 -18 7t-7 18zM235 592q0 -20 -14.5 -34.5t-34.5 -14.5q-21 0 -35.5 14.5t-14.5 34.5q0 21 14.5 35.5t35.5 14.5q20 0 34.5 -14.5t14.5 -35.5zM385 592q0 -20 -14.5 -34.5t-35.5 -14.5q-20 0 -34.5 14.5t-14.5 34.5
q0 21 14.5 35.5t34.5 14.5q21 0 35.5 -14.5t14.5 -35.5z" />
    <glyph glyph-name="yacute" unicode="&#xfd;" horiz-adv-x="641" 
d="M335 7l-199 464q-9 17 -25 17v5h198v-5q-16 0 -16 -16q0 -5 1 -7l119 -277l89 207q6 12 6 26q0 28 -19.5 47.5t-47.5 19.5v5h175v-5q-35 0 -61 -22.5t-40 -53.5l-259 -604q-15 -35 -42.5 -57t-65.5 -22q-26 0 -48 12t-39 32.5t-26.5 47.5t-9.5 58q0 32 23 55.5t56 23.5
t56 -23.5t23 -55.5q0 -38 -26 -59l-7 -7t-5 -7q-9 -12 -10 -24t3 -21.5t12.5 -16t18.5 -6.5q14 0 27 7.5t23.5 18t18.5 23t13 23.5zM406 566q4 -6 4 -11q0 -8 -5 -12.5t-12 -4.5q-5 0 -9 2l-145 96q-7 5 -7 14q0 7 4.5 12t12.5 5h57q8 0 13 -6z" />
    <glyph glyph-name="ydieresis" unicode="&#xff;" horiz-adv-x="641" 
d="M335 7l-199 464q-9 17 -25 17v5h198v-5q-16 0 -16 -16q0 -5 1 -7l119 -277l89 207q6 12 6 26q0 28 -19.5 47.5t-47.5 19.5v5h175v-5q-35 0 -61 -22.5t-40 -53.5l-259 -604q-15 -35 -42.5 -57t-65.5 -22q-26 0 -48 12t-39 32.5t-26.5 47.5t-9.5 58q0 32 23 55.5t56 23.5
t56 -23.5t23 -55.5q0 -38 -26 -59l-7 -7t-5 -7q-9 -12 -10 -24t3 -21.5t12.5 -16t18.5 -6.5q14 0 27 7.5t23.5 18t18.5 23t13 23.5zM296 592q0 -20 -15 -34.5t-35 -14.5t-35 14.5t-15 34.5q0 21 15 35.5t35 14.5t35 -14.5t15 -35.5zM446 592q0 -20 -15 -34.5t-35 -14.5
q-21 0 -35.5 14.5t-14.5 34.5q0 21 14.5 35.5t35.5 14.5q20 0 35 -14.5t15 -35.5z" />
    <glyph glyph-name="thorn" unicode="&#xfe;" horiz-adv-x="553" 
d="M320 575q48 0 86.5 -17.5t65.5 -48t41.5 -71.5t14.5 -88t-14.5 -88t-41.5 -71.5t-65.5 -48t-86.5 -17.5q-64 0 -111 30v-4v-120q0 -11 7 -18t18 -7v-6h-14h-83h-112v6q11 0 18 7t7 18v120v398v120q0 11 -7 18t-18 7v6h112h83h14v-6q-11 0 -18 -7t-7 -18v-120v-4
q47 30 111 30zM384 409q0 83 -16 121t-48 38t-60 -8.5t-51 -23.5v-372q23 -15 51 -23.5t60 -8.5t48 37.5t16 121.5v59v59z" />
    <glyph glyph-name="Thorn" unicode="&#xde;" horiz-adv-x="490" 
d="M271 413q44 0 79 -13t59.5 -35.5t37.5 -53t13 -64.5q0 -35 -13 -65t-37.5 -52.5t-59.5 -35.5t-79 -13h-57v-50q0 -11 7 -18t18 -7v-6h-14h-83h-112v6q11 0 18 7t7 18v120v192v119q0 11 -7 18t-18 7v6h112h83h14v-6q-11 0 -18 -7t-7 -18v-49h57zM330 290q0 62 -14.5 89
t-44.5 27h-57v-63v-192v-64h57q30 0 44.5 27.5t14.5 88.5v44v43z" />
    <glyph glyph-name="germandbls" unicode="&#xdf;" horiz-adv-x="536" 
d="M505 174q3 -39 -12 -71t-40.5 -55t-59 -35.5t-69.5 -12.5h-57v6q14 0 32.5 10.5t33.5 33t22.5 56.5t0.5 81q-6 39 -18.5 66t-24.5 48t-21.5 39.5t-9.5 39.5q0 17 8 33.5t18.5 34.5t20.5 39t15 47q7 40 2 70t-18.5 50t-33 30t-40.5 10h-15q-11 0 -18 -7t-7 -18v-60v-32
v-31v-105v-287v-63v-60q0 -11 7 -18t18 -7v-6h-140h-69v6q11 0 18 7t7 18v25v49v333v93v113v25q0 11 -7 18t-18 7v6h69h140h57q31 0 62.5 -13t54 -35.5t33 -53t1.5 -64.5q-6 -22 -18.5 -39t-27.5 -30.5l-29 -25.5t-23 -24q-8 -12 -9 -25t10 -26q14 -15 39 -32t50 -39.5
t44 -51.5t22 -67z" />
    <glyph glyph-name="Yacute" unicode="&#xdd;" horiz-adv-x="671" 
d="M641 694q-30 0 -53.5 -17t-38.5 -42l-140 -240v-244v-120q0 -11 7 -18t18 -7v-6h-14h-83h-112v6q11 0 18 7t7 18v310l-200 343q-6 10 -20 10v6h14h63h142v-6q-12 0 -12 -13q0 -4 2 -6l163 -280l127 216q8 14 8 28q0 23 -16 39t-39 16v6h159v-6zM338 859q4 6 12 6h58
q7 0 12 -5t5 -12q0 -9 -8 -14l-144 -96q-6 -2 -10 -2q-7 0 -12 4.5t-5 12.5q0 6 5 11z" />
    <glyph glyph-name="Udieresis" unicode="&#xdc;" horiz-adv-x="668" 
d="M440 694q40 0 68 -28t28 -68v-168v-80q0 -150 -40.5 -235t-136.5 -104q-20 -4 -41 2.5t-37.5 31t-27 71t-10.5 122.5v112v319q0 11 7.5 18t18.5 7v6h-49h-108h-67h-15v-6q11 0 18 -7t7 -18v-319q0 -73 10 -136.5t37 -111t74.5 -75t122.5 -27.5t122.5 27.5t74 75t36.5 111
t10 136.5v71v177q0 40 28 68t68 28v6h-198v-6zM304 800q0 -20 -15 -34.5t-35 -14.5t-35 14.5t-15 34.5q0 21 15 35.5t35 14.5t35 -14.5t15 -35.5zM454 800q0 -20 -15 -34.5t-35 -14.5q-21 0 -35.5 14.5t-14.5 34.5q0 21 14.5 35.5t35.5 14.5q20 0 35 -14.5t15 -35.5z" />
    <glyph glyph-name="Ucircumflex" unicode="&#xdb;" horiz-adv-x="668" 
d="M440 700h198v-6q-40 0 -68 -28t-28 -68v-177v-71q0 -73 -10 -136.5t-36.5 -111t-74 -75t-122.5 -27.5t-122.5 27.5t-74.5 75t-37 111t-10 136.5v319q0 11 -7 18t-18 7v6h15h67h108h49v-6q-11 0 -18.5 -7t-7.5 -18v-319v-112q0 -76 10.5 -122.5t27 -71t37.5 -31t41 -2.5
q96 19 136.5 104t40.5 235v80v168q0 40 -28 68t-68 28v6zM428 764q5 -5 5 -11q0 -8 -5 -12.5t-12 -4.5q-4 0 -10 2l-77 52l-78 -52q-4 -2 -9 -2q-7 0 -12 4.5t-5 12.5q0 6 5 11l86 95q6 6 13 6t12 -6z" />
    <glyph glyph-name="Uacute" unicode="&#xda;" horiz-adv-x="668" 
d="M440 700h198v-6q-40 0 -68 -28t-28 -68v-177v-71q0 -73 -10 -136.5t-36.5 -111t-74 -75t-122.5 -27.5t-122.5 27.5t-74.5 75t-37 111t-10 136.5v319q0 11 -7 18t-18 7v6h15h67h108h49v-6q-11 0 -18.5 -7t-7.5 -18v-319v-112q0 -76 10.5 -122.5t27 -71t37.5 -31t41 -2.5
q96 19 136.5 104t40.5 235v80v168q0 40 -28 68t-68 28v6zM331 859q4 6 13 6h57q8 0 12.5 -5t4.5 -12q0 -9 -7 -14l-145 -96q-4 -2 -9 -2q-7 0 -12 4.5t-5 12.5q0 5 4 11z" />
    <glyph glyph-name="Ugrave" unicode="&#xd9;" horiz-adv-x="668" 
d="M440 700h198v-6q-40 0 -68 -28t-28 -68v-177v-71q0 -73 -10 -136.5t-36.5 -111t-74 -75t-122.5 -27.5t-122.5 27.5t-74.5 75t-37 111t-10 136.5v319q0 11 -7 18t-18 7v6h15h67h108h49v-6q-11 0 -18.5 -7t-7.5 -18v-319v-112q0 -76 10.5 -122.5t27 -71t37.5 -31t41 -2.5
q96 19 136.5 104t40.5 235v80v168q0 40 -28 68t-68 28v6zM414 764q4 -6 4 -11q0 -8 -5 -12.5t-12 -4.5q-5 0 -9 2l-145 96q-7 5 -7 14q0 7 4.5 12t12.5 5h57q8 0 13 -6z" />
    <glyph glyph-name="Oslash" unicode="&#xd8;" horiz-adv-x="707" 
d="M493 670q88 -41 136 -126.5t48 -193.5q0 -73 -22.5 -136.5t-64.5 -111t-102 -75t-135 -27.5q-72 0 -133 26l-35 -84h-9l37 88q-88 41 -135.5 126.5t-47.5 193.5q0 73 22 136.5t64 111t102 75t135 27.5q73 0 133 -26l36 84h9zM218 238q0 -97 20 -149l226 533
q-18 42 -47 56.5t-64 14.5q-29 0 -53.5 -9.5t-42.5 -35.5t-28.5 -71t-10.5 -115v-112v-112zM489 462q0 50 -5.5 86.5t-15.5 62.5l-226 -533q19 -42 47.5 -56.5t63.5 -14.5q29 0 54 9.5t43 35.5t28.5 70.5t10.5 115.5v112v112z" />
    <glyph glyph-name="multiply" unicode="&#xd7;" horiz-adv-x="378" 
d="M194 247l154 -155l-4 -5l-155 155l-154 -155l-5 5l154 155l-154 154l5 5l154 -154l155 154l4 -5z" />
    <glyph glyph-name="divide" unicode="&#xf7;" horiz-adv-x="503" 
d="M30 244v7h443v-7h-443zM286 129q0 -14 -10 -24t-24 -10t-24.5 10t-10.5 24t10.5 24.5t24.5 10.5t24 -10.5t10 -24.5zM286 364q0 -14 -10 -24t-24 -10t-24.5 10t-10.5 24t10.5 24t24.5 10t24 -10t10 -24z" />
    <glyph glyph-name="Odieresis" unicode="&#xd6;" horiz-adv-x="707" 
d="M353 700q-75 0 -135 -27.5t-102 -75t-64 -111t-22 -136.5t22 -136.5t64 -111t102 -75t135 -27.5t135 27.5t102 75t64.5 111t22.5 136.5t-22.5 136.5t-64.5 111t-102 75t-135 27.5zM489 350v-112q0 -71 -10.5 -115.5t-28.5 -70.5t-43 -35.5t-54 -9.5t-53.5 9.5t-42.5 35.5
t-28.5 70.5t-10.5 115.5v112v112q0 70 10.5 115t28.5 71t42.5 35.5t53.5 9.5t54 -9.5t43 -35.5t28.5 -71t10.5 -115v-112zM323 800q0 -20 -14.5 -34.5t-34.5 -14.5q-21 0 -35.5 14.5t-14.5 34.5q0 21 14.5 35.5t35.5 14.5q20 0 34.5 -14.5t14.5 -35.5zM473 800
q0 -20 -14.5 -34.5t-35.5 -14.5q-20 0 -34.5 14.5t-14.5 34.5q0 21 14.5 35.5t34.5 14.5q21 0 35.5 -14.5t14.5 -35.5z" />
    <glyph glyph-name="Otilde" unicode="&#xd5;" horiz-adv-x="707" 
d="M353 700q75 0 135 -27.5t102 -75t64.5 -111t22.5 -136.5t-22.5 -136.5t-64.5 -111t-102 -75t-135 -27.5t-135 27.5t-102 75t-64 111t-22 136.5t22 136.5t64 111t102 75t135 27.5zM489 462q0 70 -10.5 115t-28.5 71t-43 35.5t-54 9.5t-53.5 -9.5t-42.5 -35.5t-28.5 -71
t-10.5 -115v-112v-112q0 -71 10.5 -115.5t28.5 -70.5t42.5 -35.5t53.5 -9.5t54 9.5t43 35.5t28.5 70.5t10.5 115.5v112v112zM461 836v-16q0 -28 -19.5 -47.5t-47.5 -19.5q-23 0 -39 8t-28 17.5l-23 17.5t-24 8q-17 0 -28 -11t-11 -27h-5v15q0 28 19.5 47.5t47.5 19.5
q19 0 33 -8t26.5 -17t25.5 -17t29 -8t27 11t11 27h6z" />
    <glyph glyph-name="Ocircumflex" unicode="&#xd4;" horiz-adv-x="707" 
d="M353 700q75 0 135 -27.5t102 -75t64.5 -111t22.5 -136.5t-22.5 -136.5t-64.5 -111t-102 -75t-135 -27.5t-135 27.5t-102 75t-64 111t-22 136.5t22 136.5t64 111t102 75t135 27.5zM489 462q0 70 -10.5 115t-28.5 71t-43 35.5t-54 9.5t-53.5 -9.5t-42.5 -35.5t-28.5 -71
t-10.5 -115v-112v-112q0 -71 10.5 -115.5t28.5 -70.5t42.5 -35.5t53.5 -9.5t54 9.5t43 35.5t28.5 70.5t10.5 115.5v112v112zM448 764q4 -6 4 -11q0 -17 -17 -17q-3 0 -9 2l-78 52l-77 -52q-6 -2 -9 -2q-17 0 -17 17q0 7 4 11l87 95q4 6 12 6t13 -6z" />
    <glyph glyph-name="Oacute" unicode="&#xd3;" horiz-adv-x="707" 
d="M353 700q75 0 135 -27.5t102 -75t64.5 -111t22.5 -136.5t-22.5 -136.5t-64.5 -111t-102 -75t-135 -27.5t-135 27.5t-102 75t-64 111t-22 136.5t22 136.5t64 111t102 75t135 27.5zM489 462q0 70 -10.5 115t-28.5 71t-43 35.5t-54 9.5t-53.5 -9.5t-42.5 -35.5t-28.5 -71
t-10.5 -115v-112v-112q0 -71 10.5 -115.5t28.5 -70.5t42.5 -35.5t53.5 -9.5t54 9.5t43 35.5t28.5 70.5t10.5 115.5v112v112zM351 859q4 6 12 6h58q7 0 12 -5t5 -12q0 -9 -8 -14l-144 -96q-6 -2 -10 -2q-7 0 -12 4.5t-5 12.5q0 6 5 11z" />
    <glyph glyph-name="Ograve" unicode="&#xd2;" horiz-adv-x="707" 
d="M353 700q75 0 135 -27.5t102 -75t64.5 -111t22.5 -136.5t-22.5 -136.5t-64.5 -111t-102 -75t-135 -27.5t-135 27.5t-102 75t-64 111t-22 136.5t22 136.5t64 111t102 75t135 27.5zM489 462q0 70 -10.5 115t-28.5 71t-43 35.5t-54 9.5t-53.5 -9.5t-42.5 -35.5t-28.5 -71
t-10.5 -115v-112v-112q0 -71 10.5 -115.5t28.5 -70.5t42.5 -35.5t53.5 -9.5t54 9.5t43 35.5t28.5 70.5t10.5 115.5v112v112zM433 764q5 -5 5 -11q0 -8 -5 -12.5t-12 -4.5q-4 0 -10 2l-144 96q-8 5 -8 14q0 7 5 12t12 5h58q7 0 12 -6z" />
    <glyph glyph-name="Ntilde" unicode="&#xd1;" horiz-adv-x="675" 
d="M645 700v-6q-41 0 -69 -28t-28 -68v-567q0 -11 7.5 -18t18.5 -7v-6h-184l-258 659v-557q0 -20 7.5 -37.5t20.5 -31t30.5 -21t37.5 -7.5v-5h-198v5q20 0 37.5 7.5t30.5 21t20.5 31t7.5 37.5v567q0 11 -7 18t-18 7v6h183l259 -659v557q0 20 -7.5 37.5t-21 30.5t-31 20.5
t-37.5 7.5v6h199zM445 836v-16q0 -28 -19.5 -47.5t-47.5 -19.5q-23 0 -39 8t-28 17.5l-23 17.5t-24 8q-17 0 -28 -11t-11 -27h-5v15q0 28 19.5 47.5t47.5 19.5q19 0 33 -8t26.5 -17t25.5 -17t29 -8t27 11t11 27h6z" />
    <glyph glyph-name="Eth" unicode="&#xd0;" horiz-adv-x="699" 
d="M319 700q72 0 136 -27.5t111.5 -75t75 -111.5t27.5 -136t-27.5 -136t-75 -111.5t-111.5 -75t-136 -27.5h-220h-69v6q11 0 18 7t7 18v25v290h-25v8h25v84v93v87v15v11v25q0 11 -7 18t-18 7v6h45h244zM319 6q51 0 85 27t54.5 73.5t28.5 109t8 134.5t-8 134.5t-28.5 109
t-54.5 73.5t-85 27h-70q-15 0 -25 -10.5t-10 -24.5v-113v-105v-87h92v-8h-92v-192v-113q0 -14 10 -24.5t25 -10.5h70z" />
    <glyph glyph-name="Idieresis" unicode="&#xcf;" horiz-adv-x="309" 
d="M239 151v-120q0 -11 7 -18t18 -7v-6h-14h-83h-112v6q11 0 18 7t7 18v120v398v120q0 11 -7 18t-18 7v6h112h83h14v-6q-11 0 -18 -7t-7 -18v-120v-398zM129 800q0 -20 -14.5 -34.5t-34.5 -14.5q-21 0 -35.5 14.5t-14.5 34.5q0 21 14.5 35.5t35.5 14.5q20 0 34.5 -14.5
t14.5 -35.5zM279 800q0 -20 -14.5 -34.5t-35.5 -14.5q-20 0 -34.5 14.5t-14.5 34.5q0 21 14.5 35.5t34.5 14.5q21 0 35.5 -14.5t14.5 -35.5z" />
    <glyph glyph-name="Icircumflex" unicode="&#xce;" horiz-adv-x="273" 
d="M218 151v-120q0 -11 7 -18t18 -7v-6h-14h-83h-112v6q11 0 18 7t7 18v120v398v120q0 11 -7 18t-18 7v6h112h83h14v-6q-11 0 -18 -7t-7 -18v-120v-398zM233 764q4 -6 4 -11q0 -17 -17 -17q-3 0 -9 2l-78 52l-77 -52q-6 -2 -9 -2q-17 0 -17 17q0 7 4 11l87 95q4 6 12 6
t13 -6z" />
    <glyph glyph-name="Iacute" unicode="&#xcd;" horiz-adv-x="269" 
d="M214 151v-120q0 -11 7 -18t18 -7v-6h-14h-83h-112v6q11 0 18 7t7 18v120v398v120q0 11 -7 18t-18 7v6h112h83h14v-6q-11 0 -18 -7t-7 -18v-120v-398zM132 859q4 6 12 6h58q7 0 12 -5t5 -12q0 -9 -8 -14l-144 -96q-6 -2 -10 -2q-7 0 -12 4.5t-5 12.5q0 6 5 11z" />
    <glyph glyph-name="Igrave" unicode="&#xcc;" horiz-adv-x="269" 
d="M214 151v-120q0 -11 7 -18t18 -7v-6h-14h-83h-112v6q11 0 18 7t7 18v120v398v120q0 11 -7 18t-18 7v6h112h83h14v-6q-11 0 -18 -7t-7 -18v-120v-398zM214 764q5 -5 5 -11q0 -8 -5 -12.5t-12 -4.5q-4 0 -10 2l-144 96q-8 5 -8 14q0 7 5 12t12 5h58q7 0 12 -6z" />
    <glyph glyph-name="Edieresis" unicode="&#xcb;" horiz-adv-x="454" 
d="M214 546v31v92q0 11 7 18t18 7h61q24 0 45.5 -9.5t37.5 -25.5t25.5 -37.5t9.5 -46.5h6v125h-118h-29h-198h-49v-6q11 0 18 -7t7 -18v-138v-93v-382v-25q0 -11 -7 -18t-18 -7v-6h49h345v124h-6q0 -24 -9.5 -45.5t-25.5 -37.5t-37.5 -25.5t-45.5 -9.5h-37h-24q-11 0 -18 7
t-7 18v51v9v63v193h32q20 0 37.5 -7.5t31 -20.5t21 -31t7.5 -38h5v199h-5q0 -20 -7.5 -37.5t-21 -31t-31 -21t-37.5 -7.5h-32v89v105zM197 800q0 -20 -15 -34.5t-35 -14.5t-35 14.5t-15 34.5q0 21 15 35.5t35 14.5t35 -14.5t15 -35.5zM347 800q0 -20 -15 -34.5t-35 -14.5
q-21 0 -35.5 14.5t-14.5 34.5q0 21 14.5 35.5t35.5 14.5q20 0 35 -14.5t15 -35.5z" />
    <glyph glyph-name="Ecircumflex" unicode="&#xca;" horiz-adv-x="454" 
d="M214 441v-89h32q20 0 37.5 7.5t31 21t21 31t7.5 37.5h5v-199h-5q0 20 -7.5 38t-21 31t-31 20.5t-37.5 7.5h-32v-193v-63v-9v-51q0 -11 7 -18t18 -7h24h37q24 0 45.5 9.5t37.5 25.5t25.5 37.5t9.5 45.5h6v-124h-345h-49v6q11 0 18 7t7 18v25v382v93v138q0 11 -7 18t-18 7
v6h49h198h29h118v-125h-6q0 25 -9.5 46.5t-25.5 37.5t-37.5 25.5t-45.5 9.5h-61q-11 0 -18 -7t-7 -18v-92v-31v-105zM321 764q5 -5 5 -11q0 -8 -5 -12.5t-12 -4.5q-4 0 -10 2l-77 52l-78 -52q-4 -2 -9 -2q-7 0 -12 4.5t-5 12.5q0 6 5 11l86 95q6 6 13 6t12 -6z" />
    <glyph glyph-name="Eacute" unicode="&#xc9;" horiz-adv-x="454" 
d="M214 441v-89h32q20 0 37.5 7.5t31 21t21 31t7.5 37.5h5v-199h-5q0 20 -7.5 38t-21 31t-31 20.5t-37.5 7.5h-32v-193v-63v-9v-51q0 -11 7 -18t18 -7h24h37q24 0 45.5 9.5t37.5 25.5t25.5 37.5t9.5 45.5h6v-124h-345h-49v6q11 0 18 7t7 18v25v382v93v138q0 11 -7 18t-18 7
v6h49h198h29h118v-125h-6q0 25 -9.5 46.5t-25.5 37.5t-37.5 25.5t-45.5 9.5h-61q-11 0 -18 -7t-7 -18v-92v-31v-105zM224 859q4 6 13 6h57q8 0 12.5 -5t4.5 -12q0 -9 -7 -14l-145 -96q-4 -2 -9 -2q-7 0 -12 4.5t-5 12.5q0 5 4 11z" />
    <glyph glyph-name="Egrave" unicode="&#xc8;" horiz-adv-x="454" 
d="M214 441v-89h32q20 0 37.5 7.5t31 21t21 31t7.5 37.5h5v-199h-5q0 20 -7.5 38t-21 31t-31 20.5t-37.5 7.5h-32v-193v-63v-9v-51q0 -11 7 -18t18 -7h24h37q24 0 45.5 9.5t37.5 25.5t25.5 37.5t9.5 45.5h6v-124h-345h-49v6q11 0 18 7t7 18v25v382v93v138q0 11 -7 18t-18 7
v6h49h198h29h118v-125h-6q0 25 -9.5 46.5t-25.5 37.5t-37.5 25.5t-45.5 9.5h-61q-11 0 -18 -7t-7 -18v-92v-31v-105zM307 764q4 -6 4 -11q0 -8 -5 -12.5t-12 -4.5q-5 0 -9 2l-145 96q-7 5 -7 14q0 7 4.5 12t12.5 5h57q8 0 13 -6z" />
    <glyph glyph-name="Ccedilla" unicode="&#xc7;" horiz-adv-x="577" 
d="M417 602q8 7 15.5 17t5.5 24q-3 13 -14.5 21t-29.5 13q-8 2 -21 4t-27 2q-29 0 -52.5 -9.5t-40 -35.5t-26 -71t-9.5 -115v-112v-112q0 -71 9.5 -115.5t26 -70.5t40 -35.5t52.5 -9.5q14 0 27 2t21 4q18 5 29.5 13t14.5 21q2 14 -5.5 24t-15.5 17q-13 11 -20.5 27t-7.5 34
q0 33 23 56t56 23t56 -23t23 -56q0 -31 -18.5 -57.5t-47.5 -46.5q-21 -15 -58 -29.5t-90 -15.5q-6 -9 -17 -15t-21 -9q6 1 14.5 0t16.5 -5.5t13.5 -13t4.5 -21.5q-2 -23 -21 -36t-39 -13q-13 0 -22 3t-14 7q-15 10 -15 24q0 8 5 13.5t13 5.5t13.5 -5.5t5.5 -13.5
q0 -7 -7 -14q-2 -2 -3.5 -4t-1.5 -5q1 -7 17 -9q10 -2 19 12t9 35q0 17 -10 26.5t-27 5.5v2q18 8 29 32q-62 6 -111 36t-83.5 76.5t-52.5 107t-18 128.5q0 73 20.5 136.5t59 111t93.5 75t124 27.5q55 0 93.5 -14.5t60.5 -29.5q29 -20 47.5 -47t18.5 -58q0 -32 -23 -55.5
t-56 -23.5t-56 23.5t-23 55.5q0 19 7.5 34.5t20.5 26.5z" />
    <glyph glyph-name="Aring" unicode="&#xc5;" horiz-adv-x="626" 
d="M570 24q7 -19 26 -19v-5h-193v5q7 0 11.5 5t4.5 11q0 2 -0.5 3t-0.5 3l-48 140h-204l-24 -69q-3 -11 -3 -22q0 -29 20.5 -50t49.5 -21v-5h-179v5q19 0 35.5 7.5t30 20t23.5 28.5t16 33l26 77v2h1l179 527zM368 173l-100 296l-101 -296h201zM336 865q28 0 44 -19t16 -46
t-16 -45.5t-44 -18.5t-44 18.5t-16 45.5t16 46t44 19zM355 817q0 46 -19 46t-19 -46v-17v-17q0 -45 19 -45t19 45v17v17z" />
    <glyph glyph-name="Adieresis" unicode="&#xc4;" horiz-adv-x="626" 
d="M570 24l-229 676l-179 -527h-1v-2l-26 -77q-6 -17 -16 -33t-23.5 -28.5t-30 -20t-35.5 -7.5v-5h179v5q-29 0 -49.5 21t-20.5 50q0 11 3 22l24 69h204l48 -140q0 -2 0.5 -3t0.5 -3q0 -6 -4.5 -11t-11.5 -5v-5h193v5q-19 0 -26 19zM167 173l101 296l100 -296h-201zM311 800
q0 -20 -15 -34.5t-35 -14.5t-35 14.5t-15 34.5q0 21 15 35.5t35 14.5t35 -14.5t15 -35.5zM461 800q0 -20 -15 -34.5t-35 -14.5q-21 0 -35.5 14.5t-14.5 34.5q0 21 14.5 35.5t35.5 14.5q20 0 35 -14.5t15 -35.5z" />
    <glyph glyph-name="Atilde" unicode="&#xc3;" horiz-adv-x="626" 
d="M570 24q7 -19 26 -19v-5h-193v5q7 0 11.5 5t4.5 11q0 2 -0.5 3t-0.5 3l-48 140h-204l-24 -69q-3 -11 -3 -22q0 -29 20.5 -50t49.5 -21v-5h-179v5q19 0 35.5 7.5t30 20t23.5 28.5t16 33l26 77v2h1l179 527zM368 173l-100 296l-101 -296h201zM448 836v-16
q0 -28 -19.5 -47.5t-47.5 -19.5q-23 0 -38.5 8t-28 17.5l-23.5 17.5t-24 8q-16 0 -27 -11t-11 -27h-5v15q0 28 19.5 47.5t47.5 19.5q18 0 32 -8t27 -17l25.5 -17t29.5 -8q16 0 27 11t11 27h5z" />
    <glyph glyph-name="Acircumflex" unicode="&#xc2;" horiz-adv-x="626" 
d="M570 24q7 -19 26 -19v-5h-193v5q7 0 11.5 5t4.5 11q0 2 -0.5 3t-0.5 3l-48 140h-204l-24 -69q-3 -11 -3 -22q0 -29 20.5 -50t49.5 -21v-5h-179v5q19 0 35.5 7.5t30 20t23.5 28.5t16 33l26 77v2h1l179 527zM368 173l-100 296l-101 -296h201zM435 764q5 -5 5 -11
q0 -8 -5 -12.5t-12 -4.5q-4 0 -10 2l-77 52l-78 -52q-4 -2 -9 -2q-7 0 -12 4.5t-5 12.5q0 6 5 11l86 95q6 6 13 6t12 -6z" />
    <glyph glyph-name="Aacute" unicode="&#xc1;" horiz-adv-x="626" 
d="M570 24q7 -19 26 -19v-5h-193v5q7 0 11.5 5t4.5 11q0 2 -0.5 3t-0.5 3l-48 140h-204l-24 -69q-3 -11 -3 -22q0 -29 20.5 -50t49.5 -21v-5h-179v5q19 0 35.5 7.5t30 20t23.5 28.5t16 33l26 77v2h1l179 527zM368 173l-100 296l-101 -296h201zM338 859q4 6 13 6h57
q8 0 12.5 -5t4.5 -12q0 -9 -7 -14l-145 -96q-4 -2 -9 -2q-7 0 -12 4.5t-5 12.5q0 5 4 11z" />
    <glyph glyph-name="Agrave" unicode="&#xc0;" horiz-adv-x="626" 
d="M570 24q7 -19 26 -19v-5h-193v5q7 0 11.5 5t4.5 11q0 2 -0.5 3t-0.5 3l-48 140h-204l-24 -69q-3 -11 -3 -22q0 -29 20.5 -50t49.5 -21v-5h-179v5q19 0 35.5 7.5t30 20t23.5 28.5t16 33l26 77v2h1l179 527zM368 173l-100 296l-101 -296h201zM421 764q4 -6 4 -11
q0 -8 -5 -12.5t-12 -4.5q-5 0 -9 2l-145 96q-7 5 -7 14q0 7 4.5 12t12.5 5h57q8 0 13 -6z" />
    <glyph glyph-name="f.alt1" horiz-adv-x="494" 
d="M297 493q38 0 70 -10.5t54.5 -29t35 -43.5t12.5 -53q0 -33 -23 -56t-56 -23q-32 0 -55.5 23t-23.5 56q0 17 6 31t17 25l17 17.5t6 23.5q-4 17 -19 24.5t-26 7.5q-18 0 -33 -8.5t-25.5 -22t-16.5 -30.5t-7 -35q-2 -58 17 -119.5t42 -124.5h11q33 0 56.5 23t23.5 56h4v-164
h-4q0 33 -23.5 56.5t-56.5 23.5h-9l25.5 -69t22.5 -67t15 -64.5t3 -61.5q-2 -31 -15.5 -58.5t-35.5 -47.5t-52 -32t-64 -12t-64 12t-52.5 32t-35.5 47.5t-13 58.5q0 32 23 55.5t56 23.5t56 -23.5t23 -55.5q0 -36 -26 -59q-15 -14 -18 -26t-1 -23t14 -24t32 -11q28 2 39 46
t-6 112q-12 44 -31.5 93l-39 99t-35 98.5t-18.5 92.5q-3 50 10.5 90t40.5 68t66 43t87 15z" />
    <glyph glyph-name="k.alt1" horiz-adv-x="522" 
d="M478 16q2 -5 7.5 -7.5t11.5 -2.5v-6h-13h-84h-49q-20 0 -34.5 3.5t-20.5 15.5l-22.5 44l-24.5 47.5l-22.5 44.5l-17.5 35v-7v-32v-120q0 -11 7 -18t18 -7v-6h-14h-83h-112v6q11 0 18 7t7 18v533v105q0 11 -7 18t-18 7v6h112q40 0 56 -20t16 -68v-47v-354l139 201
q9 12 9 27q0 20 -14.5 34.5t-34.5 14.5v5h159v-5q-29 -2 -56.5 -20t-44.5 -43l-60 -87l20 -38l29.5 -55.5l34.5 -64.5l35 -65.5l31 -57.5z" />
    <glyph glyph-name="w.alt1" horiz-adv-x="733" 
d="M704 414q9 -82 -5 -157t-49 -132t-89 -91t-124 -34q-35 0 -63.5 13t-44.5 42q-32 -26 -70.5 -40.5t-83.5 -14.5q-26 0 -48.5 7t-39.5 22.5t-27 40t-10 59.5v129v44v160q0 11 -7 18t-18 7v6h112q40 0 56 -20t16 -68v-299q0 -35 11 -52t27.5 -21t34 1.5t31.5 15.5
q3 2 6.5 5t6.5 5q-7 14 -10.5 31t-3.5 38v129v44v160q0 11 -7 18t-18 7v6h112q40 0 56 -20t16 -68v-299q0 -35 11 -52t27.5 -21t34 1.5t31.5 15.5l20 16.5t19 19.5q40 45 62 108.5t25 138.5q0 8 -6.5 10t-10.5 2q-11 0 -27.5 -5t-32.5 -5q-32 0 -55.5 23t-23.5 56t23.5 56
t55.5 23q33 0 54.5 -23.5t25.5 -55.5z" />
    <glyph glyph-name="v.alt1" horiz-adv-x="471" 
d="M439 333q0 8 -6.5 10t-10.5 2q-11 0 -27.5 -5t-31.5 -5q-33 0 -56.5 23t-23.5 56t23.5 56t56.5 23q32 0 53.5 -23.5t25.5 -55.5q9 -82 -5 -157t-49 -132t-89 -91t-124 -34q-26 0 -48.5 7t-39.5 22.5t-27 40t-10 59.5v129v44v160q0 11 -7 18t-18 7v6h112q40 0 56 -20
t16 -68v-299q0 -35 11 -52t27.5 -21t34 1.5t31.5 15.5l20 16.5t19 19.5q40 45 62 108.5t25 138.5z" />
    <glyph glyph-name="g.alt1" horiz-adv-x="537" 
d="M512 493v-6q-11 0 -18 -7.5t-7 -18.5v-31v-88v-36v-116v-140v-120q0 -47 -18.5 -84t-50.5 -63t-74.5 -40t-91.5 -14t-88.5 13t-68 35t-44 51.5t-15.5 63.5q0 33 23.5 56t55.5 23q33 0 56.5 -23t23.5 -56q0 -17 -6.5 -30.5t-16.5 -25.5q-5 -5 -14.5 -17t-9.5 -27
q0 -22 26.5 -40.5t77.5 -16.5q46 2 61.5 38t15.5 116v151v14q-17 -20 -42.5 -35t-57.5 -17q-44 -2 -81.5 14t-64.5 48t-42.5 78t-15.5 105q0 57 14 102.5t39 77.5t58 49t72 17q22 0 41 -4.5t34.5 -11.5t28.5 -14t22 -13q11 43 66 43h112zM269 23q16 2 31.5 13.5t28.5 28.5
v24v138v78v38v62q0 21 3 38q-12 8 -27.5 14t-32.5 4q-18 -1 -34 -12.5t-27.5 -36.5t-18 -65.5t-7.5 -99.5q-2 -117 21 -173t63 -51z" />
    <glyph glyph-name="V.alt1" horiz-adv-x="563" 
d="M360 99q38 43 68 97.5t51 114t33 118.5t14 111q0 8 -6.5 10t-10.5 2q-11 0 -27 -5t-32 -5q-32 0 -55.5 23t-23.5 56q0 32 23.5 55.5t55.5 23.5q33 0 54.5 -23.5t25.5 -55.5q6 -55 -1.5 -122t-27 -136t-50.5 -134.5t-72 -116t-91 -81.5t-108 -31q-26 0 -48.5 7t-39.5 22.5
t-27 40t-10 59.5v129v251v160q0 11 -7 18t-18 7v6h112q40 0 56 -20t16 -68v-108v-245v-144q0 -35 11.5 -52t28 -21.5t34 1.5t30.5 16q8 7 19.5 18z" />
    <glyph glyph-name="a.alt1" horiz-adv-x="536" 
d="M486 32q0 -11 7 -18t18 -7v-6h-112q-32 0 -48 12.5t-21 40.5q-17 -22 -43 -37t-58 -17q-44 -2 -81.5 14t-64.5 48t-42.5 78.5t-15.5 105.5q0 57 17 101.5t45.5 75.5t64.5 48t75 19q40 2 73.5 -3t64 -8.5t59.5 -2t62 16.5v-187v-115v-159zM269 21q15 2 30.5 13t29.5 29
q-1 6 -1.5 12.5t-0.5 13.5v138v78v170q-7 2 -16.5 3.5t-21.5 -0.5q-20 -4 -38 -18.5t-32.5 -42.5t-23.5 -70.5t-10 -100.5q-2 -118 21 -174t63 -51z" />
    <glyph glyph-name="ampersand.alt1" horiz-adv-x="759" 
d="M348 671q0 -42 28 -90.5t70.5 -102.5l92 -112t92 -118t70.5 -120t28 -118q0 -37 -13 -74t-37 -66.5t-59 -48t-80 -18.5q-32 0 -63 14q-4 -1 -12 -1q-29 0 -55.5 9t-47 23.5t-32.5 33.5t-12 40q0 23 11.5 41.5t29.5 28.5q-1 7 -1 14v15q-23 -10 -48 -15.5t-52 -5.5
q-47 0 -88.5 16.5t-72.5 45t-49 67t-18 82.5q0 41 16 77.5t44 64.5t65.5 45.5t80.5 21.5q-26 46 -41 89.5t-13 82.5q2 32 15.5 60.5t36 49.5t52.5 33.5t65 12.5h16q33 35 83 35q24 0 45.5 -9t37.5 -25t25 -37t9 -45t-9 -45t-25 -37t-37.5 -25t-45.5 -9v15q23 0 43.5 7
t36 20.5t24.5 32t9 41.5t-9 43.5t-24.5 36t-36 24.5t-43.5 9t-41 -9.5t-32 -23.5q58 -9 96 -47l-2 -2q-20 20 -45 30t-48 12h-6q-24 -32 -24 -69zM354 111h10t10 1q8 18 17 34.5t21 30.5l-87 113t-79 114q-32 -23 -50.5 -56.5t-18.5 -73.5q0 -34 14 -63.5t38 -51.5t56 -35
t69 -13zM415 172q-22 -26 -35 -59q31 4 63 22q-7 9 -13.5 18.5t-14.5 18.5zM466 -178q-19 9 -34 23q-3 -3 -3 -7q0 -5 5 -10t19 -6h12h1zM476 -178q13 2 28.5 9t28 20.5t18.5 34.5t2 50q-7 38 -32.5 82.5t-60.5 94.5q-34 -58 -97 -89v-3q0 -7 0.5 -13.5t1.5 -12.5q16 7 32 7
q33 0 56 -23.5t23 -56.5q0 -37 -29 -61q-7 -5 -12 -12q17 -16 41 -27zM540 -192q45 0 75 22t48.5 53.5t26 66.5t7.5 60q0 54 -24 110t-60.5 111.5t-80 110l-83.5 106t-71 100t-41 91.5q-3 13 -3 28q0 39 24 71q-17 -5 -29 -22t-12 -43q0 -36 20.5 -80t53 -93t71.5 -101
l75.5 -103.5t66 -101.5t43.5 -94q17 -59 10.5 -108.5t-29.5 -86.5t-60 -60t-80 -28q24 -9 52 -9z" />
    <glyph glyph-name="Ydieresis" unicode="&#x178;" horiz-adv-x="671" 
d="M641 700h-159v-6q23 0 39 -16t16 -39q0 -14 -8 -28l-127 -216l-163 280q-2 2 -2 6q0 13 12 13v6h-142h-63h-14v-6q14 0 20 -10l200 -343v-310q0 -11 -7 -18t-18 -7v-6h112h83h14v6q-11 0 -18 7t-7 18v120v244l140 240q15 25 38.5 42t53.5 17v6zM323 800
q0 -20 -14.5 -34.5t-34.5 -14.5q-21 0 -35.5 14.5t-14.5 34.5q0 21 14.5 35.5t35.5 14.5q20 0 34.5 -14.5t14.5 -35.5zM473 800q0 -20 -14.5 -34.5t-35.5 -14.5q-20 0 -34.5 14.5t-14.5 34.5q0 21 14.5 35.5t34.5 14.5q21 0 35.5 -14.5t14.5 -35.5z" />
    <glyph glyph-name="b" unicode="b" horiz-adv-x="537" 
d="M329 491q39 0 72.5 -17t58 -49t38.5 -77t14 -102q0 -59 -15 -105.5t-42 -78.5t-64.5 -48t-82.5 -14q-33 2 -59 18t-43 37q-5 -29 -21 -42t-48 -13h-112v6q11 0 18 7t7 18v31v89v328v70v120q0 11 -7 18t-18 7v6h112q40 0 56 -20t16 -68v-61v-67v-33q19 11 48.5 25.5
t71.5 14.5zM268 21q40 -5 63.5 51t21.5 174q-1 58 -8 98.5t-18.5 65.5t-27 36.5t-33.5 13.5q-17 1 -31.5 -4.5t-25.5 -12.5v-294v-61q0 -6 -0.5 -12t-0.5 -11q13 -19 28.5 -30.5t31.5 -13.5z" />
    <glyph glyph-name="c" unicode="c" horiz-adv-x="471" 
d="M182 247v-65q0 -51 5.5 -84.5t16.5 -54t27.5 -29t39.5 -8.5q2 0 5 0.5t6 0.5q20 2 34 10.5t17 21.5q3 14 -5.5 23.5t-16.5 17.5q-24 24 -24 57q0 32 23.5 55.5t56.5 23.5q32 0 55.5 -23.5t23.5 -55.5q0 -29 -15.5 -53.5t-41.5 -43.5t-61 -29.5t-75 -10.5
q-53 0 -95.5 19.5t-72 53t-45 78.5t-15.5 96t15.5 96t45 78t72 52.5t95.5 19.5q40 0 75 -10.5t61 -29t41.5 -43.5t15.5 -53q0 -33 -23.5 -56t-55.5 -23q-33 0 -56.5 23t-23.5 56q0 32 24 56q8 8 16.5 17.5t5.5 23.5q-3 13 -17 21.5t-34 10.5q-4 1 -11 1q-23 0 -39.5 -8.5
t-27.5 -29t-16.5 -54t-5.5 -84.5v-64z" />
    <glyph glyph-name="a" unicode="a" horiz-adv-x="490" 
d="M440 31q0 -11 7 -18t18 -7v-6h-112q-32 0 -48 12t-21 40q-20 -22 -49 -35.5t-62 -16.5q-32 -3 -60 4.5t-48.5 25t-31.5 43.5t-7 60q3 30 17 51t34 36.5t45 26t51 18.5q53 16 76.5 32t31.5 30v50q0 57 -12.5 85t-50.5 23q-46 -5 -52 -32q-3 -14 6 -23.5l17 -17.5
q11 -11 17 -25t6 -31q0 -33 -23 -56t-56 -23t-56 23t-23 56q0 28 15 53t41.5 43.5t61.5 29t75 10.5t75 -10.5t61 -29t41.5 -43.5t15.5 -53v-282v-7v-26v-10zM271 47q3 3 6 5.5t6 5.5q-1 7 -1.5 14.5t-0.5 15.5v38v191q-14 -18 -31.5 -30.5t-33.5 -30t-27 -46t-11 -77.5
q0 -38 9.5 -59.5t24 -30.5t30.5 -7t29 11z" />
    <glyph glyph-name="f" unicode="f" horiz-adv-x="452" 
d="M254 700q38 0 70 -10.5t55 -29.5t35.5 -44t12.5 -53q0 -32 -23.5 -55.5t-56.5 -23.5q-32 0 -55.5 23.5t-23.5 55.5q0 33 24 57q8 8 16.5 17.5t5.5 23.5q-4 17 -18.5 24.5t-26.5 7.5q-37 0 -48.5 -36.5t-11.5 -116.5v-151v-36h26q33 0 56 23t23 56h6v-164h-6q0 33 -23 56
t-56 23h-26v-316q0 -11 7 -18t18 -7v-6h-193h-16v6q11 0 18 7t7 18v28v424q0 103 53.5 160t150.5 57z" />
    <glyph glyph-name="k" unicode="k" horiz-adv-x="548" 
d="M503 16q6 -10 20 -10v-6h-14h-83h-50q-20 0 -34.5 3.5t-19.5 15.5l-23 44l-23.5 45.5l-22 42.5l-18.5 35q-4 8 -2.5 13.5t9.5 14.5q10 13 25.5 35.5l31.5 48t29 50.5t18 44q6 26 2.5 42.5t-13 24t-23.5 5.5t-28 -12q-32 -23 -51 -50.5t-24 -42.5v-176v-32v-120
q0 -11 7 -18t18 -7v-6h-14h-83h-112v6q11 0 18 7t7 18v120v328v70v120q0 11 -7 18t-18 7v6h112q40 0 56 -20t16 -68v-61v-67v-110q4 9 16 26.5t31.5 36t46 34.5t59.5 21q24 4 46.5 -1t40 -18.5t27.5 -35.5t7 -53q-2 -30 -15.5 -59.5t-29.5 -53.5t-29.5 -40.5t-16.5 -20.5
q-1 -2 -2 -5.5t2 -8.5q7 -13 21 -35.5l30 -48l32 -51.5z" />
    <glyph glyph-name="w" unicode="w" horiz-adv-x="798" 
d="M773 493v-5q-35 0 -61 -22.5t-40 -53.5l-177 -412l-121 282l-121 -282l-203 471q-7 17 -25 17v5h199v-5q-7 0 -12 -4.5t-5 -11.5q0 -3 2 -7l119 -277l43 101l-78 182q-9 17 -26 17v5h199v-5q-16 0 -16 -16q0 -5 1 -7l119 -277l89 207q6 12 6 26q0 28 -19.5 47.5
t-47.5 19.5v5h175z" />
    <glyph glyph-name="v" unicode="v" horiz-adv-x="555" 
d="M530 493v-5q-35 0 -60.5 -22.5t-39.5 -53.5l-177 -412l-203 471q-7 17 -25 17v5h199v-5q-7 0 -12 -4.5t-5 -11.5q0 -3 2 -7l119 -277l89 207q5 13 5 26q0 28 -19.5 47.5t-46.5 19.5v5h174z" />
    <glyph glyph-name="g" unicode="g" 
d="M261 132q109 -8 172 -62.5t63 -138.5q0 -47 -18.5 -84.5t-50.5 -63.5t-74.5 -40t-91.5 -14h-1q-49 0 -91.5 13t-74.5 35t-50.5 51.5t-18.5 63.5q0 33 23 56.5t56 23.5t56 -23.5t23 -56.5q0 -16 -6 -30t-17 -25l-14 -17.5t-9 -27.5q0 -19 13.5 -30t33 -17t41 -8t36.5 -2
q45 0 75.5 12t49.5 31t27.5 42.5t8.5 47.5q0 34 -20.5 58t-51.5 32q-30 8 -64.5 12t-69.5 7.5t-66.5 9t-55.5 15.5q-30 13 -49.5 40.5t-19.5 62.5q0 41 26 71t64 38q-56 45 -56 115q0 33 14 62.5t40 51.5t63.5 35.5t85.5 14.5q47 -1 84.5 -14.5t64 -35.5t40.5 -51.5
t14 -62.5t-14 -62.5t-40.5 -51.5t-64 -35.5t-84.5 -14.5q-45 2 -80 13t-61 31q-16 -8 -20 -21t5 -26q6 -9 22.5 -14t38 -8t46 -4.5t48.5 -3.5zM204 286q0 -114 58 -114t58 114v43v43q0 115 -58 115t-58 -115v-43v-43z" />
    <glyph glyph-name="V" unicode="V" horiz-adv-x="686" 
d="M656 700v-6q-38 0 -66 -26.5t-39 -61.5l-206 -606h-60l-229 676q-7 18 -26 18v6h209v-6q-16 0 -16 -16q0 -1 0.5 -2t0.5 -3l172 -507l148 435q3 12 3 23q0 29 -20.5 49.5t-49.5 20.5v6h179z" />
    <glyph glyph-name="W" unicode="W" horiz-adv-x="973" 
d="M764 700h179v-6q-38 0 -66 -26.5t-39 -61.5l-206 -606h-60l-113 334l-114 -334h-60l-229 676q-7 18 -26 18v6h209v-6q-16 0 -16 -16q0 -1 0.5 -2t0.5 -3l172 -507l60 177l-113 333q-7 18 -26 18v6h209v-6q-16 0 -16 -16q0 -3 1 -5l172 -507l148 435q3 12 3 23
q0 29 -20.5 49.5t-49.5 20.5v6z" />
    <glyph glyph-name="ampersand" unicode="&#x26;" horiz-adv-x="767" 
d="M699 69q16 0 33 10l5 -3q-17 -33 -58 -54.5t-94 -21.5q-39 0 -72.5 12.5t-55.5 32.5l-30 28.5l-31 31.5q-40 -45 -87 -75t-102 -30q-37 0 -69 14t-56 38t-38 56t-14 69t14 69t38 56t56 38t69 14h2q-24 43 -38.5 82t-16.5 70q-3 52 17 88.5t53 60t74.5 34.5t82.5 11
q54 0 92.5 -14.5t60.5 -29.5q29 -20 47.5 -47t18.5 -58q0 -32 -23 -55.5t-56 -23.5q-32 0 -55.5 23.5t-23.5 55.5q0 19 7.5 34.5t20.5 26.5q8 7 15.5 17t5.5 24q-2 10 -12 17.5t-25.5 12.5t-34.5 8t-38 3q-16 0 -31.5 -8t-26.5 -24.5t-15.5 -42t3.5 -61.5q5 -25 21 -59.5
t40.5 -75t56.5 -85.5t70 -90l18 24q10 13 10 29q0 20 -14 33.5t-34 13.5v6h159v-6q-39 0 -71 -29.5t-64 -74.5q35 -42 74 -82.5t81 -76.5q18 -16 41 -16zM321 88q40 0 71 22q-48 51 -94 111t-81 119q-33 -42 -33 -102q0 -31 9.5 -58.5t27 -47.5t43 -32t57.5 -12z" />
    <glyph glyph-name="exclam" unicode="!" horiz-adv-x="260" 
d="M130 35q33 0 56 -23t23 -56t-23 -56t-56 -23t-56 23t-23 56t23 56t56 23zM130 700q21 0 39.5 -7.5t32 -21t21 -31.5t6.5 -39q-2 -39 -10.5 -88.5t-21.5 -114.5l-28.5 -148t-32.5 -189q-2 -5 -6 -5q-5 0 -5 5q-17 106 -33 189l-29 148t-21.5 114.5t-10.5 88.5
q-1 21 6.5 39t21 31.5t32 21t39.5 7.5z" />
    <glyph glyph-name="quotedbl" unicode="&#x22;" horiz-adv-x="422" 
d="M104 527q18 21 17 35.5t-12 19.5q-33 0 -56 23t-23 56q0 32 23 55.5t56 23.5t56 -23.5t23 -55.5q0 -23 -8 -44t-20 -39.5t-27 -33t-29 -23.5v6zM308 527q18 21 17 35.5t-12 19.5q-33 0 -56 23t-23 56q0 32 23 55.5t56 23.5t56 -23.5t23 -55.5q0 -23 -8 -44t-20 -39.5
t-27 -33t-29 -23.5v6z" />
    <glyph glyph-name="numbersign" unicode="#" 
d="M252 511h7l-158 -529h-7zM422 511h7l-158 -529h-7zM114 384l2 7h375l-2 -7h-375zM30 101l1 7h376l-3 -7h-374z" />
    <glyph glyph-name="dollar" unicode="$" horiz-adv-x="507" 
d="M411 655q29 -20 47.5 -46.5t18.5 -57.5q0 -33 -23 -56t-56 -23t-56 23t-23 56q0 18 7.5 34t20.5 27q8 7 15.5 17t4.5 24q-2 10 -12 17.5t-25.5 12.5t-34.5 8t-38 3v-221q34 -32 73 -62.5t71.5 -63.5t54 -70t21.5 -83q0 -50 -19.5 -86.5t-51 -60t-70.5 -35t-79 -12.5v-40
h-7v40q-55 0 -93.5 14.5t-60.5 29.5q-29 20 -47.5 47t-18.5 58q0 32 23 55.5t56 23.5t56 -23.5t23 -55.5q0 -38 -28 -61q-8 -7 -15.5 -17t-4.5 -24q2 -10 12 -17.5t25.5 -13t34 -8t38.5 -2.5v221q-35 31 -73.5 61.5t-71 63.5t-54 70.5t-21.5 83.5q0 50 19.5 86.5t51 60
t70.5 35t79 12.5v40h7v-40q55 0 93.5 -14.5t60.5 -30.5zM322 142q-12 21 -28.5 40.5t-36.5 38.5v-214q24 1 43 11t29 28t9.5 42t-16.5 54zM250 693q-24 -1 -43 -11t-29 -28t-9 -42t17 -54q11 -21 27.5 -40.5t36.5 -38.5v214z" />
    <glyph glyph-name="percent" unicode="%" horiz-adv-x="585" 
d="M105 0h-8l383 700h8zM168 663q-32 0 -57.5 -12t-43.5 -32t-27.5 -47.5t-9.5 -58.5t9.5 -58t27.5 -47.5t43.5 -32t57.5 -11.5t57.5 11.5t43.5 32t27.5 47.5t9.5 58t-9.5 58.5t-27.5 47.5t-43.5 32t-57.5 12v0zM211 513v-39q0 -55 -10.5 -80t-32.5 -25t-32.5 25t-10.5 80
v39v40q0 55 10.5 80t32.5 25t32.5 -25t10.5 -80v-40zM417 335q-32 0 -57.5 -12t-43.5 -32t-27.5 -47.5t-9.5 -58.5t9.5 -58t27.5 -47.5t43.5 -32t57.5 -11.5t57.5 11.5t43.5 32t27.5 47.5t9.5 58t-9.5 58.5t-27.5 47.5t-43.5 32t-57.5 12v0zM460 185v-39q0 -55 -10.5 -80
t-32.5 -25t-32.5 25t-10.5 80v39v40q0 55 10.5 80t32.5 25t32.5 -25t10.5 -80v-40z" />
    <glyph glyph-name="quotesingle" unicode="'" horiz-adv-x="218" 
d="M104 527q18 21 17 35.5t-12 19.5q-33 0 -56 23t-23 56q0 32 23 55.5t56 23.5t56 -23.5t23 -55.5q0 -23 -8 -44t-20 -39.5t-27 -33t-29 -23.5v6z" />
    <glyph glyph-name="parenleft" unicode="(" horiz-adv-x="273" 
d="M118 350q0 -121 19.5 -203t42.5 -132.5t43 -72l20 -21.5h-15q-26 11 -60 46t-65 90.5t-52 129.5t-21 163t21 163t52 129.5t65 90.5t60 46h15l-20 -21.5t-43 -72t-42.5 -132.5t-19.5 -203z" />
    <glyph glyph-name="parenright" unicode=")" horiz-adv-x="273" 
d="M155 350q0 121 -19.5 203t-42.5 132.5t-43 72l-20 21.5h15q26 -11 60 -46t65 -90.5t52 -129.5t21 -163t-21 -163t-52 -129.5t-65 -90.5t-60 -46h-15l20 21.5t43 72t42.5 132.5t19.5 203z" />
    <glyph glyph-name="asterisk" unicode="*" horiz-adv-x="285" 
d="M239 599q11 -6 14 -18q3 -13 -3 -25q-8 -12 -19 -15q-12 -3 -23 3q-8 4 -14 12.5l-13 18.5t-15.5 20t-20.5 17q0 -14 5 -26l10 -23l9.5 -21t4.5 -18q0 -13 -9 -22t-23 -9t-23 9q-8 10 -8 22q0 8 4 18t9.5 21t10 23t4.5 26q-11 -7 -19.5 -17t-15.5 -20t-14 -18.5
t-14 -12.5q-11 -6 -23 -3q-11 3 -19 15q-6 12 -3 25q3 12 15 18q7 4 17.5 5t22.5 1.5t25 3t25 8.5q-12 6 -25 8t-25 2.5t-22.5 1.5t-17.5 5q-12 6 -15 19q-3 12 3 24q8 12 19 15q12 3 23 -3q7 -4 14 -12.5t14 -18.5t15.5 -20t19.5 -17q0 13 -4.5 25.5t-10 23.5t-9.5 21
t-4 18q0 12 8 22q9 9 23 9t23 -9t9 -22q0 -8 -4.5 -18l-9.5 -21t-10 -23.5t-5 -25.5q12 7 20.5 17t15.5 20l13 18.5t14 12.5q11 6 23 3q11 -3 19 -15q6 -12 3 -24q-3 -13 -14 -19q-8 -4 -18.5 -5t-22.5 -1.5t-25 -2.5t-25 -8q12 -6 25 -8.5t25 -3t22.5 -1.5t18.5 -5z" />
    <glyph glyph-name="plus" unicode="+" horiz-adv-x="503" 
d="M255 25h-7v443h7v-443zM30 243v7h443v-7h-443z" />
    <glyph glyph-name="comma" unicode="," horiz-adv-x="218" 
d="M104 -54q18 20 17 35t-12 19q-33 0 -56 23t-23 56t23 56t56 23t56 -23t23 -56q0 -23 -8 -44t-20 -39.5t-27 -32.5t-29 -23v6z" />
    <glyph glyph-name="hyphen" unicode="-" horiz-adv-x="344" 
d="M30 243v7h284v-7h-284z" />
    <glyph glyph-name="period" unicode="." horiz-adv-x="218" 
d="M188 79q0 -33 -23 -56t-56 -23t-56 23t-23 56t23 56t56 23t56 -23t23 -56z" />
    <glyph glyph-name="slash" unicode="/" horiz-adv-x="365" 
d="M335 700l-297 -700h-8l297 700h8z" />
    <glyph glyph-name="colon" unicode=":" horiz-adv-x="218" 
d="M188 150q0 -33 -23 -56t-56 -23t-56 23t-23 56t23 56t56 23t56 -23t23 -56zM188 414q0 -33 -23 -56t-56 -23t-56 23t-23 56t23 56t56 23t56 -23t23 -56z" />
    <glyph glyph-name="semicolon" unicode=";" horiz-adv-x="218" 
d="M188 414q0 -33 -23 -56t-56 -23t-56 23t-23 56t23 56t56 23t56 -23t23 -56zM104 11q14 9 29 23t27 32.5t20 39.5t8 44q0 33 -23 56t-56 23t-56 -23t-23 -56t23 -56t56 -23q11 -4 12 -19t-17 -35v-6z" />
    <glyph glyph-name="less" unicode="&#x3c;" horiz-adv-x="419" 
d="M389 109v-8l-359 146l359 145v-8l-339 -137z" />
    <glyph glyph-name="equal" unicode="=" horiz-adv-x="503" 
d="M30 163v7h443v-7h-443zM30 323v7h443v-7h-443z" />
    <glyph glyph-name="greater" unicode="&#x3e;" horiz-adv-x="419" 
d="M370 247l-340 137v8l359 -145l-359 -146v8z" />
    <glyph glyph-name="question" unicode="?" horiz-adv-x="507" 
d="M224 35q33 0 56 -23t23 -56t-23 -56t-56 -23t-56 23t-23 56t23 56t56 23zM250 700q40 0 81 -11t73 -34.5t52.5 -60.5t20.5 -88q0 -41 -18.5 -76.5t-46.5 -66.5t-60.5 -58.5l-60.5 -53t-46.5 -49.5t-18.5 -48t17 -41t42 -17q27 0 44 19l4 -3q-20 -23 -48.5 -36.5
t-60.5 -13.5q-30 0 -56 11t-45.5 30.5t-31 45.5t-11.5 56q0 42 13.5 75.5t34.5 62t47.5 53.5l53 50.5t51 52.5t42.5 59q16 31 16.5 56t-10.5 43t-32 27.5t-46 9.5q-20 0 -38.5 -3t-34 -8t-25.5 -12.5t-12 -17.5q-3 -14 4.5 -24t15.5 -17q28 -23 28 -61q0 -33 -23 -56
t-56 -23t-56 23t-23 56q0 31 18.5 57.5t47.5 46.5q22 16 60.5 30.5t93.5 14.5zM80 204v1v1v-2z" />
    <glyph glyph-name="at" unicode="@" horiz-adv-x="725" 
d="M373 183q-19 -20 -44.5 -33.5t-54.5 -15.5q-39 -2 -69.5 12t-49 42t-25 69t2.5 92q9 49 30.5 88.5t51 66.5t64 42t68.5 17q35 1 63 -3t54 -7t51.5 -1.5t56.5 14.5l-32 -192l-12 -70.5l-10.5 -62l-7.5 -44.5l-3 -17q-3 -20 5 -22.5t14 -0.5q23 10 46 26t43 36
q13 14 27 33.5t25 45t17 57t4 69.5q-3 66 -31.5 116.5t-72 84.5t-97 51.5t-107.5 17.5q-71 0 -134 -27t-110 -73.5t-74 -109.5t-27 -134t27 -134t74 -110t110 -74t134 -27q59 0 111.5 19t96.5 52l4 -5q-45 -33 -98.5 -52t-113.5 -19q-72 0 -136 27.5t-111.5 75t-75 111.5
t-27.5 136t27.5 136t75 111.5t111.5 75t136 27.5q59 0 112 -19q27 -9 52 -22.5t46 -31.5q46 -36 72 -86q29 -53 32 -116q3 -65 -18 -120q-20 -51 -57 -90q-36 -38 -82.5 -59.5t-94.5 -21.5q-34 0 -54.5 18.5t-14.5 54.5l59 344q-6 2 -14 3.5t-19 -0.5q-18 -3 -36 -16
t-35 -38t-31.5 -62.5t-23.5 -88.5q-20 -103 -7.5 -152t47.5 -45q14 2 29.5 12t29.5 27z" />
    <glyph glyph-name="bracketleft" unicode="[" horiz-adv-x="286" 
d="M188 71v-36v-109h15h53v-5h-53h-173v31v83v36v558v119v31h173h53v-5h-53h-15v-145v-558z" />
    <glyph glyph-name="backslash" unicode="\" horiz-adv-x="365" 
d="M38 700l297 -700h-8l-297 700h8z" />
    <glyph glyph-name="bracketright" unicode="]" horiz-adv-x="286" 
d="M97 629v145h-15h-52v5h52h174v-31v-119v-558v-36v-83v-31h-174h-52v5h52h15v109v36v558z" />
    <glyph glyph-name="underscore" unicode="_" horiz-adv-x="591" 
d="M30 0v7h531v-7h-531z" />
    <glyph glyph-name="asciicircum" unicode="^" horiz-adv-x="257" 
d="M228 764q4 -6 4 -11q0 -17 -17 -17q-3 0 -9 2l-78 52l-77 -52q-6 -2 -9 -2q-17 0 -17 17q0 7 4 11l87 95q4 6 12 6t13 -6l87 -95v0z" />
    <glyph glyph-name="grave" unicode="`" horiz-adv-x="228" 
d="M199 556q4 -6 4 -11q0 -8 -5 -12.5t-12 -4.5q-5 0 -9 2l-145 96q-7 5 -7 14q0 7 4.5 12t12.5 5h57q8 0 13 -6l87 -95v0z" />
    <glyph glyph-name="braceleft" unicode="{" horiz-adv-x="328" 
d="M69 377q18 18 23 41.5t3.5 51t-5 58t-1 62t15 64t43.5 63.5q30 31 69 46.5t81 15.5v-5q-26 0 -39 -14q-20 -21 -24.5 -46t-3 -53t5.5 -58t1.5 -61t-15 -62t-43.5 -61q-31 -29 -69 -45.5t-81 -16.5v5q25 0 39 15zM69 323q-13 14 -39 14v6q43 0 81 -16.5t69 -45.5
q31 -30 43.5 -61t15 -62t-1.5 -61t-5.5 -58t3 -53t24.5 -46q13 -14 39 -14v-5q-42 0 -81 15.5t-69 46.5q-31 31 -43.5 63.5t-15 64t1 62t5 58t-3.5 51t-23 41.5z" />
    <glyph glyph-name="bar" unicode="|" horiz-adv-x="67" 
d="M37 0h-7v700h7v-700z" />
    <glyph glyph-name="braceright" unicode="}" horiz-adv-x="328" 
d="M259 377q13 -15 39 -15v-5q-42 0 -80.5 16.5t-69.5 45.5q-31 30 -43.5 61t-15 62t1.5 61t5.5 58t-3.5 53t-24 46q-13 14 -39 14v5q43 0 81.5 -15.5t68.5 -46.5q31 -31 43.5 -63.5t15 -64t-1 -62t-5 -58t3.5 -51t23 -41.5zM259 323q13 14 39 14v6q-42 0 -80.5 -16.5
t-69.5 -45.5q-31 -30 -43.5 -61t-15 -62t1.5 -61t5.5 -58t-3.5 -53t-24 -46q-13 -14 -39 -14v-5q43 0 81.5 15.5t68.5 46.5q31 31 43.5 63.5t15 64t-1 62t-5 58t3.5 51t23 41.5z" />
    <glyph glyph-name="asciitilde" unicode="~" horiz-adv-x="338" 
d="M308 279q0 -17 -5.5 -33.5t-16.5 -29.5t-26.5 -20.5t-34.5 -7.5q-29 0 -48 10t-34.5 22l-29 22t-29.5 10q-18 0 -31.5 -12t-15.5 -29l-7 3q0 17 5.5 33.5t16.5 29t26 20.5t35 8q23 0 40 -9.5t33 -21t32 -21t37 -9.5q17 0 30 11t16 28z" />
    <glyph glyph-name="Euro" unicode="&#x20ac;" horiz-adv-x="759" 
d="M657 452l-33 -82h-373h-221l33 82h196h398zM606 330l-33 -82h-326h-217l33 82h192h351zM641 22q-66 -26 -133 -26q-69 0 -133 26t-118 77q-50 51 -78 117q-26 67 -26 133q0 68 26 134q28 67 78 117t118 78q64 26 133 26q67 0 133 -26q48 -21 88 -52l-3 -6q-51 41 -112 60
q-31 9 -61.5 13.5t-62.5 2.5t-62 -9t-59 -19q-59 -25 -107 -73q-49 -49 -76 -112q-26 -64 -26 -134q0 -68 26 -132q27 -62 76 -113q25 -24 53 -43t60 -32q64 -26 133 -26q50 0 90 12t68.5 26.5t44.5 27t18 14.5v-9q-5 -4 -27.5 -20.5t-60.5 -31.5z" />
    <glyph glyph-name="quotesinglbase" unicode="&#x201a;" horiz-adv-x="218" 
d="M104 -54q18 20 17 35t-12 19q-33 0 -56 23t-23 56t23 56t56 23t56 -23t23 -56q0 -23 -8 -44t-20 -39.5t-27 -32.5t-29 -23v6z" />
    <glyph glyph-name="florin" unicode="&#x192;" horiz-adv-x="654" 
d="M452 700q38 0 69.5 -10.5t54.5 -29.5t35.5 -44t12.5 -53q0 -32 -23 -55.5t-56 -23.5t-56 23.5t-23 55.5q0 17 6 31.5t17 25.5q8 8 16.5 17.5t5.5 23.5q-4 17 -18.5 24.5t-26.5 7.5q-36 0 -48 -36.5t-12 -116.5v-151v-36h26q33 0 56.5 23t23.5 56h5v-164h-5q0 33 -23.5 56
t-56.5 23h-26v-217v-56v-128q0 -103 -53.5 -160t-150.5 -57q-38 0 -70 11t-54.5 29.5t-35 43.5t-12.5 53q0 33 23 56t56 23t56 -23t23 -56t-23 -56q-8 -8 -16.5 -17.5t-5.5 -23.5q4 -18 18.5 -25t25.5 -7q37 0 49 36t12 116v151v129v74v240q0 103 53.5 160t150.5 57z" />
    <glyph glyph-name="quotedblbase" unicode="&#x201e;" horiz-adv-x="422" 
d="M104 -54q18 20 17 35t-12 19q-33 0 -56 23t-23 56t23 56t56 23t56 -23t23 -56q0 -23 -8 -44t-20 -39.5t-27 -32.5t-29 -23v6zM308 -54q18 20 17 35t-12 19q-33 0 -56 23t-23 56t23 56t56 23t56 -23t23 -56q0 -23 -8 -44t-20 -39.5t-27 -32.5t-29 -23v6z" />
    <glyph glyph-name="ellipsis" unicode="&#x2026;" horiz-adv-x="626" 
d="M596 79q0 -33 -23 -56t-56 -23t-56 23t-23 56t23 56t56 23t56 -23t23 -56zM392 79q0 -33 -23 -56t-56 -23t-56 23t-23 56t23 56t56 23t56 -23t23 -56zM188 79q0 -33 -23 -56t-56 -23t-56 23t-23 56t23 56t56 23t56 -23t23 -56z" />
    <glyph glyph-name="dagger" unicode="&#x2020;" horiz-adv-x="344" 
d="M174 349q0 -9 6 -17.5t13.5 -18t14 -20.5t6.5 -26q0 -12 -6.5 -32t-14 -53.5t-13.5 -83t-6 -119.5q0 -2 -2 -2t-2 2q0 70 -6.5 119.5t-14 83t-14 53.5t-6.5 32q0 15 6.5 26t14 20.5l14 18t6.5 17.5q-9 0 -21 -6.5l-25 -14t-26 -13.5t-25 -6q-18 0 -30.5 12.5t-12.5 29.5
q0 18 12.5 30.5t30.5 12.5q12 0 25 -6.5t26 -14l25 -14t21 -6.5q0 9 -6.5 21.5t-14 25.5t-14 26t-6.5 25q0 17 12.5 29.5t30.5 12.5q17 0 29.5 -12.5t12.5 -29.5q0 -12 -6.5 -25t-14 -26t-13.5 -25.5t-6 -21.5q9 0 21 6.5l25 14t26 14t25 6.5q18 0 30.5 -12.5t12.5 -30.5
q0 -17 -12.5 -29.5t-30.5 -12.5q-12 0 -25 6t-26 13.5l-25 14t-21 6.5z" />
    <glyph glyph-name="daggerdbl" unicode="&#x2021;" horiz-adv-x="344" 
d="M271 245q18 0 30.5 -12.5t12.5 -30.5q0 -17 -12.5 -29.5t-30.5 -12.5q-12 0 -25 6t-26 13.5l-25 14t-21 6.5q0 -9 6 -17.5t13.5 -18t14 -20.5t6.5 -26q0 -18 -6.5 -32l-14 -31t-13.5 -40.5t-6 -59.5q0 -2 -2 -2t-2 2q0 36 -6.5 59.5t-14 40.5l-14 31t-6.5 32q0 15 6.5 26
t14 20.5l14 18t6.5 17.5q-9 0 -21 -6.5l-25 -14t-26 -13.5t-25 -6q-18 0 -30.5 12.5t-12.5 29.5q0 18 12.5 30.5t30.5 12.5q12 0 25 -6.5t26 -14l25 -14t21 -6.5q0 7 -5 14l-10.5 14.5t-10.5 15.5t-5 17t5 17t10.5 15l10.5 14t5 14q-9 0 -21 -6.5l-25 -14t-26 -14t-25 -6.5
q-18 0 -30.5 12.5t-12.5 30.5q0 17 12.5 30t30.5 13q12 0 25 -6.5t26 -14l25 -14t21 -6.5q0 9 -6.5 21l-14 25t-14 26t-6.5 25q0 18 12.5 30.5t30.5 12.5q17 0 29.5 -12.5t12.5 -30.5q0 -12 -6.5 -25t-14 -26t-13.5 -25t-6 -21q9 0 21 6.5l25 14t26 14t25 6.5q18 0 30.5 -13
t12.5 -30q0 -18 -12.5 -30.5t-30.5 -12.5q-12 0 -25 6.5t-26 14l-25 14t-21 6.5h-1q0 -7 5 -14t11 -14t11 -15t5 -17t-5 -17t-10.5 -15.5l-10.5 -14.5t-5 -14q9 0 21 6.5l25 14t26 14t25 6.5z" />
    <glyph glyph-name="circumflex" unicode="&#x2c6;" horiz-adv-x="258" 
d="M228 556q5 -5 5 -11q0 -8 -5 -12.5t-12 -4.5q-4 0 -10 2l-77 52l-78 -52q-4 -2 -9 -2q-7 0 -12 4.5t-5 12.5q0 6 5 11l86 95q4 6 13 6q7 0 12 -6l87 -95v0z" />
    <glyph glyph-name="perthousand" unicode="&#x2030;" horiz-adv-x="914" 
d="M105 0h-8l383 700h8zM168 663q-32 0 -57.5 -12t-43.5 -32t-27.5 -47.5t-9.5 -58.5t9.5 -58t27.5 -47.5t43.5 -32t57.5 -11.5t57.5 11.5t43.5 32t27.5 47.5t9.5 58t-9.5 58.5t-27.5 47.5t-43.5 32t-57.5 12v0zM211 513v-39q0 -55 -10.5 -80t-32.5 -25t-32.5 25t-10.5 80
v39v40q0 55 10.5 80t32.5 25t32.5 -25t10.5 -80v-40zM417 335q-32 0 -57.5 -12t-43.5 -32t-27.5 -47.5t-9.5 -58.5t9.5 -58t27.5 -47.5t43.5 -32t57.5 -11.5t57.5 11.5t43.5 32t27.5 47.5t9.5 58t-9.5 58.5t-27.5 47.5t-43.5 32t-57.5 12v0zM460 185v-39q0 -55 -10.5 -80
t-32.5 -25t-32.5 25t-10.5 80v39v40q0 55 10.5 80t32.5 25t32.5 -25t10.5 -80v-40zM727 335q-32 0 -57.5 -12t-43.5 -32t-27.5 -47.5t-9.5 -58.5t9.5 -58t27.5 -47.5t43.5 -32t57.5 -11.5t57.5 11.5t43.5 32t27.5 47.5t9.5 58t-9.5 58.5t-27.5 47.5t-43.5 32t-57.5 12v0z
M770 185v-39q0 -55 -10.5 -80t-32.5 -25t-32.5 25t-10.5 80v39v40q0 55 10.5 80t32.5 25t32.5 -25t10.5 -80v-40z" />
    <glyph glyph-name="Scaron" unicode="&#x160;" horiz-adv-x="507" 
d="M411 655q29 -20 47.5 -46.5t18.5 -57.5q0 -33 -23 -56t-56 -23t-56 23t-23 56q0 18 7.5 34t20.5 27q8 7 15.5 17t4.5 24q-2 10 -12 17.5t-25.5 12.5t-34.5 8t-38 3q-26 0 -46.5 -9.5t-31.5 -27.5t-10.5 -43t17.5 -56q17 -32 45.5 -60.5t60.5 -55.5l65 -54t59.5 -56.5
t43.5 -63.5t17 -74q0 -52 -20.5 -88.5t-52.5 -60t-73 -34.5t-81 -11q-55 0 -93.5 14.5t-60.5 29.5q-29 20 -47.5 47t-18.5 58q0 32 23 55.5t56 23.5t56 -23.5t23 -55.5q0 -38 -28 -61q-8 -7 -15.5 -17t-4.5 -24q2 -10 12 -17.5t25.5 -13t34 -8t38.5 -2.5q25 0 46 9.5
t32 27.5t10.5 43t-16.5 56q-18 32 -46 60t-60.5 55.5l-65.5 54.5t-59.5 56.5t-43.5 63.5t-17 74q0 51 20.5 88t52.5 60.5t72.5 34.5t81.5 11q55 0 93.5 -14.5t60.5 -30.5zM149 837q-4 6 -4 11q0 7 4.5 12t12.5 5q4 0 9 -3l78 -51l77 51q4 3 9 3q8 0 12.5 -5t4.5 -12t-4 -11
l-87 -96q-5 -5 -12 -5q-8 0 -13 5z" />
    <glyph glyph-name="guilsinglleft" unicode="&#x2039;" horiz-adv-x="224" 
d="M194 185h-10l-154 154l154 154h10l-124 -154z" />
    <glyph glyph-name="quoteleft" unicode="&#x2018;" horiz-adv-x="218" 
d="M114 521q-14 9 -29 23.5t-27 33t-20 39.5t-8 44q0 32 23 55.5t56 23.5t56 -23.5t23 -55.5q0 -33 -23 -56t-56 -23q-11 -5 -12 -19.5t17 -35.5v-6v0z" />
    <glyph glyph-name="quoteright" unicode="&#x2019;" horiz-adv-x="218" 
d="M104 527q18 21 17 35.5t-12 19.5q-33 0 -56 23t-23 56q0 32 23 55.5t56 23.5t56 -23.5t23 -55.5q0 -23 -8 -44t-20 -39.5t-27 -33t-29 -23.5v6z" />
    <glyph glyph-name="quotedblleft" unicode="&#x201c;" horiz-adv-x="422" 
d="M318 521q-14 9 -29 23.5t-27 33t-20 39.5t-8 44q0 32 23 55.5t56 23.5t56 -23.5t23 -55.5q0 -33 -23 -56t-56 -23q-11 -5 -12 -19.5t17 -35.5v-6zM114 521q-14 9 -29 23.5t-27 33t-20 39.5t-8 44q0 32 23 55.5t56 23.5t56 -23.5t23 -55.5q0 -33 -23 -56t-56 -23
q-11 -5 -12 -19.5t17 -35.5v-6z" />
    <glyph glyph-name="quotedblright" unicode="&#x201d;" horiz-adv-x="422" 
d="M104 527q18 21 17 35.5t-12 19.5q-33 0 -56 23t-23 56q0 32 23 55.5t56 23.5t56 -23.5t23 -55.5q0 -23 -8 -44t-20 -39.5t-27 -33t-29 -23.5v6zM308 527q18 21 17 35.5t-12 19.5q-33 0 -56 23t-23 56q0 32 23 55.5t56 23.5t56 -23.5t23 -55.5q0 -23 -8 -44t-20 -39.5
t-27 -33t-29 -23.5v6z" />
    <glyph glyph-name="bullet" unicode="&#x2022;" horiz-adv-x="299" 
d="M269 374q0 -25 -9.5 -47t-25.5 -38t-37.5 -25.5t-46.5 -9.5t-46.5 9.5t-38 25.5t-26 38t-9.5 47t9.5 46.5t26 37.5t38 25.5t46.5 9.5t46.5 -9.5t37.5 -25.5t25.5 -37.5t9.5 -46.5z" />
    <glyph glyph-name="endash" unicode="&#x2013;" horiz-adv-x="344" 
d="M30 243v7h284v-7h-284z" />
    <glyph glyph-name="emdash" unicode="&#x2014;" horiz-adv-x="444" 
d="M30 243v7h384v-7h-384z" />
    <glyph glyph-name="tilde" unicode="&#x2dc;" horiz-adv-x="275" 
d="M250 628v-16q0 -28 -19.5 -47.5t-47.5 -19.5q-23 0 -39 8t-28 17.5l-23 17.5t-24 8q-16 0 -27.5 -11t-11.5 -27h-5v15q0 28 19.5 47.5t47.5 19.5q19 0 33 -8t26.5 -17t25.5 -17t29 -8t27.5 11t11.5 27h5z" />
    <glyph glyph-name="trademark" unicode="&#x2122;" horiz-adv-x="389" 
d="M30 700h133v-32h-1q0 13 -9 21.5t-22 8.5h-8q-6 0 -6 -6v-3v-29v-27v-74v-7v-24q0 -7 6 -7v-1h-3h-9h-1h-27h-1h-8h-4v1q6 0 6 7v24v7v4v11v59v23v4v29v3q0 6 -6 6h-8q-13 0 -22 -8.5t-9 -21.5h-1v32zM353 559v-31q0 -7 6 -7v-1h-3h-22h-28v1q6 0 6 7v31v102v28l-61 -169
l-61 169v-144q0 -10 6.5 -17t16.5 -7v-1h-48v1q10 0 17 7t7 17v148l-1 1q-1 4 -6 4v2h55v-2q-5 0 -5 -4v-2l40 -110l40 110v2q0 4 -5 4v2h23h4h22h3v-2q-6 0 -6 -6v-28v-3v-102z" />
    <glyph glyph-name="scaron" unicode="&#x161;" horiz-adv-x="402" 
d="M156 448q2 -24 19 -45.5t41.5 -43.5l52.5 -45t52 -50t40 -58t16 -69q0 -33 -13.5 -58.5t-37.5 -43t-57 -26.5t-71 -9q-36 0 -67.5 10.5t-55 29t-37 43.5t-13.5 54q0 32 23 55.5t56 23.5t56 -23.5t23 -55.5q0 -25 -12 -43q-5 -8 -10.5 -13t-10.5 -11q-11 -11 -12 -22.5
t7 -21.5q18 -21 53 -21q12 0 25.5 2t24.5 8t18 18t7 32q0 32 -17.5 60t-43 53t-56 49t-56 48.5t-43 51t-17.5 57.5q0 24 13 44.5t36 34.5t53 22t65 8q22 0 40.5 -4l35.5 -7.5t35 -4t40 7.5v-120h-5q-3 19 -14 40.5t-29.5 40t-44 30.5t-57.5 12q-23 0 -38 -11t-14 -29z
M257 534q-5 -6 -12 -6q-9 0 -13 6l-86 95q-5 5 -5 11q0 8 5 12.5t12 4.5q5 0 9 -2l78 -52l77 52q6 2 10 2q7 0 12 -4.5t5 -12.5q0 -6 -5 -11z" />
    <glyph glyph-name="guilsinglright" unicode="&#x203a;" horiz-adv-x="224" 
d="M154 339l-124 154h10l154 -154l-154 -154h-10z" />
    <glyph glyph-name="exclamdown" unicode="&#xa1;" horiz-adv-x="260" 
d="M130 542q-33 0 -56 23t-23 56t23 56t56 23t56 -23t23 -56t-23 -56t-56 -23zM130 -123q-21 0 -39.5 7.5t-32 21t-21 31.5t-6.5 39q2 39 10.5 88.5t21.5 114.5l29 147.5t33 189.5q0 5 5 5q4 0 6 -5q17 -107 32.5 -189.5l28.5 -147.5t21.5 -114.5t10.5 -88.5q1 -21 -6.5 -39
t-21 -31.5t-32 -21t-39.5 -7.5z" />
    <glyph glyph-name="cent" unicode="&#xa2;" horiz-adv-x="405" 
d="M310 325q27 0 46 -19t19 -46q0 -23 -12.5 -43.5t-34 -35.5t-50 -24t-61.5 -9h-11v-148h-7v149q-39 3 -70.5 20t-53.5 44t-33.5 62t-11.5 75t11.5 75t33.5 62t53.5 44t70.5 20v149h7v-148h11q33 0 61.5 -9t50 -24t34 -35.5t12.5 -43.5q0 -27 -19 -46t-46 -19t-46 19
t-19 46t19 46l14 14.5t4 19.5q-3 14 -19.5 20.5t-31.5 6.5q-16 0 -25 -4v-386q9 -4 25 -4q13 0 30 5.5t21 21.5q3 12 -4 19.5l-14 14.5q-19 19 -19 46t19 46t46 19zM159 297q0 -63 10 -94.5t30 -42.5v380q-20 -11 -30 -42.5t-10 -94.5v-53v-53z" />
    <glyph glyph-name="sterling" unicode="&#xa3;" horiz-adv-x="572" 
d="M475 656q29 -20 48 -47t19 -58q0 -32 -23.5 -55.5t-56.5 -23.5q-32 0 -55.5 23.5t-23.5 55.5q0 19 7.5 34.5t20.5 26.5q8 7 15.5 17t5.5 24q-2 10 -12 17.5t-25.5 13t-34.5 8t-38 2.5q-16 0 -31 -7.5t-25.5 -24t-15 -42.5t1.5 -62q18 -113 1 -205h105v-7h-107
q-13 -68 -43 -126.5t-73 -118.5q15 17 28.5 34t28.5 30t33.5 21t43.5 8q18 0 35.5 -3.5t35 -7.5t36.5 -7.5t40 -3.5q38 0 66.5 12t28.5 38h8q1 -4 3.5 -20.5t1.5 -40t-6.5 -50.5t-21 -50t-42 -40t-67.5 -20q-33 -3 -62.5 3t-59.5 15t-62 16.5t-71 7.5q-30 0 -52 -12.5
t-42 -30.5h-8q46 40 69 82.5t30.5 86t3.5 88t-12 89.5h-75v7h74q-8 39 -15 77t-10 76q-5 52 15 88.5t53.5 60t75.5 34.5t83 11q54 0 93 -14.5t60 -29.5z" />
    <glyph glyph-name="currency" unicode="&#xa4;" horiz-adv-x="503" 
d="M468 128l-76 77q-28 -26 -63.5 -41.5t-76.5 -15.5q-42 0 -77.5 15.5t-62.5 41.5l-77 -77l-5 5l77 77q-26 27 -41.5 63t-15.5 77t15.5 77t41.5 63l-77 77l5 5l77 -77q27 26 62.5 41t77.5 15q41 0 76.5 -15t63.5 -41l76 77l5 -5l-77 -77q27 -27 42 -63t15 -77t-15 -77
t-42 -63l77 -77zM58 350q0 -40 15.5 -75.5t41.5 -61.5t61.5 -41.5t75.5 -15.5t75 15.5t61 41.5t41.5 61.5t15.5 75.5t-15.5 75t-41.5 61.5t-61 41.5t-75 15t-75.5 -15t-61.5 -41.5t-41.5 -61.5t-15.5 -75z" />
    <glyph glyph-name="yen" unicode="&#xa5;" horiz-adv-x="671" 
d="M409 31q0 -11 7 -18t18 -7v-6h-14h-83h-112v6q11 0 18 7t7 18v248h-133v7h133v52h-133v7h131l-198 339q-6 10 -20 10v6h14h63h142v-6q-12 0 -12 -13q0 -4 2 -6l163 -280l127 216q8 14 8 28q0 23 -16 39t-39 16v6h159v-6q-30 0 -53.5 -17t-38.5 -42l-140 -240v-50h145v-7
h-145v-52h145v-7h-145v-128v-120v0z" />
    <glyph glyph-name="brokenbar" unicode="&#xa6;" horiz-adv-x="67" 
d="M37 380h-7v320h7v-320zM37 0h-7v320h7v-320z" />
    <glyph glyph-name="section" unicode="&#xa7;" horiz-adv-x="356" 
d="M282 671q20 -14 32 -31.5t12 -37.5q0 -22 -15 -37.5t-37 -15.5t-37.5 15.5t-15.5 37.5q0 24 19 40q5 5 10 11t3 16q-2 13 -24.5 20t-48.5 7q-17 0 -30.5 -6.5t-21 -18.5t-7 -28.5t11.5 -36.5q17 -32 49.5 -58.5l64.5 -54t55.5 -58t23.5 -70.5q0 -44 -21 -71.5t-53 -41.5
q30 -26 52 -56t22 -68q0 -34 -13.5 -58.5t-35 -40t-48.5 -22.5t-54 -7q-35 0 -61 9.5t-40 19.5q-20 14 -32 31.5t-12 37.5q0 22 15 37.5t37 15.5t37.5 -15.5t15.5 -37.5q0 -24 -19 -40q-5 -5 -10 -11t-3 -16q2 -13 24 -20t48 -7q17 0 31 6.5t21.5 18.5t7 28.5t-11.5 36.5
q-17 32 -49.5 58.5l-64.5 54t-55.5 58t-23.5 70.5q0 44 21 71.5t53 41.5q-30 26 -52 56t-22 68q0 34 13.5 58.5t35 40t48 22.5t53.5 7q36 0 62 -9.5t40 -19.5zM223 331q-15 28 -41.5 51.5t-55.5 46.5q-5 -11 -4 -26.5t11 -33.5q15 -28 41.5 -51.5t55.5 -46.5q5 11 4 26
t-11 34z" />
    <glyph glyph-name="dieresis" unicode="&#xa8;" horiz-adv-x="310" 
d="M130 592q0 -20 -15 -34.5t-35 -14.5q-21 0 -35.5 14.5t-14.5 34.5q0 21 14.5 35.5t35.5 14.5q20 0 35 -14.5t15 -35.5zM280 592q0 -20 -15 -34.5t-35 -14.5q-21 0 -35.5 14.5t-14.5 34.5q0 21 14.5 35.5t35.5 14.5q20 0 35 -14.5t15 -35.5z" />
    <glyph glyph-name="copyright" unicode="&#xa9;" horiz-adv-x="265" 
d="M132 497q-21 0 -39.5 8t-32.5 22t-22 32.5t-8 39.5t8 39.5t22 32.5t32.5 22t39.5 8t40 -8t33 -22t22 -32.5t8 -39.5t-8 -39.5t-22 -32.5t-33 -22t-40 -8zM132 698q-20 0 -38 -7.5t-31.5 -21t-21.5 -31.5t-8 -39t8 -39t21.5 -31.5t31.5 -21t38 -7.5q42 0 71 28.5t29 70.5
t-29 70.5t-71 28.5zM71 599q0 -32 17 -53.5t47 -21.5q11 0 19.5 3t13.5 7q14 9 14 22q0 7 -5 12t-12 5q-8 0 -12.5 -5t-4.5 -12q0 -9 6 -13q2 -2 3.5 -4t0.5 -5q0 -5 -9 -7q-4 -2 -10 -2q-13 0 -20.5 10t-7.5 40v24v24q0 30 7.5 40t20.5 10q6 0 10 -2q9 -2 9 -7q1 -4 -4 -9
q-6 -5 -6 -13q0 -7 4.5 -12t12.5 -5q7 0 12 5t5 12q0 13 -14 22q-5 4 -13.5 7t-19.5 3q-30 0 -47 -21.5t-17 -53.5z" />
    <glyph glyph-name="ordfeminine" unicode="&#xaa;" horiz-adv-x="221" 
d="M182 532q0 -10 9 -10v-2h-40q-22 0 -26 19q-14 -16 -40 -19q-23 -2 -39.5 11t-14.5 38q2 22 18.5 32t35.5 16q20 6 28 11.5t11 10.5v19q0 20 -4.5 30.5t-18.5 8.5q-16 -2 -18 -11q-2 -5 1.5 -9t6.5 -6q8 -10 8 -21q0 -12 -8.5 -20.5t-20.5 -8.5t-20.5 8.5t-8.5 20.5
q0 21 21 35.5t50 14.5t49.5 -14.5t20.5 -35.5v-103v-2v-10v-3zM121 538q1 1 2 1.5t2 1.5q0 3 -0.5 5.5t-0.5 5.5v14v70q-5 -7 -11.5 -11.5t-12 -11t-9.5 -16.5t-4 -28q0 -28 12 -33.5t22 2.5z" />
    <glyph glyph-name="guillemotleft" unicode="&#xab;" horiz-adv-x="312" 
d="M194 185h-10l-154 154l154 154h10l-124 -154zM282 185h-10l-155 154l155 154h10l-125 -154z" />
    <glyph glyph-name="minus" unicode="&#x2212;" horiz-adv-x="344" 
d="M30 243v7h284v-7h-284z" />
    <glyph glyph-name="registered" unicode="&#xae;" horiz-adv-x="265" 
d="M132 497q-21 0 -39.5 8t-32.5 22t-22 32.5t-8 39.5t8 39.5t22 32.5t32.5 22t39.5 8t40 -8t33 -22t22 -32.5t8 -39.5t-8 -39.5t-22 -32.5t-33 -22t-40 -8zM132 698q-20 0 -38 -7.5t-31.5 -21t-21.5 -31.5t-8 -39t8 -39t21.5 -31.5t31.5 -21t38 -7.5q42 0 71 28.5t29 70.5
t-29 70.5t-71 28.5zM201 535q-8 -6 -15 1q-8 8 -13.5 25.5t-13.5 26.5q-7 7 -13 8q33 6 33 39q0 18 -12 28.5t-35 10.5h-21h-23h-15v-1q6 0 6 -5v-5v-79v-19v-18v-10q0 -6 -6 -6v-1h29h14v1q-5 0 -5 6v10v15v21v12q10 0 13.5 -11.5l7.5 -24.5t12 -24t29 -11q11 0 18.5 3.5
t9.5 6.5v1zM111 655v8v5q0 5 5 5h2h6h1q8 0 15 -8.5t7 -29.5q0 -22 -8.5 -30.5t-15.5 -8.5h-12v46v13z" />
    <glyph glyph-name="degree" unicode="&#xb0;" horiz-adv-x="191" 
d="M95 559q-29 0 -49.5 21t-20.5 50t20.5 49.5t49.5 20.5t50 -20.5t21 -49.5t-21 -50t-50 -21zM95 692q-26 0 -44 -18t-18 -44t18 -44.5t44 -18.5t44.5 18.5t18.5 44.5t-18.5 44t-44.5 18z" />
    <glyph glyph-name="plusminus" unicode="&#xb1;" horiz-adv-x="503" 
d="M255 44h-7v443h7v-443zM30 262v7h443v-7h-443zM30 0v7h443v-7h-443z" />
    <glyph glyph-name="twosuperior" unicode="&#xb2;" horiz-adv-x="292" 
d="M259 461q1 -3 2.5 -19.5t-3.5 -36t-19.5 -36t-45.5 -19.5q-17 -1 -33 2t-31 7.5t-28.5 8t-24.5 3.5q-15 0 -22 -6.5t-8 -14.5h-4q-6 9 -9 23t-1.5 32t10.5 39t27 42q15 18 32.5 35t33.5 35t28 36t16 37q7 36 -6 52t-29 16q-20 0 -36.5 -5t-18.5 -16q-2 -7 2 -12t8 -8
q15 -12 15 -30q0 -17 -11.5 -28.5t-28.5 -11.5t-28.5 11.5t-11.5 28.5q0 15 9.5 28t23.5 24q11 8 30.5 15t46.5 7q20 0 41 -5.5t38 -17t27 -30t8 -44.5q-3 -32 -22 -51.5t-45 -33.5t-55.5 -25t-53.5 -25t-34 -31.5t-12 -34.5q7 21 28 33t51 12q19 0 45 -5.5t47 -5.5
q19 0 33.5 6t14.5 19h4z" />
    <glyph glyph-name="threesuperior" unicode="&#xb3;" horiz-adv-x="300" 
d="M163 543q12 3 31 0.5t36 -12.5t29 -28.5t10 -47.5q-2 -24 -14 -43.5t-30 -33t-40.5 -21t-44.5 -7.5q-27 0 -46.5 7t-30.5 15q-14 11 -23.5 24t-9.5 28q0 17 11.5 28.5t28.5 11.5q16 0 27.5 -11.5t11.5 -28.5q0 -19 -14 -30q-4 -4 -8 -8.5t-2 -12.5q2 -7 11.5 -11.5
t23.5 -6.5q10 -2 21 5t20 20.5t14.5 32.5t5.5 42q0 37 -22 58t-58 12l-1 4q12 6 24.5 17t23 25.5t17.5 31t9 34.5q2 23 -6.5 41.5t-27.5 18.5q-20 0 -36.5 -5t-18.5 -16q-2 -7 2 -12t8 -8q14 -12 14 -30q0 -17 -11.5 -28.5t-27.5 -11.5q-17 0 -28.5 11.5t-11.5 28.5
q0 15 9.5 28t23.5 24q11 8 30.5 15t46.5 7q19 0 39 -3.5t37 -12.5t28 -23.5t11 -36.5q0 -17 -9 -30.5t-23 -23t-30 -16.5t-30 -11z" />
    <glyph glyph-name="acute" unicode="&#xb4;" horiz-adv-x="238" 
d="M121 651q4 6 13 6h57q8 0 12.5 -5t4.5 -12q0 -9 -7 -14l-145 -96q-4 -2 -9 -2q-7 0 -12 4.5t-5 12.5q0 5 4 11z" />
    <glyph glyph-name="mu" unicode="&#xb5;" horiz-adv-x="557" 
d="M501 31q0 -11 7.5 -18t18.5 -7v-6h-112q-29 0 -45.5 10.5t-22.5 34.5q-33 -20 -71 -32.5t-71 -12.5q-23 0 -43.5 5.5t-36.5 17.5q5 -35 12.5 -63t14.5 -51.5t12 -43.5t5 -39q0 -29 -20.5 -49t-49.5 -20t-49 20t-20 49q0 24 8 50.5t17 60t17 76.5t8 101v16v128v44v160
q0 11 -7 18t-18 7v6h112q40 0 56 -20t16 -68v-103v-59v-135q0 -35 11 -52t27.5 -21t35 2t33.5 15q-3 15 -3 36v374q0 11 -7.5 18t-18.5 7v6h113q40 0 55.5 -20t15.5 -68v-103v-111v-160v0z" />
    <glyph glyph-name="paragraph" unicode="&#xb6;" horiz-adv-x="392" 
d="M362 700v-6q-11 0 -18 -7t-7 -18v-122v-399v-148h-7v694h-107v-147v-399v-148h-7v377q-39 0 -72.5 11t-59 32t-40 51t-14.5 68q0 37 14.5 67t40 51t59 32t72.5 11h7h107h18h14z" />
    <glyph glyph-name="periodcentered" unicode="&#xb7;" horiz-adv-x="218" 
d="M188 350q0 -33 -23 -56t-56 -23t-56 23t-23 56t23 56t56 23t56 -23t23 -56z" />
    <glyph glyph-name="cedilla" unicode="&#xb8;" horiz-adv-x="172" 
d="M132 3q-5 -11 -17 -17t-23 -10q6 1 14.5 0t16.5 -5.5t13.5 -13t4.5 -21.5q-2 -23 -21 -36t-39 -13q-13 0 -22 3t-14 7q-15 10 -15 24q0 8 5 13.5t13 5.5t13.5 -5.5t5.5 -13.5q0 -7 -7 -14l-4 -4t-1 -5q1 -7 17 -9q9 -2 18.5 12t9.5 35q0 17 -10 26.5t-27 5.5l-1 2
q20 8 30 33h40z" />
    <glyph glyph-name="onesuperior" unicode="&#xb9;" horiz-adv-x="164" 
d="M122 366q0 -13 12 -13v-3h-48h-56v3q13 0 13 13v15v13v31v167v62q0 13 -13 13v3q26 4 50 12.5t42 17.5v-110v-165v-44v-15v0z" />
    <glyph glyph-name="ordmasculine" unicode="&#xba;" horiz-adv-x="357" 
d="M178 700q29 0 56 -10.5t47.5 -32t33 -54.5t12.5 -78t-12.5 -78t-33 -54.5t-47.5 -32t-56 -10.5t-55.5 10.5t-47 32t-33 54.5t-12.5 78t12.5 78t33 54.5t47 32t55.5 10.5zM232 544q0 36 -1.5 64.5t-9.5 53.5q-6 20 -17.5 27.5t-25.5 7.5t-25 -7.5t-18 -27.5
q-8 -25 -9 -53.5t-2 -64.5v-38q1 -36 2 -64.5t9 -53.5q7 -20 18 -27.5t25 -7.5t25.5 7.5t17.5 27.5q8 25 9.5 53.5t1.5 64.5v38z" />
    <glyph glyph-name="guillemotright" unicode="&#xbb;" horiz-adv-x="312" 
d="M242 339l-125 154h10l155 -154l-155 -154h-10zM154 339l-124 154h10l154 -154l-154 -154h-10z" />
    <glyph glyph-name="onequarter" unicode="&#xbc;" horiz-adv-x="654" 
d="M230 350h-56v3q13 0 13 13v15v13v31v167v62q0 13 -13 13v3q26 4 50.5 12.5t41.5 17.5v-110v-165v-44v-15q0 -13 13 -13v-3h-49zM498 77h35v-2h-35v-37v-7v-15q0 -13 13 -13v-3h-49h-56v3q13 0 13 13v15v7v13v24h-94h-1h-3q13 29 28.5 57.5t28.5 55.5t22.5 52t10.5 46
q1 26 -10.5 39.5t-19.5 13.5v3q24 10 47.5 8t40.5 -14q11 -8 18.5 -21t8.5 -28.5t-5 -33t-22 -33.5q-13 -14 -30.5 -28.5l-37 -31.5t-39 -37.5t-35.5 -45.5h92v5v18v28q0 13 -13 13v3q25 4 48.5 12.5t40.5 17.5h3v-77v-15v-5zM624 700l-585 -700h-9l585 700h9z" />
    <glyph glyph-name="onehalf" unicode="&#xbd;" horiz-adv-x="654" 
d="M615 705h9l-585 -700h-9zM187 597v65q0 13 -13 13q26 4 50.5 12.5t41.5 17.5v-111v-164v-3v-60q0 -12 13 -12h-105q13 0 13 12v58v4v168zM424 238q-17 0 -28.5 11.5t-11.5 27.5t9.5 29t23.5 24q8 5 20 10.5t29 8.5q-25 -5 -27 -21q-2 -7 2 -12t8 -8q14 -12 14 -31
q0 -16 -11.5 -27.5t-27.5 -11.5zM556 88q19 0 35.5 5.5t16.5 19.5q1 -3 2.5 -19.5t-3.5 -36t-19.5 -36t-45.5 -19.5q-17 -2 -33 1.5t-31 7.5t-28 8t-24 4q-15 0 -23.5 -6.5t-10.5 -14.5q-5 7 -9 21t3 32q7 20 28 32t51 12q19 0 44.5 -5.5t46.5 -5.5zM431 120
q-24 -15 -36 -32t-14 -34q2 19 10 40t28 44q15 18 32.5 35t33.5 34.5t28 35.5t16 38q7 36 -6 53.5t-29 17.5q20 0 41 -5.5t38 -17t26.5 -30t7.5 -44.5q-3 -32 -22 -51.5t-45 -33.5t-55.5 -25t-53.5 -25z" />
    <glyph glyph-name="threequarters" unicode="&#xbe;" horiz-adv-x="654" 
d="M498 77h35v-2h-35v-37v-7v-15q0 -13 13 -13v-3h-49h-56v3q13 0 13 13v15v7v13v24h-94h-1h-3q13 29 28.5 57.5t28.5 55.5t22.5 52t10.5 46q1 26 -10.5 39.5t-19.5 13.5v3q24 10 47.5 8t40.5 -14q11 -8 18.5 -21t8.5 -28.5t-5 -33t-22 -33.5q-13 -14 -30.5 -28.5l-37 -31.5
t-39 -37.5t-35.5 -45.5h92v5v18v28q0 13 -13 13v3q25 4 48.5 12.5t40.5 17.5h3v-77v-15v-5zM624 700l-585 -700h-9l585 700h9zM73 372q-15 11 -24.5 24t-9.5 28q0 17 11.5 28.5t28.5 11.5t28.5 -11.5t11.5 -28.5q0 -18 -14 -30q-5 -4 -8.5 -8.5t-2.5 -12.5q2 -7 12 -11.5
t24 -6.5q10 -2 20.5 5t19.5 20.5t14.5 32.5t5.5 42q0 37 -22 58t-58 12l-1 4q13 6 25.5 17t23 25.5t17.5 31t8 34.5q2 23 -6 41.5t-28 18.5t-36.5 -5t-18.5 -16q-1 -7 2.5 -12t8.5 -8q6 -6 10 -13.5t4 -16.5q0 -17 -11.5 -28.5t-28.5 -11.5t-28.5 11.5t-11.5 28.5
q0 15 9.5 28t24.5 24q11 8 30 15t46 7q19 0 39 -3.5t37 -12.5t28 -23.5t11 -36.5q0 -17 -9 -30.5t-22.5 -23t-29.5 -16.5t-30 -11q12 3 31 0.5t36 -12.5t29 -28.5t10 -47.5q-2 -24 -14 -43.5t-30.5 -33t-41 -21t-44.5 -7.5q-27 0 -46 7t-30 15z" />
    <glyph glyph-name="questiondown" unicode="&#xbf;" horiz-adv-x="507" 
d="M283 542q-33 0 -56 23t-23 56t23 56t56 23t56 -23t23 -56t-23 -56t-56 -23zM257 -123q-41 0 -81.5 11t-72.5 34.5t-52.5 60.5t-20.5 88q0 41 18.5 76.5t46.5 66.5t60.5 58.5l60.5 53t46.5 49.5t18.5 48t-17 41t-42 17q-27 0 -44 -19l-4 3q20 23 48.5 36.5t60.5 13.5
q30 0 56 -11t45.5 -30.5t31 -45.5t11.5 -56q0 -42 -13.5 -75.5t-34.5 -62t-47.5 -53.5l-53 -50.5t-51.5 -52.5t-42 -59q-17 -31 -17 -56t11 -43t31.5 -27.5t46.5 -9.5q19 0 38 2.5t34.5 8t25.5 13t12 17.5q3 14 -4.5 24t-15.5 17q-28 23 -28 61q0 33 23 56t56 23t56 -23
t23 -56q0 -31 -18.5 -57.5t-47.5 -46.5q-22 -16 -60.5 -30.5t-93.5 -14.5zM427 371v1v1v-2z" />
    <glyph glyph-name="fraction" unicode="&#x2044;" horiz-adv-x="451" 
d="M38 0h-8l383 700h8z" />
    <glyph glyph-name="Lslash" unicode="&#x141;" horiz-adv-x="526" 
d="M496 124v-124h-118h-29h-197h-49v6q11 0 18 7t7 18v138v189l-98 -56v9l98 56v121v43v138q0 11 -7 18t-18 7v6h49h108h37h15v-6q-11 0 -18.5 -7t-7.5 -18v-92v-31v-89l98 56v-8l-98 -56v-190v-105v-113q0 -14 10.5 -24.5t25.5 -10.5h50q25 0 46.5 9.5t37.5 25.5t25.5 37.5
t9.5 45.5h5z" />
    <glyph glyph-name="lslash" unicode="&#x142;" horiz-adv-x="404" 
d="M281 151v-120q0 -11 7.5 -18t18.5 -7v-6h-14h-83h-112v6q11 0 18 7t7 18v120v207l-98 -56v9l98 56v182v120q0 11 -7 18t-18 7v6h112h83h14v-6q-11 0 -18.5 -7t-7.5 -18v-120v-92l98 56v-8l-98 -56v-298z" />
    <glyph glyph-name="Zcaron" unicode="&#x17d;" horiz-adv-x="618" 
d="M365 6q25 0 46.5 9.5t37.5 25.5t25.5 37.5t9.5 45.5h5v-124h-143h-316l379 675q1 2 1 6q0 13 -12 13h-114h-31q-24 0 -45.5 -9.5t-37.5 -25.5t-25.5 -37.5t-9.5 -46.5h-6v125h143h316l-378 -675q-2 -4 -2 -6q0 -13 13 -13h17h96h31zM259 837q-4 6 -4 11q0 7 4.5 12
t12.5 5q4 0 9 -3l78 -51l77 51q4 3 9 3q8 0 12.5 -5t4.5 -12t-4 -11l-87 -96q-5 -5 -12 -5q-8 0 -13 5z" />
    <glyph glyph-name="zcaron" unicode="&#x17e;" horiz-adv-x="493" 
d="M300 5q19 0 36 7.5t29.5 20t19.5 29.5t7 36h6v-98h-373l263 469q2 4 2 6q0 13 -13 13h-30h-55q-38 0 -64.5 -27t-26.5 -65h-6v97h373l-263 -469q-2 -4 -2 -6q0 -5 3.5 -9t8.5 -4h85zM307 534q-5 -6 -12 -6q-9 0 -13 6l-86 95q-5 5 -5 11q0 8 5 12.5t12 4.5q5 0 9 -2
l78 -52l77 52q6 2 10 2q7 0 12 -4.5t5 -12.5q0 -6 -5 -11z" />
    <glyph glyph-name="breve" unicode="&#x2d8;" horiz-adv-x="261" 
d="M234 656q2 -5 2 -15q0 -32 -30 -53t-75 -21t-75.5 21t-30.5 53q0 7 3 15l35 -10q-1 -2 -1 -5q0 -14 19 -26t50 -12t50 12t19 26q0 3 -1 5z" />
    <glyph glyph-name="dotaccent" unicode="&#x2d9;" horiz-adv-x="150" 
d="M125 592q0 -20 -15 -34.5t-35 -14.5q-21 0 -35.5 14.5t-14.5 34.5q0 21 14.5 35.5t35.5 14.5q20 0 35 -14.5t15 -35.5z" />
    <glyph glyph-name="ring" unicode="&#x2da;" horiz-adv-x="170" 
d="M85 657q28 0 44 -19t16 -46t-16 -45.5t-44 -18.5t-44 18.5t-16 45.5t16 46t44 19zM103 609q0 46 -18 46q-19 0 -19 -46v-17v-17q0 -45 19 -45q18 0 18 45v17v17z" />
    <glyph glyph-name="hungarumlaut" unicode="&#x2dd;" horiz-adv-x="403" 
d="M29 764l87 96q5 5 13 5h57q8 0 13 -5t5 -12q0 -8 -8 -13l-146 -96q-2 -3 -9 -3q-16 0 -16 18q0 6 4 10zM204 764l87 96q5 5 12 5h57q8 0 13 -5t5 -12q0 -8 -7 -13l-146 -96q-3 -3 -9 -3q-7 0 -12 5t-5 13q0 5 5 10z" />
    <glyph glyph-name="ogonek" unicode="&#x2db;" horiz-adv-x="151" 
d="M111 3q-5 -2 -13 -8.5t-15.5 -15.5t-12.5 -18.5t-5 -18.5q0 -18 10.5 -22.5t18.5 -4.5t14 3.5t8 5.5l5 -8q-4 -8 -17.5 -19t-33.5 -11t-30 12t-10 26q0 18 15.5 40.5t49.5 38.5h16z" />
    <glyph glyph-name="caron" unicode="&#x2c7;" horiz-adv-x="258" 
d="M141 534q-5 -6 -12 -6q-9 0 -13 6l-86 95q-5 5 -5 11q0 8 5 12.5t12 4.5q5 0 9 -2l78 -52l77 52q6 2 10 2q7 0 12 -4.5t5 -12.5q0 -6 -5 -11z" />
    <glyph glyph-name="glyph220" horiz-adv-x="180" 
 />
    <glyph glyph-name="s_t" unicode="&#xfb06;" horiz-adv-x="763" 
d="M738 418q0 -15 -8 -30t-21.5 -26t-32 -18t-39.5 -7q-6 0 -11.5 0.5t-11.5 1.5v-232q0 -35 8 -52t20.5 -21t28 2t30.5 15v-8q-23 -16 -54 -29.5t-66 -13.5q-26 0 -48.5 7t-39.5 22.5t-27 40t-10 59.5v277v7l-40 28.5l-40 28.5v-105h-5q-4 21 -17 45t-36 44q-3 -33 -25 -58
t-57 -38q24 -22 52 -45t52 -49.5t39.5 -58t15.5 -68.5q0 -33 -13.5 -58.5t-37.5 -43t-57 -26.5t-71 -9q-36 0 -67.5 10.5t-55 29t-37 43.5t-13.5 54q0 32 23 55.5t56 23.5t56 -23.5t23 -55.5q0 -25 -12 -43q-5 -8 -10.5 -13t-10.5 -11q-11 -11 -12 -22.5t7 -21.5
q18 -21 53 -21q12 0 25.5 2t24.5 8t18 18t7 32q0 32 -17.5 60t-43 53t-56 49t-56 48.5t-43 51t-17.5 57.5v3q-33 30 -33 71q0 23 11.5 43t31.5 35t46.5 24t56.5 9h2q40 0 77.5 -13t72 -33.5t67.5 -45l66 -48.5v33q0 11 -7 18t-18 7v6q29 0 59 8.5t55 23.5t42.5 35t20.5 43h6
v-110v-2q6 1 11.5 1.5t11.5 0.5q42 0 71.5 -21.5t29.5 -53.5zM231 362q35 13 57 38.5t24 57.5q-17 14 -38.5 22t-47.5 8q-23 0 -38 -11t-14 -29q2 -23 18 -44t39 -42zM225 493q21 0 38 -3.5l32.5 -7t31.5 -5t35 2.5q-44 29 -90 49.5t-100 20.5q-29 0 -55 -6t-45.5 -18
t-30.5 -29t-11 -39q0 -35 29 -64q3 22 17 40.5t36 31.5t51 20t62 7zM614 354q6 -1 11.5 -1h11.5q38 0 66.5 17.5t28.5 47.5q0 29 -27.5 49t-67.5 20h-11.5t-11.5 -1v-24v-71v-37z" />
    <glyph glyph-name="o_j" horiz-adv-x="854" 
d="M728 493q42 0 71.5 -21.5t29.5 -53.5q0 -15 -8 -30t-21.5 -26t-32 -18t-39.5 -7q-6 0 -12.5 0.5t-12.5 1.5v-445q0 -31 -14.5 -60.5t-39 -53t-58 -37.5t-70.5 -14q-38 0 -71 12t-58 32t-39 47.5t-14 58.5q0 32 23 55.5t56 23.5t56 -23.5t23 -55.5q0 -36 -26 -59
q-15 -14 -18 -26t-1 -23t14 -23.5t32 -10.5q14 1 23 14.5t14 35t7 49.5t2 58v506l-87 50t-88 48.5t-89 37t-89 14.5q-29 0 -55 -6t-45.5 -18t-30.5 -29t-11 -39q0 -31 22 -56q29 42 75 66.5t107 24.5q53 0 95 -19.5t71.5 -52.5t45.5 -78t16 -96t-16 -96t-45.5 -78.5
t-71.5 -53t-95 -19.5t-95.5 19.5t-72 53t-45 78.5t-15.5 96q0 42 11 80.5t31 69.5q-11 14 -17 29t-6 32q0 23 11.5 43t31 35t46.5 24t57 9h1q43 0 88 -15t89.5 -37.5t88.5 -49.5l87 -51v46q0 11 -7 18t-18 7v6h193h16zM324 311q0 58 -7 92q-19 -26 -52 -41.5t-75 -15.5
q-5 0 -7 1q-1 -8 -1 -17v-19v-64v-65q0 -91 17.5 -132.5t53.5 -41.5t53.5 41.5t17.5 132.5v65v64zM253 485q-32 0 -49 -32t-21 -101h7q42 0 75.5 16.5t50.5 42.5q-16 74 -63 74zM728 353q19 0 36 4.5t30.5 13t21.5 20.5t8 27q0 29 -28 49t-68 20q-11 0 -18 -7t-7 -18v-28
v-79q6 -2 12.5 -2h12.5z" />
    <glyph glyph-name="c_k" horiz-adv-x="1009" 
d="M964 16q6 -10 20 -10v-6h-13h-84h-49q-20 0 -34.5 3.5t-20.5 15.5l-22.5 44l-23.5 45.5l-22.5 42.5t-17.5 35q-5 8 -3 13.5t10 14.5l18 24.5t22.5 32l23 36.5t20.5 37q-31 2 -51.5 13.5t-26.5 31.5q-4 15 3 31t23 31t38.5 26t48.5 15q21 3 41 -0.5t36.5 -13t28.5 -26
t15 -38.5q12 19 12 44q0 22 -11 39t-30.5 29t-45 18t-54.5 6q-40 0 -75.5 -11.5t-69.5 -30.5v-24v-301v-32v-120q0 -11 7.5 -18t18.5 -7v-6h-14h-83h-112v6q11 0 18 7t7 18v120v249q-33 -23 -66 -39v-4q0 -33 -23.5 -56t-55.5 -23q-33 0 -56 22.5t-24 55.5
q-17 11 -27.5 27.5t-10.5 34.5q0 21 13.5 38t36.5 27l-8 2t-9 1q-4 1 -11 1q-23 0 -39.5 -8.5t-27.5 -29t-16.5 -54t-5.5 -84.5v-64v-65q0 -51 5.5 -84.5t16.5 -54t27.5 -29t39.5 -8.5q2 0 5 0.5t6 0.5q20 2 34 10.5t17 21.5q3 14 -5.5 23.5t-16.5 17.5q-24 24 -24 57
q0 32 23.5 55.5t56.5 23.5q32 0 55.5 -23.5t23.5 -55.5q0 -29 -15.5 -53.5t-41.5 -43.5t-61 -29.5t-75 -10.5q-53 0 -95.5 19.5t-72 53t-45 78.5t-15.5 96t15.5 96t45 78t72 52.5t95.5 19.5q36 0 68.5 -9t58 -25t42.5 -37t22 -46q17 8 34 18.5l34 21.5v63v70v120q0 11 -7 18
t-18 7v6h112q40 0 55.5 -20t15.5 -68v-61v-25q34 19 69.5 31t74.5 12h1q30 0 57 -9t47 -24t31.5 -35t11.5 -43q0 -27 -17 -52q1 -10 0 -22q-3 -30 -16 -59.5t-29 -53.5t-29.5 -40.5t-16.5 -20.5q-2 -2 -3 -5.5t2 -8.5l22 -35.5l30 -48l31.5 -51.5zM254 418q0 -17 9.5 -29.5
t24.5 -20.5q5 27 23 45q8 8 16.5 17.5t5.5 23.5q-3 16 -26 26q-23 -8 -38 -25t-15 -37zM716 390q5 -17 24.5 -28t49.5 -13q12 25 17 43q10 37 0 55t-28 18q-12 0 -24.5 -7.5t-22.5 -18.5t-15 -24t-1 -25z" />
    <glyph glyph-name="g_a" horiz-adv-x="1043" 
d="M899 126q25 -3 47 -12.5t38 -23.5t25 -31.5t9 -37.5q0 -22 -11 -42.5t-30.5 -36.5t-45.5 -26t-56 -10q-63 0 -120 27.5t-113 68.5q-2 0 -4.5 -0.5t-4.5 -0.5q-30 -3 -57.5 4t-48 22.5t-32 39t-11.5 53.5q-28 20 -56.5 37.5t-58.5 31.5q-23 -11 -49.5 -17t-57.5 -7
q-45 2 -80 13t-61 31q-21 -11 -21 -29q0 -9 6 -18t22.5 -14t38 -8t46 -4.5t48.5 -3.5q109 -8 172 -62.5t63 -138.5q0 -47 -18.5 -84.5t-50.5 -63.5t-74.5 -40t-91.5 -14h-1q-49 0 -91.5 13t-74.5 35t-50.5 51.5t-18.5 63.5q0 33 23 56t56 23t56 -23t23 -56q0 -16 -6 -30
t-17 -25q-5 -6 -14 -18t-9 -27q0 -18 14 -30.5t34 -17.5q18 -4 37 -6.5t39 -2.5q45 0 75.5 12t49.5 31t27.5 42.5t8.5 47.5q0 34 -20.5 58t-51.5 32q-30 8 -64.5 12t-69.5 7.5t-66.5 9t-55.5 15.5q-30 13 -49.5 40.5t-19.5 62.5q0 37 22.5 65.5t63.5 45.5q-52 46 -52 113
q0 33 14 62.5t40 51.5t63.5 35.5t85.5 14.5q56 -1 97.5 -18.5t67.5 -46.5l31 26.5t35.5 27t37 21t35.5 8.5t25 -12t6 -29q48 23 109 23q40 0 75 -10.5t61 -29t41.5 -43.5t15.5 -53v-231zM637 134q0 -38 9.5 -59.5t24 -30.5t30.5 -7t29 11q9 7 12 11q-1 7 -1.5 14.5
t-0.5 15.5v38v191q-14 -18 -31.5 -30.5t-33.5 -30t-27 -46t-11 -77.5zM204 286q0 -14 1 -27t3 -24h8q49 0 97 -14q3 13 5 29t2 36v43v43q0 115 -58 115t-58 -115v-43v-43zM262 172q33 0 48 39q-47 14 -95 14h-5q12 -53 52 -53zM380 194q27 -13 53 -28.5l52 -32.5v1
q3 30 17 51t34.5 36.5t45.5 26t51 18.5q53 17 76 32.5t31 29.5v50q0 57 -12.5 85t-50.5 23q-21 -2 -35 -10.5t-16 -21.5q-3 -14 5.5 -23.5t16.5 -17.5q11 -11 17 -25t6 -31q0 -33 -23 -56t-56 -23t-56 23t-23 56t21 61.5t56 47.5v7q0 18 -9.5 24t-18.5 6q-14 0 -31 -8
t-34.5 -20t-34.5 -26l-31 -26q34 -42 34 -94q0 -42 -21.5 -77t-63.5 -58zM875 -72q27 0 52 7t44 19t30.5 29t11.5 38q0 38 -33 65.5t-81 34.5v-46v-7v-26v-10q0 -11 7 -18t18 -7v-6h-112q-32 0 -48 12t-21 40q-30 -33 -80 -47q52 -33 104 -55.5t108 -22.5z" />
    <glyph glyph-name="o_f" horiz-adv-x="1054" 
d="M1029 30q0 -26 -11 -50.5t-29.5 -43.5t-44 -30.5t-54.5 -12.5q0 -10 -1 -14q-2 -31 -15.5 -58.5t-35.5 -47.5t-51.5 -32t-63.5 -12t-64 12t-52.5 32t-35.5 47.5t-13 58.5q0 32 23 55.5t56 23.5t56 -23.5t23 -55.5q0 -36 -26 -59q-15 -14 -18.5 -26t-1.5 -23q3 -11 15 -24
t32 -11q13 1 23.5 13t15.5 33t4 49.5t-10 62.5q-4 12 -7.5 24t-8.5 25q-50 32 -98.5 75l-99.5 86q-21 -34 -52 -58.5t-71 -36.5q-26 -46 -74 -73.5t-108 -27.5q-43 0 -80.5 15t-65.5 40.5t-44 60t-16 73.5q0 49 25 90t67 66q1 50 17.5 94t45.5 76.5t71 51t94 18.5
q56 0 99.5 -21t73.5 -57l31 27.5t39 31.5t42.5 26t41.5 11q21 0 28 -16.5t-1 -39.5q52 38 131 38q38 0 70 -10.5t54.5 -29t35 -43.5t12.5 -53q0 -33 -23 -56t-56 -23t-56 23t-23 56q0 17 6 31t17 25q8 8 16.5 17.5t5.5 23.5q-4 17 -18.5 24.5t-25.5 7.5q-18 0 -33 -8.5
t-25.5 -22t-16.5 -30.5t-7 -35q-2 -56 15 -115t40 -119h11q33 0 56 23.5t23 55.5h5v-81q50 -8 83 -42.5t33 -81.5zM820 151l43.5 -118.5t25.5 -113.5q30 1 54.5 9.5t42 23t27.5 34.5t10 44q0 45 -31 77.5t-79 40.5v-76h-5q0 32 -23 55.5t-56 23.5h-9zM345 485
q-36 0 -53.5 -41.5t-17.5 -132.5v-30q38 -5 73 -20.5t69 -36.5v23v64q0 91 -17.5 132.5t-53.5 41.5zM231 -86q57 0 102.5 25.5t71.5 67.5q-27 -7 -60 -7q-51 0 -91.5 18t-70 48.5t-46 72.5t-19.5 90q-40 -19 -64 -52t-24 -80q0 -38 16 -71.5t43 -58t63.5 -39t78.5 -14.5z
M416 194q-34 21 -69 35.5t-73 20.5v-3v-65q0 -91 17.5 -132.5t53.5 -41.5t53.5 41.5t17.5 132.5v12zM546 124l88 -77t87 -68l-29.5 76l-29.5 77t-24 74.5t-12 70.5q-4 57 13 100t52 72q5 13 5 24q0 18 -10 24t-19 6q-16 0 -35.5 -10t-39.5 -24.5t-38.5 -30.5l-31.5 -28
q51 -68 51 -163q0 -69 -27 -123z" />
    <glyph glyph-name="o_o" horiz-adv-x="1016" 
d="M991 238q0 -76 -34 -136.5t-95 -89.5q2 -10 2 -15q0 -15 -8 -30t-21.5 -26t-32 -18t-39.5 -7q-55 0 -103.5 27t-96.5 62l-59.5 -28.5t-63 -26t-68 -18.5t-74.5 -7q-53 0 -92.5 24.5t-50.5 62.5q-63 29 -96.5 89.5t-33.5 136.5t33.5 136.5t95.5 89.5q-3 7 -3 15q0 15 8 30
t21.5 26t32 18t39.5 7q27 0 53 -7.5t50.5 -19.5t49 -28t48.5 -34l59 28.5t63 26t68.5 18.5t74.5 7q53 0 92.5 -24.5t50.5 -62.5q62 -29 96 -89.5t34 -136.5zM756 71q36 0 65 -16q13 40 13 118v65v65q0 37 -3 66q-20 -19 -49.5 -29.5t-63.5 -10.5h-1h-13t-12 1v-27v-65v-65
q0 -67 9 -107q14 3 27.5 4t27.5 1zM820 52q-29 16 -64 16q-27 0 -54 -6q16 -63 61 -63q41 0 57 53zM693 348q6 0 12 -0.5t12 -0.5q71 0 112 33q-6 51 -22.5 74t-43.5 23q-32 0 -49 -31t-21 -98zM719 546q-41 0 -76.5 -7t-67 -18.5t-60 -26l-56.5 -28.5l57.5 -41.5
t59.5 -37.5q29 45 76.5 71.5t110.5 26.5q25 0 48 -5t43 -13q-12 34 -49.5 56t-85.5 23zM154 479q0 -7 3 -14q43 20 96 20q41 0 75 -12t62 -33l24 12l25 12q-46 32 -91.5 56.5t-95.5 24.5q-41 0 -69.5 -18.5t-28.5 -47.5zM324 303q0 33 -2.5 59.5t-7.5 46.5
q-13 -2 -26.5 -3.5t-28.5 -1.5q-35 0 -65 16q-12 -42 -12 -117v-65v-65q0 -38 3 -66q20 19 49 29.5t64 10.5h1h12t12 -1q0 7 0.5 13.5t0.5 13.5v65v65zM322 127q-6 1 -12 1.5t-12 0.5q-34 0 -63 -8.5t-49 -25.5q7 -50 23.5 -73t43.5 -23q31 0 48 31t21 97zM259 408
q27 0 54 6q-16 63 -60 63q-40 0 -58 -53q29 -16 64 -16zM296 -70q42 0 77.5 7t67 18.5t60 26l55.5 28.5l-57.5 41.5t-59.5 37.5q-29 -45 -76 -71.5t-110 -26.5q-26 0 -49 5t-43 13q12 -34 49.5 -56t85.5 -23zM447 102q32 -19 62.5 -41l60.5 -44l24 12t25 11
q-41 34 -62.5 85.5t-21.5 112.5q0 38 8.5 72.5t24.5 63.5q-32 19 -62 41l-60 44l-25 -12l-25 -12q41 -34 63 -85t22 -112q0 -76 -34 -136zM861 -3q0 4 -0.5 7t-1.5 7q-43 -20 -96 -20q-42 0 -76 12t-62 32q-12 -5 -24 -11l-25 -12q46 -32 91.5 -56.5t95.5 -24.5
q41 0 69.5 18t28.5 48z" />
    <glyph glyph-name="a_y" horiz-adv-x="975" 
d="M950 493v-5q-35 0 -61 -22.5t-39 -53.5l-133 -309q21 -27 21 -58q0 -35 -25 -62.5t-66 -40.5l-57 -134q-15 -35 -42.5 -57t-65.5 -22q-26 0 -48 12t-39 32.5t-26.5 47.5t-9.5 58q0 32 23 55.5t56 23.5t56 -23.5t23 -55.5q0 -38 -26 -59l-7 -7t-5 -7q-9 -12 -10 -24
t3 -21.5t12.5 -16t18.5 -6.5q7 0 10 2q47 15 72 70l56 130q-24 -6 -49 -6q-45 0 -81 18t-53 49h-94q-27 0 -43 9q-48 -34 -95 -60t-100 -26q-21 0 -39.5 7t-32 18t-21.5 26t-8 30q0 30 28 52q-20 33 -16 77q3 30 17 51t34 36.5t45 26t51 18.5q53 16 76.5 32t31.5 30v50
q0 57 -12.5 85t-50.5 23q-46 -5 -51 -32q-4 -14 5 -23.5l17 -17.5q11 -11 17 -25t6 -31q0 -33 -23 -56t-56 -23t-56 23t-23 56q0 28 15 53t41.5 43.5t61.5 29t75 10.5t75 -10.5t61 -29t41.5 -43.5t15.5 -53v-242q32 18 66.5 29.5t72.5 11.5h2h14l-136 315q-9 17 -25 17v5
h198v-5q-16 0 -16 -16q0 -2 0.5 -3.5t0.5 -3.5l119 -277l89 207q6 12 6 26q0 28 -19.5 47.5t-47.5 19.5v5h175zM292 318q-14 -18 -31.5 -30.5t-33.5 -30t-27 -46t-11 -77.5q0 -38 9.5 -59.5t24 -30.5t30.5 -7t29 11q4 3 6.5 5.5l5.5 5.5q-1 7 -1.5 14.5t-0.5 15.5v38v191z
M30 5q0 -15 8 -27t21.5 -20.5t30.5 -13t36 -4.5q49 0 94 23.5t90 55.5q-11 12 -15 34q-20 -22 -49 -35.5t-62 -16.5q-40 -4 -74 9.5t-54 41.5q-12 -9 -19 -21t-7 -26zM592 -61q14 0 26.5 2t24.5 5l26 61l-55 129q-6 1 -11.5 1h-11.5q-38 0 -73 -11t-67 -29v-22v-7v-19
q0 -23 11 -43t30 -35t44.5 -23.5t55.5 -8.5zM732 45q0 28 -19 50l-63 -146q37 12 59.5 38t22.5 58z" />
    <glyph glyph-name="e_s" unicode="&#x441;" horiz-adv-x="977" 
d="M923 459q25 -14 28 -44q5 -32 -21 -62q-22 -26 -57.5 -42t-78.5 -20q34 -32 58 -69t24 -85q0 -33 -13.5 -58.5t-37.5 -43t-57 -26.5t-71 -9q-35 0 -66.5 10.5t-55 29t-37.5 43.5t-14 54q0 32 23.5 55.5t55.5 23.5q33 0 56 -23.5t23 -55.5q0 -25 -12 -43q-5 -8 -10.5 -13
t-10.5 -11q-11 -11 -12 -22.5t7 -21.5q19 -21 53 -21q12 0 25.5 2t24.5 8t18 18t7 32q0 32 -17.5 60t-43 53t-56 49t-56 48.5t-43 51t-17.5 57.5q0 3 1 5l-75 55t-79 50.5t-86.5 37t-96.5 14.5q-33 0 -64 -7t-55 -21t-39 -34.5t-15 -48.5q0 -40 30 -73q26 59 78 95t127 36
q48 0 88 -17.5t69 -45t45 -62.5t16 -69h-281h-8v-52v-65q0 -51 5.5 -84.5t16.5 -54t27.5 -29t39.5 -8.5q2 0 5 0.5t6 0.5q20 2 34 10.5t17 21.5q3 14 -5.5 23.5t-16.5 17.5q-24 24 -24 57q0 32 23.5 55.5t56.5 23.5q32 0 55.5 -23.5t23.5 -55.5q0 -29 -15.5 -53.5
t-41.5 -43.5t-61 -29.5t-75 -10.5q-53 0 -95.5 19.5t-72 53t-45 78.5t-15.5 96q0 59 21 109q-33 35 -33 79q0 28 14 52.5t38 42.5t56 28.5t69 10.5q48 0 92 -15.5t85.5 -40t81.5 -54.5l80 -58q9 42 55.5 67t109.5 25q23 0 44.5 -5.5t41 -11.5l36 -11.5t30.5 -5.5q17 8 34 8
t31 -8zM244 481q-25 -14 -37.5 -53t-12.5 -117v-7h8h134q0 26 -1 53t-6 51t-15.5 43t-28.5 30q-1 1 -6.5 3t-13.5 2t-13.5 -2t-7.5 -3zM776 307q58 1 92 14t52 30.5t22.5 35t3.5 27.5q-5 27 -26 41q-11 6 -26 6q-6 0 -13 -1t-13 -3q-10 -3 -10 -15v-77h-6q-3 19 -14 40.5
t-29.5 40t-44 30.5t-57.5 12q-22 0 -37.5 -11t-14.5 -29t12.5 -35.5t28.5 -34.5t38 -34.5z" />
    <glyph glyph-name="u_n" horiz-adv-x="1030" 
d="M980 31q0 -11 7 -18t18 -7v-6h-14h-83h-112v6q11 0 18 7t7 18v71v284q0 42 -15.5 58t-36.5 16q-12 0 -25.5 -4.5t-29.5 -12.5q3 -15 3 -38v-222v-32v-120q0 -11 7.5 -18t18.5 -7v-6h-14h-83h-112v6q11 0 18 7t7 18v120v205q-20 -10 -42 -18.5t-46 -16.5v-19v-111v-160
q0 -11 7 -18t18 -7v-6h-112q-29 0 -45 10.5t-22 34.5q-33 -20 -71 -32.5t-71 -12.5q-26 0 -48.5 7t-39.5 22.5t-27 40.5t-10 60v128v44v160q0 11 -7 18t-18 7v6h112q29 0 45.5 -10.5t22.5 -35.5q5 8 16 17q35 29 88 29h8h82q41 0 56.5 -20t15.5 -68v-68q50 15 88 34v91
q0 11 -7 18t-18 7v6h112q53 0 66 -41q35 18 70.5 29.5t73.5 11.5q25 0 48 -7t39.5 -22.5t26.5 -40t10 -59.5v-277v-56zM292 486q-29 -2 -51 -14.5t-35 -31.5q3 -15 3 -35v-58q14 -17 40.5 -25.5t59.5 -8.5h4v149v6q0 8 -5.5 13t-13.5 5h-2zM316 52q-3 15 -3 36v207h-4
q-54 0 -88 29q-8 6 -12 12v-34v-59v-135q0 -35 11 -52t27.5 -21t35 2t33.5 15z" />
    <glyph glyph-name="b_u" horiz-adv-x="1042" 
d="M992 31q0 -11 7 -18t18 -7v-6h-112q-29 0 -45 10.5t-22 34.5q-33 -20 -71 -32.5t-72 -12.5q-26 0 -48.5 7t-39 22.5t-26.5 40.5t-10 60v128v44v151q-3 3 -6 5.5t-6 5.5l-42 -31t-43 -30q18 -31 28 -70t10 -87q0 -59 -15 -105.5t-42 -78.5t-64.5 -48t-82.5 -14
q-33 2 -59 18t-43 37q-5 -29 -21 -42t-48 -13h-112v6q11 0 18 7t7 18v31v89v328v70v120q0 11 -7 18t-18 7v6h112q40 0 56 -20t16 -68v-61v-67v-51q8 25 38.5 41.5t81.5 16.5q48 0 88 -26q-11 14 -15 28.5t-2 26t10 19t21 7.5q15 0 31 -6.5t32 -16.5t31 -22l29 -24
q2 2 3.5 2.5t3.5 2.5q-7 5 -15 5v6h31q45 32 93 54t102 22h1q49 0 86.5 -21.5t52.5 -54.5h8q41 0 56.5 -20t15.5 -68v-103v-111v-160zM266 460q-16 0 -26.5 -5t-16.5 -12t-8.5 -14.5t-2.5 -11.5q0 -15 8 -27t21 -20t30.5 -12.5t35.5 -4.5t36 3q-11 56 -31 80t-46 24z
M353 246q-1 28 -2.5 51.5t-4.5 43.5q-10 -2 -19.5 -3t-19.5 -1q-36 0 -63.5 19.5t-34.5 45.5v-253v-61q0 -6 -0.5 -12t-0.5 -11q13 -19 28.5 -30.5t31.5 -13.5q40 -5 63.5 51t21.5 174zM467 415l40.5 28.5l41.5 29.5l-28.5 23.5t-29.5 20.5t-29 15t-26 6q-9 0 -18.5 -6
t-9.5 -25q0 -11 4.5 -24.5t17.5 -26.5q21 -18 37 -41zM569 471q-1 -1 -2 -1.5t-2 -1.5l6 -6q0 3 -2 9zM658 493q40 0 55.5 -20t15.5 -68v-48q23 -5 44 -5q17 0 32 2.5t29 7.5v100q0 11 -7.5 18t-18.5 7v6h97q-16 28 -51.5 42.5t-81.5 14.5q-47 0 -88.5 -16t-80.5 -41h55z
M729 108q0 -35 11 -52t27.5 -21t35 2t33.5 15q-2 8 -2 16.5v19.5v268q-14 -5 -29 -7.5t-32 -2.5q-21 0 -44 5v-49v-59v-135z" />
    <glyph glyph-name="x_i" unicode="&#x3be;" horiz-adv-x="861" 
d="M630 542q-33 0 -56 23t-23 56q0 32 23 55.5t56 23.5t56 -23.5t23 -55.5q0 -33 -23 -56t-56 -23zM735 493q21 0 39 -6t32 -16t22 -23.5t8 -28.5q0 -16 -8 -30.5t-22 -26t-32 -18.5t-39 -7q-7 0 -13 0.5t-13 1.5v-188v-120q0 -11 7.5 -18t18.5 -7v-6h-14h-83h-112v6
q11 0 18 7t7 18v120v192v72l-51.5 37t-52.5 36q-9 -12 -17 -25.5l-16 -26.5l-90 -153l157 -267q6 -10 20 -10v-6h-14h-63h-125v6q5 0 8.5 3.5t3.5 8.5t-1 7l-105 179l-68 -116q-8 -13 -8 -28q0 -23 16 -39t39 -16v-5h-159v5q30 0 53.5 17.5t38.5 42.5l85 145l-157 268
q-6 9 -20 9v6h14h63h28q15 33 52.5 54.5t86.5 21.5h1q51 0 95 -19t86 -47q15 20 30.5 32.5t29.5 12.5q30 0 42 -36q4 -9 5 -19h80h83h14zM408 438l16.5 27.5l17.5 26.5q-39 25 -81.5 41.5t-90.5 16.5q-46 0 -82 -14.5t-51 -42.5h90v-6q-13 0 -13 -12q0 -3 2 -7l105 -179z
M456 500l48 -34l47 -34v30q0 11 -7 18t-18 7v6h26q-9 49 -41 49q-13 0 -27 -12t-28 -30zM735 353q37 0 66 17.5t29 48.5q0 29 -28 48.5t-67 19.5q-11 0 -18.5 -7t-7.5 -18v-107q7 -1 13 -1.5t13 -0.5z" />
    <glyph glyph-name="a_i" horiz-adv-x="827" 
d="M777 151v-120q0 -11 7 -18t18 -7v-6h-13h-51q-2 -15 -10.5 -28.5t-22 -24t-31 -17t-37.5 -6.5q-49 0 -93.5 22.5t-88.5 54.5q-31 0 -47 11.5t-22 37.5q0 1 -1 1q-15 -15 -34.5 -26.5t-42.5 -17.5q-16 -33 -52.5 -53.5t-84.5 -20.5q-30 0 -56.5 9t-46.5 24t-31.5 35.5
t-11.5 43.5q0 38 30 67t76 40q6 25 20.5 43t34 31.5t42.5 23t47 16.5q53 16 76.5 32t31.5 30v50q0 57 -12.5 85t-50.5 23q-46 -5 -52 -32q-3 -14 6 -23.5l17 -17.5q11 -11 17 -25t6 -31q0 -33 -23 -56t-56 -23t-56 23t-23 56q0 28 15 53t41.5 43.5t61.5 29t75 10.5t75 -10.5
t61 -29t41.5 -43.5t15.5 -53v-282v-7v-26v-10v-2q8 19 29 32t48 17v72v192v119q0 11 -7.5 18t-18.5 7h-2h-16q-25 0 -42.5 18t-17.5 43t17.5 42.5t42.5 17.5q19 0 31 -7.5t22 -17.5q-9 16 -9 38q0 32 23 55.5t56 23.5q32 0 55.5 -23.5t23.5 -55.5q0 -33 -23.5 -56t-55.5 -23
q-25 0 -40 9.5t-26.5 21.5t-24 21.5t-32.5 9.5q-24 0 -40.5 -16.5t-16.5 -39.5t17 -39t40 -16h15h3h112h84h13v-6q-11 0 -18 -7t-7 -18v-119v-192zM383 318q-14 -18 -31.5 -30.5t-33.5 -30t-27 -46t-11 -77.5v-3q27 -12 52.5 -28l51.5 -34q-1 5 -1 10v10v38v191zM171 -61
q45 0 79.5 18.5t50.5 47.5q-6 -2 -12.5 -2.5t-13.5 -1.5q-32 -3 -60 4.5t-48.5 24.5t-31 43.5t-7.5 59.5q-43 -8 -70.5 -30.5t-27.5 -57.5q0 -22 11 -41.5t30.5 -33.5t45 -22.5t54.5 -8.5zM373 48q3 2 7 6q-24 17 -48.5 32.5t-50.5 26.5q3 -30 13 -47.5t23.5 -24t28.5 -4.5
t27 11zM637 -60q35 0 63.5 16t31.5 44h-27h-112v6q11 0 18.5 7t7.5 18v42q-28 -4 -48.5 -18t-26.5 -34q7 -14 23 -14v-6h-88q38 -26 77 -43.5t81 -17.5z" />
    <glyph glyph-name="o_g" horiz-adv-x="1025" 
d="M854 464q39 -21 68 -45t47 -49t25.5 -49t4.5 -43q-6 -44 -59 -53q-5 -1 -10 -1.5t-10 -0.5q-6 0 -12 0.5t-12 1.5q-26 -26 -66.5 -42t-93.5 -18q-45 2 -80 13t-61 31q-16 -8 -20 -21t5 -26q6 -9 22.5 -14t38 -8t46 -4.5t48.5 -3.5q109 -8 172 -62.5t63 -138.5
q0 -47 -18.5 -84.5t-50.5 -63.5t-74.5 -40t-91.5 -14h-1q-49 0 -91.5 13t-74.5 35t-50.5 51.5t-18.5 63.5q0 33 23 56t56 23q20 0 37 -9t28 -24q26 2 49.5 11.5t40.5 23.5q-46 5 -90 10.5t-75 18.5q-29 13 -48.5 39.5t-20.5 61.5q-45 -23 -86 -53.5l-82 -59t-83 -48
t-87 -19.5q-21 0 -39 7t-32 18t-22 26t-8 30q0 17 9.5 31.5t26.5 25.5q-35 34 -53 81.5t-18 104.5q0 51 15.5 96t45 78t72 52.5t95.5 19.5q45 0 81 -13.5t64 -36.5q-15 26 -9 47t32 21q18 0 38 -8.5t40 -21.5t38 -27.5l33 -26.5q26 29 68 47t98 19q71 -2 118 -29zM896 -132
q0 34 -20.5 58t-51.5 32q-19 5 -40 8.5t-44 6.5q-35 -34 -94 -40q11 -19 11 -41q0 -16 -6 -30t-17 -25l-14 -17.5t-9 -27.5q0 -18 14 -30.5t34 -17.5q18 -4 37 -6.5t39 -2.5q45 0 75.5 12t49.5 31t27.5 42.5t8.5 47.5zM736 487q-58 0 -58 -115v-27q20 -17 50 -38.5t65 -39.5
q0 5 0.5 9.5t0.5 9.5v43v43q0 115 -58 115zM182 182q0 -67 9 -107q30 -7 49.5 -25t21.5 -41q32 5 47 46.5t15 126.5v65v64q0 91 -17.5 132.5t-53.5 41.5t-53.5 -41.5t-17.5 -132.5v-64v-65zM257 8q-2 21 -20 37.5t-44 23.5q16 -61 60 -61h4zM66 4q0 -31 29 -48.5t66 -17.5
q51 0 96.5 24.5t91.5 56.5q-46 -19 -96 -19q-48 0 -86 15t-67 42q-16 -10 -25 -23.5t-9 -29.5zM500 121q5 35 29.5 60.5t59.5 32.5q-56 45 -56 115q0 54 33 93l-33 26.5t-36.5 26.5t-37 20t-33.5 8q-10 0 -20 -6t-10 -24q0 -9 3.5 -21t13.5 -23q33 -34 50.5 -81t17.5 -101
q0 -53 -16 -98t-47 -79l40.5 27t41.5 24zM736 172q51 0 57 89q-8 5 -15 8.5t-14 7.5q-26 15 -48 31t-38 30v-9v-43q0 -114 58 -114zM989 282q3 18 -3 39t-19.5 41.5t-33 40t-43.5 36.5q24 -22 36.5 -50t12.5 -60q0 -57 -38 -98q32 -3 57 8t31 43z" />
    <glyph glyph-name="v_i" horiz-adv-x="905" 
d="M741 156q29 -1 54.5 -10.5t44 -24.5t29.5 -34.5t11 -41.5q0 -23 -11.5 -43.5t-31 -35.5t-46.5 -23.5t-57 -8.5q-45 0 -80.5 18t-52.5 48h-43v6q11 0 18 7t7 18v61q-41 -24 -79.5 -53t-76.5 -54.5t-77.5 -43t-81.5 -17.5q-52 0 -76.5 25t-24.5 56q0 22 15.5 39.5
t39.5 27.5l-172 399q-7 17 -25 17v5h199v-5q-7 0 -12 -4.5t-5 -11.5q0 -3 2 -7l119 -277l89 207q5 13 5 26q0 28 -19.5 47.5t-46.5 19.5v5h174v-5q-35 0 -60.5 -22.5t-39.5 -53.5l-54 -126q41 -21 71.5 -46t49.5 -50.5t27 -50t5 -43.5q-1 -18 -14 -32l34 23.5t34 21.5v42
v192v119q0 11 -7 18t-18 7v6h112h83h14v-6q-11 0 -18.5 -7t-7.5 -18v-119v-187zM287 79q29 -2 61.5 -9t62.5 -12t54.5 -4.5t37.5 14.5q11 11 16 31q4 23 -6 49t-30.5 50.5t-48.5 46.5t-60 37zM173 5q0 -15 8 -27t21 -20.5t30.5 -13t35.5 -4.5q30 0 59 9.5t57 25t55.5 35
l55.5 40.5q-8 -5 -25 -8t-38 1t-44 10.5t-49 12.5t-54 8l-32 -74l-29 67q-23 -9 -37 -25.5t-14 -36.5zM734 -61q29 0 55 8.5t45 22.5t30 33.5t11 41.5q0 21 -10.5 37.5t-28.5 28.5t-42.5 18.5t-52.5 7.5v-106q0 -11 7.5 -18t18.5 -7v-6h-14h-83h-63q17 -27 51 -44t76 -17z
M662 542q-33 0 -56 23t-23 56q0 32 23 55.5t56 23.5t56 -23.5t23 -55.5q0 -33 -23 -56t-56 -23z" />
    <glyph glyph-name="k_n" horiz-adv-x="1041" 
d="M209 31q0 -11 7 -18t18 -7v-6h-14h-83h-112v6q11 0 18 7t7 18v120v328v70v120q0 11 -7 18t-18 7v6h112q40 0 56 -20t16 -68v-61v-67v-301v-32v-120zM991 31q0 -11 7 -18t18 -7v-6h-14h-83h-112v6q11 0 18 7t7 18v71v284q0 42 -15.5 58t-36.5 16q-12 0 -26 -4.5t-29 -12.5
q3 -15 3 -38v-222v-32v-120q0 -11 7 -18t18 -7v-6h-13h-84h-112v6q11 0 18.5 7t7.5 18v120v205q-24 -11 -51 -22t-56 -19q-9 -20 -20.5 -38t-22 -32t-18.5 -23t-10 -12q-1 -2 -2 -5.5t2 -8.5q7 -13 21 -35.5l30 -48l32 -51.5l28 -45q6 -10 20 -10v-6h-14h-83h-50
q-20 0 -34.5 3.5t-19.5 15.5l-23 44l-23.5 45.5l-22 42.5l-18.5 35q-4 8 -2.5 13.5t9.5 14.5q11 14 26 36t31 48q-31 5 -51 22.5t-20 46.5q0 47 44 83q18 14 40.5 25.5t49.5 16.5q24 4 46.5 -1t40 -18.5t27.5 -35.5t7 -53q-1 -14 -5 -28t-9 -28q27 8 52.5 18t48.5 21v95
q0 11 -7.5 18t-18.5 7v6h112q29 0 44.5 -9.5t22.5 -32.5q35 18 70 30t73 12q26 0 48.5 -7t39.5 -22.5t27 -40t10 -59.5v-277v-56zM234 366q0 -19 17.5 -35.5t55.5 -20.5q14 23 24 44t15 38q9 37 -1 55t-28 18q-14 0 -25.5 -8t-16.5 -11q-41 -36 -41 -80z" />
    <glyph glyph-name="t_h" horiz-adv-x="902" 
d="M851 31q0 -11 7.5 -18t18.5 -7v-6h-14h-83h-112v6q11 0 18 7t7 18v71v276q-40 -31 -101 -31h-3v-164v-32v-120q0 -11 7 -18t18 -7v-6h-13h-84h-112v6q11 0 18.5 7t7.5 18v120v328v20q-35 -21 -68.5 -45.5l-65.5 -47.5v-15v-284q0 -35 8 -52t20.5 -21t28 2t30.5 15l-1 -8
q-23 -16 -54 -29.5t-65 -13.5q-26 0 -49 7t-40 22.5t-27 40t-10 59.5v209q-3 0 -6 -0.5t-6 -0.5q-21 0 -39.5 7t-32 18.5t-21.5 26t-8 30.5q0 30 27.5 51t68.5 23q28 1 57 10t53 23.5t40.5 34t19.5 42.5h6v-110h64v-6h-64v-25v-40l66 48t68 47v32v41q-8 2 -15 4.5t-13 5.5
q-44 18 -57 40q-13 20 -6 34t22 19q9 3 19.5 5t23.5 2h112q41 0 56.5 -20t15.5 -68v-43h1h2q48 0 86 -21.5t53 -54.5q25 0 46.5 -7.5t38 -23t26 -40t9.5 -58.5v-277v-56zM354 642q9 -14 29.5 -25.5t47.5 -20.5v73q0 8 -6 18t-20 10q-23 0 -41 -8q-9 -4 -15.5 -16t5.5 -31z
M126 353q8 0 12 1v52v56q0 11 -7 18t-18 7q-35 -4 -59 -23t-24 -45q0 -15 8 -27.5t21.5 -21t30.5 -13t36 -4.5zM589 550v-66v-33q32 19 67 30t68 12q-15 28 -51.5 42.5t-81.5 14.5h-2zM592 352q29 0 55 9t46 24v1q0 34 -10.5 50.5t-26.5 21t-34 -0.5t-33 -14v-91h3z" />
    <glyph glyph-name="l_e" horiz-adv-x="843" 
d="M713 216q33 0 56 -23.5t23 -55.5q0 -30 -17 -56t-46 -45q9 -15 9 -31q0 -15 -8 -30t-21.5 -26t-32 -18t-39.5 -7q-43 0 -82.5 18t-78 44t-77.5 55.5t-81 52.5v-63q0 -11 7.5 -18t18.5 -7v-6h-14h-25q-18 -30 -53.5 -48t-80.5 -18q-30 0 -56.5 8.5t-46.5 23.5t-31.5 35.5
t-11.5 43.5q0 22 10.5 41t28.5 34t42.5 24.5t53.5 11.5v393v120q0 11 -7.5 18t-18.5 7v6h112h84h14v-6q-11 0 -18.5 -7t-7.5 -18v-120v-123l31 26.5t36 27.5t38 21.5t36 8.5q18 0 25.5 -12.5t4.5 -30.5q49 26 110 26q48 0 88.5 -17.5t69.5 -45t45 -62.5t16 -69h-290v-52v-65
q0 -76 13 -115q25 5 49.5 9t46.5 4q6 0 11.5 -0.5t10.5 -1.5q0 2 -2 2q-11 11 -17 25.5t-6 31.5q0 32 23 55.5t56 23.5zM637 75q-25 0 -48.5 -4.5t-45.5 -10.5q11 -29 29 -41.5t45 -12.5q3 0 5.5 0.5t5.5 0.5q20 2 34.5 10.5t16.5 21.5q2 11 -2 18.5t-10 13.5q-8 2 -15 3
t-15 1zM451 53q-39 35 -61 89q-3 -11 -4.5 -21.5t0.5 -21.5q4 -17 16 -31q8 -9 20.5 -12t28.5 -3zM579 481q-26 -14 -38.5 -53t-12.5 -117v-7h142q0 26 -1 53t-6 51t-15 43t-28 30q-2 1 -7.5 3t-13.5 2t-13 -2t-7 -3zM171 -61q43 0 76.5 17t50.5 44h-52h-112v6q11 0 18.5 7
t7.5 18v106q-27 -1 -50.5 -8t-41.5 -18.5t-28 -28t-10 -37.5q0 -22 11 -41.5t30.5 -33.5t45 -22.5t54.5 -8.5zM318 112q19 -11 37 -23t35 -25q-11 15 -14 32q-3 26 10 56q-7 22 -11 45.5t-4 49.5q0 70 29 127t82 88q0 3 0.5 5.5t0.5 4.5q0 18 -9.5 24t-19.5 6
q-15 0 -33 -8.5t-36 -21.5t-35.5 -28l-31.5 -27v-266v-39zM732 5q0 15 -7 28q-53 -33 -126 -33q-40 0 -74 11t-61 31q-15 -2 -29 0q-7 2 -13 3.5t-12 4.5l55.5 -40.5t55.5 -35t57 -25t59 -9.5q38 0 66.5 17.5t28.5 47.5z" />
    <glyph glyph-name="ae" unicode="&#xe6;" horiz-adv-x="752" 
d="M623 216q33 0 56 -23t23 -56q0 -29 -15 -53.5t-41.5 -43.5t-61.5 -29.5t-75 -10.5h-9t-8 1h-106q-46 0 -67.5 15.5t-29.5 41.5q-22 -26 -52.5 -40t-63.5 -17q-32 -3 -60 4.5t-48.5 25t-31.5 43.5t-7 60q3 30 17 51t34 36.5t45 26t51 18.5q53 16 76.5 32t31.5 30v50
q0 57 -12.5 85t-50.5 23q-46 -5 -52 -32q-3 -14 6 -23.5l17 -17.5q11 -11 17 -25t6 -31q0 -33 -23 -56t-56 -23t-56 23t-23 56q0 28 15 53t41.5 43.5t61.5 29t75 10.5q38 0 72.5 -10t60.5 -28q26 19 58.5 29t70.5 10q48 0 88 -17.5t69 -45t45 -62.5t16 -70h-289v-52v-65
q0 -51 5.5 -84.5t16.5 -53.5t27.5 -28.5t39.5 -8.5h11q20 2 34 11t17 22q3 14 -5.5 23.5t-16.5 17.5q-11 11 -17 25t-6 31q0 33 23 56t56 23zM438 305h142q0 26 -1 53t-6 50.5t-15 42.5t-28 30q-2 1 -7.5 3t-13.5 2t-13 -2t-7 -3q-26 -13 -38.5 -52.5t-12.5 -116.5v-7z
M271 48q3 2 8 6.5t8 9.5q-4 13 -5 27.5t-1 29.5v125v1v1v70q-14 -18 -31.5 -30.5t-33.5 -30t-27 -46t-11 -77.5q0 -38 9.5 -59.5t24 -30.5t30.5 -7t29 11z" />
    <glyph glyph-name="i_t" horiz-adv-x="692" 
d="M667 418q0 -15 -8 -30t-21.5 -26t-32 -18t-39.5 -7q-19 0 -35 4v-234q0 -35 8 -52t20.5 -21t28 2t30.5 15v-8q-23 -16 -54 -29.5t-65 -13.5q-35 0 -63.5 12.5t-45.5 41.5q2 -5 2.5 -9.5t1.5 -9.5q3 -35 -15 -54q-10 -10 -25.5 -14.5t-33.5 -2.5q-17 2 -34 5t-36 8
q-29 7 -63 14t-74 7q-38 0 -53 -15t-15 -32q0 -15 14.5 -34.5t49.5 -34.5l-2 -3q-35 15 -51.5 34t-16.5 38q0 17 14 33t48 19v3q11 0 18 7t7 18v120v168q-46 44 -73.5 83.5t-27.5 84.5q0 30 16 52q25 33 69 33q18 0 38 -6q-10 11 -16 25t-6 30q0 32 23.5 55.5t56.5 23.5
q32 0 55.5 -23.5t23.5 -55.5q0 -33 -23 -56t-55 -23q37 -21 75 -49h14h14v-6q-9 0 -13 -4l37.5 -26.5t38.5 -26.5v32q0 11 -7 18t-18 7v6q29 0 59 8.5t55 23.5t42.5 35t20.5 43h6v-110v-5q18 5 35 5q42 0 71.5 -21.5t29.5 -53.5zM30 487q0 -40 26 -78.5t70 -81.5v16v119
q0 11 -7 18t-18 7v6h112h43q-39 26 -76 43t-70 17q-23 0 -38 -6t-24.5 -15.5t-13.5 -21t-4 -23.5zM314 -26q13 -1 26 1t23 9.5t15.5 20.5t3.5 34q-2 19 -14 41t-27 42.5t-31 36t-25 23.5v-31v-120q0 -11 7 -18t18 -7v-6h-14h-83h-46q45 -5 80 -14.5t67 -11.5zM379 80
q-6 21 -6 49v277v9l-43.5 29l-42.5 29q-2 -6 -2 -11v-119v-154l18 -15.5t25.5 -25t27 -32t23.5 -36.5zM531 356q18 -3 35 -3q19 0 36 4.5t30.5 13t21.5 20.5t8 27q0 29 -28 49t-68 20q-20 0 -35 -4v-21v-71v-35z" />
    <glyph glyph-name="G_H" horiz-adv-x="1497" 
d="M1466 265q3 -27 -7 -53t-31 -46.5t-52.5 -32.5t-71.5 -12q-42 0 -79.5 10t-72.5 27v-19q28 -6 52 -21.5t41 -36.5t26.5 -46t9.5 -51q0 -42 -20 -81.5t-56.5 -70t-87.5 -49t-113 -18.5q-82 0 -156 26t-142.5 65t-131 85.5l-122.5 87.5q-17 -11 -37 -18.5t-44 -9.5
q-1 -27 -14.5 -52t-36.5 -44t-54 -30.5t-65 -11.5q-35 0 -66.5 12t-54.5 31.5t-36.5 45t-13.5 53.5q0 38 24.5 69.5t63.5 48.5q-32 46 -48 103.5t-16 123.5q0 73 20.5 136.5t59 111t93.5 75t124 27.5q55 0 93.5 -14.5t60.5 -30.5q29 -20 47.5 -46.5t18.5 -57.5
q0 -33 -23 -56t-56 -23t-56 23t-23 56q0 18 7.5 34t20.5 27q8 7 15.5 17t5.5 24q-3 13 -14.5 21t-29.5 13q-8 2 -23 4.5t-44 2.5q-24 -1 -44.5 -13t-34.5 -39t-22 -71.5t-8 -108.5v-112v-112q0 -61 7 -102q54 -9 106 -34.5t106 -59.5q4 2 7 5t7 5q-62 51 -62 121
q0 38 19 72.5t53.5 61t84 42.5t111.5 17v72v93v138q0 11 -7 18t-18 7v6h49h108h37h15v-6q-11 0 -18.5 -7t-7.5 -18v-138v-90v-97q44 -14 82 -32.5t73 -38.5v165v93v138q0 11 -7.5 18t-18.5 7v6h49h109h36h15v-6q-11 0 -18 -7t-7 -18v-138v-90v-144q7 19 21.5 36t34.5 29
t44.5 19t51.5 7q32 0 60.5 -10t50 -26.5t35.5 -39t16 -47.5zM447 257q-14 -17 -21.5 -38t-7.5 -46q0 -46 30 -85zM201 -107q33 0 62.5 7t52 21t36 33.5t14.5 45.5h-15q-75 0 -133 32t-97 86q-37 -17 -59.5 -46.5t-22.5 -66.5q0 -27 12.5 -47.5t34.5 -35t51.5 -22t63.5 -7.5z
M351 6q29 0 52.5 7t43.5 20q-51 35 -100 60.5t-97 36.5q11 -68 37.5 -96t63.5 -28zM968 0v6q11 0 18.5 7t7.5 18v138v82q-35 20 -73 38.5t-82 31.5v-119v-33v-138q0 -11 7.5 -18t18.5 -7v-6h-15h-37h-108h-49v6q11 0 18 7t7 18v138v173q-69 -2 -128 -19.5t-95 -52.5h174v-6
q-11 0 -18.5 -7t-7.5 -18v-208q0 -11 7.5 -18t18.5 -7v-6h-1q-88 0 -151 49q-4 -3 -7 -5.5t-6 -5.5l38 -25l39 -26l105 -68t109.5 -58t117 -40t128.5 -15q63 0 112 13.5t83 37.5t51.5 56.5t17.5 70.5q0 27 -8.5 51.5t-24 44t-37 33t-46.5 19.5v-101q0 -11 7 -18t18 -7v-6
h-15h-36h-109h-49zM1304 149q30 0 57.5 9t48.5 25t33.5 37t12.5 45t-12 45.5t-33 37.5t-48.5 25t-58.5 9t-58.5 -9t-48 -25t-33 -37t-12.5 -45v-64v-18q35 -16 72.5 -25.5t79.5 -9.5z" />
    <glyph glyph-name="Q_U" horiz-adv-x="1526" 
d="M1496 700v-6q-41 0 -69 -28t-28 -68v-177v-71q0 -73 -9.5 -136.5t-36.5 -111t-74.5 -75t-122.5 -27.5t-122.5 27.5t-74.5 75t-36.5 111t-9.5 136.5v173q-53 23 -103 56l-100 68.5l-100.5 71t-103.5 63t-109 45t-118 17.5h-2q-50 0 -94 -10t-77 -30t-52 -49t-19 -67
q0 -34 15.5 -64t42.5 -54t63.5 -40t79.5 -22q18 43 46 78t65 60.5t82.5 39.5t98.5 14q75 0 135 -27.5t102 -75t64.5 -111t22.5 -136.5q0 -109 -49 -195q37 -5 70 -18.5t57.5 -33.5t38.5 -46t14 -55q0 -32 -17.5 -61.5t-47.5 -51.5t-70 -33.5t-85 -8.5q-42 3 -70 21.5
t-51.5 40.5t-47.5 39.5t-58 17.5q-25 0 -41 -8t-30 -17q-12 -9 -16.5 -3.5t5.5 13.5q9 6 19 10l22.5 9l29 12t37.5 19q-8 -1 -16.5 -1h-17.5q-75 0 -135 27.5t-101.5 75t-64 111t-22.5 136.5q0 42 7 80t21 73q-43 6 -80 22.5t-64.5 41t-43 55.5t-15.5 66q0 39 19.5 73
t53 59.5t78.5 40.5t96 15h2q60 0 116.5 -17.5t109.5 -45.5t104 -63l101 -71l100.5 -69.5t102.5 -57.5v117q0 11 -7.5 18t-18.5 7v6h16h48q23 22 57.5 35t75.5 13q36 0 67 -10t54 -27.5t36.5 -40.5t13.5 -49q0 -24 -12 -47.5t-33 -42.5t-49 -31t-60 -15v-135v-112
q0 -76 10.5 -122.5t27 -71t37 -31t40.5 -2.5q96 19 137 104t41 235v80v168q0 20 -7.5 37.5t-21 30.5t-31 20.5t-37.5 7.5v6h199zM559 9q31 6 54.5 29t37.5 74q-40 -15 -65 -41t-27 -62zM977 2q0 29 -15 52t-40.5 39.5t-60 26t-73.5 11.5q-39 -56 -96 -89q-24 -14 -50 -24.5
t-51 -19.5t-48 -16.5t-39 -14.5q7 3 17.5 4.5t15.5 1.5q36 0 60 -12.5t47 -28.5t50 -32t69 -23q42 -8 80.5 -1t68 24.5t47.5 44t18 57.5zM664 462q0 70 -10.5 115t-28.5 71t-43 35.5t-54 9.5h-3q-1 -57 -36.5 -101.5t-92.5 -68.5q-3 -29 -3 -61v-112v-112q0 -71 10.5 -115.5
t28.5 -70.5t42.5 -35.5t53.5 -9.5h13t12 1q2 40 30 73t73 53q4 21 6 47t2 57v112v112zM519 693q-23 -1 -43.5 -9t-36.5 -27t-27.5 -50t-15.5 -78q55 24 88.5 67t34.5 97zM1084 742q-38 0 -70 -11t-55 -31h118h49v-6q-11 0 -18 -7t-7 -18v-158q31 2 58 10.5t47.5 23t32 34
t11.5 42.5q0 25 -13 47t-35.5 38.5t-53 26t-64.5 9.5z" />
    <glyph glyph-name="S_T" horiz-adv-x="1237" 
d="M1207 700v-125v-1q0 -19 -11 -42.5t-33 -44t-56 -34.5t-80 -14v-285v-31v-92q0 -1 0.5 -1.5t0.5 -2.5q2 -9 8.5 -15t16.5 -6v-6h-15h-34h-3h-105h-3h-34h-15v6q9 0 16 6t9 15v4v92v31v287v31q-56 24 -104.5 61t-95 78.5l-91 83t-92 74.5t-99 54t-110.5 21q-50 0 -94 -10
t-77 -30t-52 -49t-19 -67q0 -34 15.5 -64.5t42.5 -54.5t64 -40t80 -21q0 51 20.5 87.5t53 59.5t73 34t81.5 11q54 0 93 -14.5t60 -30.5q29 -20 48 -46.5t19 -57.5q0 -33 -23.5 -56t-56.5 -23q-32 0 -55.5 23t-23.5 56q0 18 7.5 34t20.5 27q8 7 15.5 17t5.5 24
q-2 10 -12 17.5t-25.5 12.5t-34.5 8t-38 3q-26 0 -46.5 -9.5t-31.5 -27.5t-11 -43t17 -56q17 -32 45.5 -60.5t61 -55.5l65.5 -54t59.5 -56.5t43 -63.5t16.5 -74q0 -52 -20.5 -88.5t-52.5 -60t-73 -34.5t-81 -11q-54 0 -93 14.5t-61 29.5q-29 20 -47.5 47t-18.5 58
q0 32 23.5 55.5t55.5 23.5q33 0 56.5 -23.5t23.5 -55.5q0 -37 -29 -61q-8 -7 -15.5 -17t-4.5 -24q2 -10 12 -17.5t25.5 -13t34 -8t38.5 -2.5q25 0 46 9.5t32 27.5t10.5 43t-16.5 56q-17 32 -45 60t-60.5 54.5l-65 53.5t-59.5 56.5t-44 62.5t-18 73q-44 6 -82 22.5t-65.5 41
t-43.5 56t-16 66.5q0 39 19.5 73t53 59.5t78.5 40.5t96 15q65 0 119.5 -23t103 -59.5t95 -81.5l94.5 -88v76h518zM702 612q38 -33 79 -61.5t88 -48.5v29v138q0 11 -7 18t-18 7h-14q-13 0 -31.5 -5.5t-37 -16t-34.5 -25.5t-25 -35zM1200 575q0 29 -15 51t-36 37t-44 23t-39 8
h-13q-11 0 -18.5 -7t-7.5 -18v-10v-113v-75q36 0 68 6.5t55 19.5t36.5 32.5t13.5 44.5v1z" />
    <glyph glyph-name="O_O" horiz-adv-x="1409" 
d="M1379 350q0 -77 -24.5 -143.5t-71.5 -114.5q24 -38 24 -80q0 -39 -19.5 -73.5t-53 -60t-79 -40t-96.5 -14.5h-2q-66 0 -126.5 20.5t-117.5 53t-111.5 72.5l-108.5 79l-77.5 -36.5t-78 -31t-80.5 -21.5t-84 -8q-36 0 -67 10t-54 27t-36.5 40t-13.5 49q0 17 6 34
q-38 48 -58 108.5t-20 129.5q0 77 24.5 143.5t70.5 114.5q-23 37 -23 80q0 39 19.5 73t53 59.5t78.5 40.5t96 15h2q66 0 127 -21t118 -53.5t111.5 -72.5l108.5 -79q78 39 155.5 68.5t164.5 29.5q35 0 66 -10t54.5 -27.5t37 -40.5t13.5 -49q0 -17 -6 -33q38 -48 58 -108.5
t20 -129.5zM732 350q0 78 25.5 145.5t73.5 115.5l-33 24q-2 -1 -3.5 -1.5t-3.5 -1.5l-82 -40.5t-86 -37.5q26 -43 40 -95t14 -109q0 -78 -26 -146t-74 -116q9 -5 17.5 -11l16.5 -12q4 2 7 3l81.5 40.5t86.5 37.5q-26 43 -40 95t-14 109zM273 216q56 0 107.5 -18.5
t102.5 -47.5q6 37 6 88v112v112q0 14 -0.5 27t-1.5 25q-35 -8 -69 -11t-69 -3t-67.5 7t-60.5 20q-3 -29 -3 -65v-112v-112v-15t1 -15q27 8 54 8zM479 125q-51 29 -101.5 46.5t-104.5 17.5q-14 0 -27.5 -1.5t-25.5 -3.5q4 -54 15.5 -88t29 -54t40 -27.5t48.5 -7.5
q22 0 41.5 5t36 18.5t28.5 36.5t20 58zM221 533q59 -28 128 -28q71 0 138 14q-5 52 -16.5 86t-29.5 53.5t-40.5 27t-47.5 7.5q-24 0 -46 -7t-39 -25t-29.5 -49t-17.5 -79zM1136 484q-56 0 -107.5 18.5t-102.5 47.5q-6 -38 -6 -88v-112v-112q0 -14 0.5 -27t1.5 -25
q35 7 68.5 10.5t68.5 3.5t67.5 -7t61.5 -20q3 28 3 65v112v112v15t-1 15q-27 -8 -54 -8zM930 575q50 -29 101 -46.5t105 -17.5q14 0 27 1.5t26 3.5q-4 53 -16 87.5t-29.5 54.5t-40 27.5t-48.5 7.5q-21 0 -40.5 -5.5t-36 -19t-29 -36t-19.5 -57.5zM1059 195q-36 0 -70.5 -4
t-66.5 -10q4 -53 16 -86.5t29.5 -53t39.5 -27t48 -7.5q25 0 47 7t39 25t29 49t17 79q-28 13 -60.5 20.5t-67.5 7.5zM1136 742q-43 0 -83 -7.5t-79 -20.5t-77 -30.5l-76 -36.5l13.5 -10t14.5 -10q40 35 91.5 54t114.5 19q78 0 138.5 -28.5t102.5 -78.5q5 11 5 28q0 25 -13 47
t-35.5 38.5t-52.5 26t-64 9.5zM107 688q0 -40 22 -76q42 42 98.5 65t125.5 23q91 0 158 -38t109 -103q45 17 86 37l83 41q2 0 4 2l-101.5 73t-106 66t-112.5 47.5t-122 18.5h-2q-50 0 -94 -10t-77 -30t-52 -49t-19 -67zM273 -42q85 0 161.5 28.5t153.5 66.5q-8 5 -14.5 9.5
l-13.5 9.5q-40 -34 -92 -53t-115 -19q-78 0 -138.5 28.5t-102.5 78.5q-5 -15 -5 -29q0 -25 13 -46.5t35.5 -38t52.5 -26t65 -9.5zM1301 12q0 40 -22 76q-42 -42 -98 -65t-126 -23q-90 0 -157 38t-109 103q-45 -17 -86 -37l-83 -41q-1 -1 -2 -1t-2 -1l101.5 -73.5t106 -66
t112.5 -47.5t122 -18h1q50 0 94 10t77 30t52 49t19 67z" />
    <glyph glyph-name="I_R" horiz-adv-x="1135" 
d="M1105 -175q-5 -6 -17 -14t-29.5 -15.5t-40.5 -12.5t-50 -5q-62 0 -101.5 33t-66.5 84q-16 -26 -45 -42t-61 -16q-57 0 -104.5 26.5t-89.5 64.5t-81 81t-81 75v-53q0 -11 7 -18t18 -7v-3q0 -32 -12.5 -60.5t-34 -49.5t-50 -33t-61.5 -12t-61.5 12.5t-50 34t-34 50
t-12.5 61.5q0 29 10 55.5t28 47.5t42.5 34.5t52.5 18.5v277q-7 -2 -13 -2h-13q-26 0 -48.5 11.5t-39 30.5t-26.5 44t-10 51t10 49t26.5 40t39 27t48.5 10h112h84h13v-6q-11 0 -18 -7t-7 -18v-100q45 46 90 99.5t93 99.5t99.5 77t110.5 31h2q37 0 70 -15t57.5 -40.5
t38.5 -59.5t14 -73q0 -45 -19 -85q23 -41 23 -95q0 -75 -42 -123t-118 -63q34 -11 62 -42q13 -15 30.5 -50t36.5 -80l39.5 -95.5l40 -95t36.5 -78.5t30 -46q15 -15 34 -17.5t35 11.5zM585 259v-105v-72v-47v-5q0 -8 5.5 -13.5t13.5 -5.5q9 0 14 6l2 2q30 30 74 30
q28 0 52 -12l-29 100.5t-31.5 88.5t-41.5 63.5t-59 25.5v-56zM585 592q23 -39 61.5 -63t86.5 -24q6 0 12.5 0.5t12.5 1.5v1q0 53 -10 88.5t-25 57.5t-33.5 31t-35.5 9h-44q-11 0 -18 -7t-7 -18v-77zM733 500q-46 0 -84.5 21.5t-63.5 59.5v-260h59q16 0 36 9t37 30.5t28.5 56
t12.5 85.5q-6 -2 -12.5 -2h-12.5zM732 844q-37 0 -71 -11.5t-65 -31t-60 -45.5t-57 -56h106h103q73 0 124.5 -23.5t77.5 -67.5q8 18 13 38t5 41q0 38 -14 67t-38 49t-56 30t-68 10zM154 463q7 0 13 0.5t13 1.5v84v120q0 11 -7.5 18t-18.5 7q-25 0 -46.5 -9.5t-37.5 -26
t-25.5 -38t-9.5 -46.5q0 -51 34.5 -81t84.5 -30zM266 0h-112v6q11 0 18.5 7t7.5 18v104q-54 -7 -90.5 -39.5t-36.5 -89.5q0 -32 12 -59.5t32.5 -48.5t48 -33t59.5 -12q31 0 58 11.5t48 31.5t33.5 47t13.5 57h-92zM338 111q23 -18 44.5 -39l43.5 -44q0 1 0.5 1.5t0.5 1.5v51
v87v93v380l-45 -51l-44 -48v-392v-40zM694 -131q31 0 58.5 8.5t42.5 28.5q-14 29 -25 60t-21 64q-26 14 -55 14q-25 0 -47 -12t-36 -32h-71h-86q25 -26 52 -49.5t56.5 -41.5t62 -29t69.5 -11z" />
    <glyph glyph-name="A_F" horiz-adv-x="1258" 
d="M172 0q-29 0 -55 10t-45.5 27t-30.5 40t-11 49t11 50t30.5 42.5t45.5 29.5t55 11q34 0 70 -13t75 -35l165 489h1l11 -35q-1 6 -1 11.5v11.5q0 39 14 73t38 59.5t56 40.5t69 15h2q41 0 78 -15t72.5 -38t70.5 -49.5t70.5 -49.5t73.5 -38t80 -15q18 0 37 6.5t34 19t25 30
t10 38.5q0 22 -8.5 41t-23 33t-33.5 22.5t-41 8.5q-44 0 -67.5 -30.5t-23.5 -74.5h-20q0 23 9 43t24 35t35 24t43 9t43.5 -9t35.5 -24t23.5 -35t8.5 -43q0 -35 -19 -63t-49 -40v-87h-6q0 23 -7.5 43t-21.5 36q-3 -1 -8 -1q-35 0 -68.5 11.5t-66.5 29.5h-7q-11 0 -18 -7
t-7 -18v-92v-31v-105v-89h32q20 0 38 7.5t31 21t20.5 31t7.5 37.5h5v-199h-5q0 41 -28 69t-69 28h-32v-100q48 -3 89 -19t71.5 -41t48 -57.5t17.5 -69.5q0 -39 -19.5 -73.5t-53 -60t-78.5 -40t-96 -14.5h-2q-46 0 -89.5 10t-84.5 27.5t-80.5 41t-77.5 49.5h-50v5q6 0 11 5
t5 11q0 3 -1 4l-124 92.5t-119 77.5l-33 -97q-3 -11 -3 -22q0 -29 20.5 -50t49.5 -21v-5h-179zM172 5q19 0 35.5 7.5t30 20t23.5 28.5t16 33l35 103q-35 19 -70 29.5t-70 10.5q-27 0 -52 -7.5t-43.5 -22t-29.5 -35t-11 -46.5q0 -25 10.5 -47t29 -38.5t43.5 -26t53 -9.5z
M321 208q54 -31 111 -73.5t120 -84.5l-142 419zM687 97q11 38 38.5 68.5t65.5 50.5v315v20q-23 -24 -54.5 -37.5t-66.5 -13.5q-47 0 -86 23.5t-63 62.5zM1171 60q0 36 -17 67.5t-47 55.5t-70.5 39.5t-86.5 18.5v-87v-63v-9v-51q0 -11 7 -18t18 -7v-6h-15h-37h-108h-49v6
q11 0 18 7t7 18v138v41q-39 -21 -65.5 -53t-34.5 -70l21 -63q7 -19 26 -19v-5h-109q70 -42 144 -69.5t154 -27.5h2q50 0 94 10.5t77 30.5t52 49t19 67zM971 700q-38 21 -75.5 46t-75 47t-75 36.5t-75.5 14.5q-36 0 -67.5 -10t-55 -30t-37 -49t-13.5 -67q0 -26 6 -50l8 -23
q20 -48 63 -79t96 -31q36 0 67 14t54 39v111q0 11 -7 18t-18 7v6h49h156z" />
    <glyph glyph-name="Z_A" horiz-adv-x="1270" 
d="M1240 0h-17q-12 -28 -35 -51.5t-54 -40.5t-68 -26.5t-78 -9.5h-2q-47 0 -90.5 10.5t-85.5 28.5t-81.5 42t-78.5 51v-4h-143h-306h-10q-34 1 -63.5 11.5t-51 27.5t-34 39.5t-12.5 47.5q0 26 13.5 51t36.5 44t54.5 30.5t66.5 11.5q32 0 63 -6.5t61 -17.5l245 436q1 2 1 6
q0 13 -12 13h-114h-31q-24 0 -45.5 -9.5t-37.5 -25.5t-25.5 -37.5t-9.5 -46.5h-6v125h143h316l-296 -528q42 -27 83.5 -58l84.5 -61q24 32 24 71h5v-91l19.5 -13.5t19.5 -12.5q15 2 28 9t24 18q0 5 -0.5 9t-0.5 9q0 42 19.5 77.5t52.5 61.5l172 509h1l170 -501
q37 -26 58.5 -61.5t21.5 -77.5q0 -27 -9 -51q8 -4 14 -4v-5zM36 126q0 -24 12.5 -45.5t33.5 -38t50 -26.5t62 -11l119 212q-28 9 -55.5 14.5t-56.5 5.5q-34 0 -64 -8t-52.5 -22.5t-35.5 -35t-13 -45.5zM526 6q46 0 79 30l-82 59.5t-81 55.5l-71 -126q-2 -4 -2 -6
q0 -13 13 -13h17h96h31zM1230 60q0 38 -19.5 71t-52.5 59l56 -166q3 -7 7 -11q9 21 9 47zM820 197q68 49 167 51l-75 221zM808 181q-29 -26 -45.5 -58.5t-16.5 -70.5v-13q11 11 19.5 25.5t13.5 29.5zM988 -97q78 0 139.5 25t87.5 72h-168v5q6 0 11 5t5 11q0 2 -0.5 3t-0.5 3
l-73 215h-1q-51 0 -95 -14.5t-77 -39.5l-30 -90q-3 -11 -3 -22q0 -29 20.5 -50t49.5 -21v-5h-153q66 -42 136.5 -69.5t150.5 -27.5h1z" />
    <glyph glyph-name="a_e" horiz-adv-x="961" 
d="M831 216q33 0 56.5 -23.5t23.5 -55.5q0 -40 -29 -72.5t-76 -49.5q-32 -29 -62.5 -50t-59.5 -34q-36 -15 -62 -15q-20 0 -32 9q-19 16 -15 48q3 25 20 61q-38 24 -62.5 61.5t-35.5 85.5q-15 -7 -29 -15.5t-28 -18.5v-72v-7v-26v-10q0 -11 7 -18t18 -7v-6h-112
q-32 0 -48 12t-21 40q-20 -22 -49 -35.5t-62 -16.5q-32 -3 -60 4.5t-48.5 25t-31.5 43.5t-7 60q3 30 17 51t34 36.5t45 26t51 18.5q53 16 76.5 32t31.5 30v50q0 57 -12.5 85t-50.5 23q-46 -5 -52 -32q-3 -14 6 -23.5l17 -17.5q11 -11 17 -25t6 -31q0 -33 -23 -56t-56 -23
t-56 23t-23 56q0 28 15 53t41.5 43.5t61.5 29t75 10.5q45 0 83.5 -13t64.5 -36q-14 26 -8.5 47t29.5 21q16 0 33 -8t35 -20t36.5 -27t37.5 -28q29 30 69 47t91 17q48 0 88 -17.5t69 -45t45 -62.5t16 -69h-289v-52v-65q0 -51 5.5 -84.5t16 -54t27 -29t39.5 -8.5q3 0 6 0.5
t5 0.5q20 2 34.5 10.5t17.5 21.5q3 14 -5.5 23.5t-16.5 17.5q-24 24 -24 57q0 32 23.5 55.5t55.5 23.5zM271 48q3 3 6 5.5t6 5.5q-1 7 -1.5 14.5t-0.5 15.5v38v191q-14 -18 -31.5 -30.5t-33.5 -30t-27 -46t-11 -77.5q0 -38 9.5 -59.5t24 -30.5t30.5 -7t29 11zM697 481
q-5 -3 -10 -7t-10 -10q14 -11 19.5 -24.5t1.5 -25.5q-4 -14 -16.5 -21t-29.5 -7h-1q-2 -16 -3 -34.5t-1 -40.5v-7h141q0 26 -1 53t-5.5 51t-15 43t-28.5 30q-2 1 -7 3t-13 2t-13.5 -2t-7.5 -3zM651 392q16 1 27 8t14.5 17t0 22t-16.5 23q-17 -22 -25 -70zM440 154
q25 19 55 35q-2 14 -3.5 28.5t-1.5 29.5q0 53 16.5 98.5t47.5 79.5q-9 6 -17.5 12.5l-17.5 13.5q-28 22 -51.5 37.5t-46.5 15.5q-10 0 -18.5 -6.5t-8.5 -24.5q0 -9 3 -19.5t11 -21.5q15 -17 23.5 -36t8.5 -39v-203zM680 -62q26 12 55 29.5t59 43.5q-38 -11 -76 -11
q-69 0 -119 32q-18 -37 -18 -61.5t15 -36.5q11 -10 33 -9.5t51 13.5z" />
    <glyph glyph-name="o_e" horiz-adv-x="1002" 
d="M872 216q33 0 56.5 -23.5t23.5 -55.5q0 -29 -15.5 -53.5t-41.5 -43.5t-61 -29.5t-75 -10.5q-75 0 -128 37.5t-79 98.5q-56 -24 -108.5 -60.5l-102 -70.5t-97 -58t-93.5 -24q-21 0 -39 7t-32 18t-22 26t-8 30q0 19 11.5 34.5t31.5 26.5q-33 34 -50.5 80.5t-17.5 101.5
q0 51 15.5 96t45 78t72 52.5t95.5 19.5q45 0 82 -14t66 -39q-16 27 -10 49t30 22q19 0 42.5 -11t46.5 -26.5t43 -32l33 -27.5q29 37 72.5 58t100.5 21q48 0 88 -17.5t69 -45t45 -62.5t16 -69h-289v-52v-65v-11q19 -2 33.5 -11t20.5 -26q8 -20 -1 -44t-32 -45
q11 -21 27.5 -30t39.5 -9q3 0 6 0.5t5 0.5q20 2 34.5 10.5t17.5 21.5q3 14 -5.5 23.5t-16.5 17.5q-24 24 -24 57q0 32 23.5 55.5t55.5 23.5zM737 132q-13 31 -49 33q1 -79 19 -115q21 20 29 41.5t1 40.5zM738 481q-26 -14 -38 -53t-12 -117v-7h141q0 26 -1 53t-5.5 51
t-15 43t-28.5 30q-2 1 -7 3t-13 2t-13.5 -2t-7.5 -3zM182 182q0 -70 10 -110q26 -8 42 -25t18 -39h1q36 0 53.5 41.5t17.5 132.5v65v64q0 91 -17.5 132.5t-53.5 41.5t-53.5 -41.5t-17.5 -132.5v-64v-65zM247 8q-2 19 -16 34.5t-37 23.5q14 -53 53 -58zM56 4q0 -31 29 -48.5
t66 -17.5q46 0 92 22.5t95 54.5q-38 -15 -85 -15q-49 0 -88 16t-68 45q-19 -10 -30 -25t-11 -32zM414 65q32 22 66 42t70 34q-19 47 -19 106q0 47 13 88.5t38 73.5l-34 28t-41.5 31t-43.5 25t-38 10q-9 0 -18.5 -6t-9.5 -24q0 -10 4 -22.5t15 -25.5q32 -33 48.5 -79
t16.5 -99q0 -54 -17.5 -101t-49.5 -81z" />
    <glyph glyph-name="logicalnot" unicode="&#xac;" horiz-adv-x="503" 
d="M397 354h76v-76v-139h-76v139h-367v76h367v0z" />
    <glyph glyph-name="dotlessi" unicode="&#x131;" horiz-adv-x="259" 
d="M50 343v119q0 11 -7 18t-18 7v6h112h83h14v-6q-11 0 -18 -7t-7 -18v-119v-192v-120q0 -11 7 -18t18 -7v-6h-14h-83h-112v6q11 0 18 7t7 18v120v192z" />
    <glyph glyph-name="oe" unicode="&#x153;" horiz-adv-x="786" 
d="M665 216q33 0 56.5 -23.5t23.5 -56.5q0 -28 -15.5 -53t-41.5 -43.5t-61 -29t-75 -10.5q-46 0 -83.5 14t-66.5 40q-29 -26 -66 -40t-83 -14q-53 0 -95.5 19.5t-72 53t-45 78.5t-15.5 96t15.5 96t45 78t72 52.5t95.5 19.5q46 0 83 -14t66 -40q29 26 66.5 40t83.5 14
q59 0 104 -23.5t75 -63.5q21 -28 26.5 -56.5t-0.5 -52t-21.5 -38.5t-37.5 -15h-217v-62q0 -51 5.5 -84.5t16 -54t27 -29t39.5 -8.5q3 0 6 0.5t5 0.5q20 2 34.5 10.5t17.5 21.5q3 14 -5.5 23.5t-16.5 17.5q-24 24 -24 56q0 33 23.5 56.5t55.5 23.5zM531 481q-26 -14 -38 -53
t-12 -117v-62h97q21 0 36.5 23.5t15.5 71.5q0 54 -17.5 89.5t-40.5 47.5q-2 1 -7 3t-13 2t-13.5 -2t-7.5 -3zM324 311q0 91 -17.5 132.5t-53.5 41.5t-53.5 -41.5t-17.5 -132.5v-64v-65q0 -91 17.5 -132.5t53.5 -41.5t53.5 41.5t17.5 132.5v65v64z" />
    <glyph glyph-name="fi" unicode="&#xfb01;" horiz-adv-x="477" 
d="M426 151v-120q0 -11 7.5 -18t18.5 -7v-6h-14h-83h-112v6q11 0 18 7t7 18v120v134v36q0 11 -7 18t-18 7h-34v-315q0 -11 7 -18t18 -7v-6h-193h-16v6q11 0 18 7t7 18v28v424q0 103 53.5 160t150.5 57q38 0 70 -11t54.5 -29.5t35 -43.5t12.5 -53q0 -33 -23 -56t-56 -23
t-56 23t-23 56q0 17 6 31t17 25l17 17.5t6 23.5q-4 18 -19 25t-26 7q-37 0 -48.5 -36t-11.5 -116v-151v-37h24h10h112h83h14v-6q-11 0 -18.5 -7t-7.5 -18v-36v-134z" />
    <glyph glyph-name="fl" unicode="&#xfb02;" horiz-adv-x="477" 
d="M426 31q0 -11 7.5 -18t18.5 -7v-6h-14h-83h-112v6q11 0 18 7t7 18v72v48v134v61h-25h-34v-315q0 -11 7 -18t18 -7v-6h-193h-16v6q11 0 18 7t7 18v28v424q0 103 53.5 160t150.5 57q38 0 70 -11t54.5 -29.5t35 -43.5t12.5 -53v-412v-42v-78zM395 546q11 0 18 7t7 18
q0 5 -1 15t-8 24q-17 35 -54 57.5t-87 26.5q-35 2 -48 -36t-13 -118v-151v-37h24h35v162q0 11 -7 18.5t-18 7.5v6h126h26z" />
    <glyph glyph-name="AE" unicode="&#xc6;" horiz-adv-x="833" 
d="M593 441v-89h33q20 0 37.5 7.5t30.5 21t20.5 31t7.5 37.5h6v-199h-6q0 41 -28 69t-68 28h-33v-193v-63v-9v-51q0 -11 7.5 -18t18.5 -7h24h36q25 0 46.5 9.5t37.5 25.5t25.5 37.5t9.5 45.5h5v-124h-345h-48v6q11 0 18 7t7 18v25v291h-161l-121 -250q-6 -14 -6 -28
q0 -26 18.5 -45t44.5 -19v-5h-180v5q38 0 66 24t50 65l292 606h20h198h29h118v-125h-5q0 25 -9.5 46.5t-25.5 37.5t-37.5 25.5t-46.5 9.5h-60q-11 0 -18.5 -7t-7.5 -18v-92v-31v-105zM435 352v86v93v150l-159 -329h159z" />
    <glyph glyph-name="OE" unicode="&#x152;" horiz-adv-x="887" 
d="M647 441v-89h32q20 0 38 7.5t31 21t20.5 31t7.5 37.5h5v-199h-5q0 41 -28 69t-69 28h-32v-193v-63v-9v-51q0 -11 7 -18t18 -7h24h37q24 0 45.5 9.5t37.5 25.5t25.5 37.5t9.5 45.5h6v-124h-345h-159q-75 0 -135 27.5t-102 75t-64 111t-22 136.5t22 136.5t64 111t102 75
t135 27.5h357h29h118v-125h-6q0 25 -9.5 46.5t-25.5 37.5t-37.5 25.5t-45.5 9.5h-61q-11 0 -18 -7t-7 -18v-92v-31v-105zM218 238q0 -71 10.5 -115.5t28.5 -70.5t42.5 -35.5t53.5 -9.5t54 9.5t43 35.5t28.5 70.5t10.5 115.5v112v112q0 70 -10.5 115t-28.5 71t-43 35.5
t-54 9.5t-53.5 -9.5t-42.5 -35.5t-28.5 -71t-10.5 -115v-112v-112z" />
    <glyph glyph-name="W.alt1" horiz-adv-x="850" 
d="M817 621q6 -55 -1.5 -122t-27 -136t-50.5 -134.5t-72 -116t-91 -81.5t-108 -31q-42 0 -73.5 18.5t-44.5 60.5q-37 -37 -79 -58t-90 -21q-26 0 -48.5 7t-39.5 22.5t-27 40t-10 59.5v129v251v160q0 11 -7 18t-18 7v6h112q40 0 56 -20t16 -68v-108v-245v-144q0 -35 11.5 -52
t28 -21.5t34 1.5t30.5 16q14 10 29 27q-2 10 -3.5 20.5t-1.5 22.5v129v251v160q0 11 -7 18t-18 7v6h112q41 0 56.5 -20t15.5 -68v-108v-245v-144q0 -35 11.5 -52t28 -21.5t34 1.5t30.5 16q9 7 20 18l22 22q38 43 68 97.5t51 114t33 118.5t14 111q0 8 -6.5 10t-10.5 2
q-11 0 -27 -5t-31 -5q-33 0 -56.5 23t-23.5 56q0 32 23.5 55.5t56.5 23.5q32 0 53.5 -23.5t25.5 -55.5z" />
    <glyph glyph-name="e" unicode="e" horiz-adv-x="496" 
d="M367 216q32 0 55.5 -23.5t23.5 -55.5q0 -29 -15.5 -53.5t-41.5 -43.5t-61 -29.5t-75 -10.5q-53 0 -95.5 19.5t-72 53t-45 78.5t-15.5 96t15.5 96t45 78t72 52.5t95.5 19.5q48 0 88 -17.5t69 -45t45 -62.5t16 -69h-289v-52v-65q0 -51 5.5 -84.5t16.5 -54t27.5 -29
t39.5 -8.5q16 0 36.5 7t25.5 26q3 14 -5.5 23.5t-16.5 17.5q-24 24 -24 57q0 32 23.5 55.5t56.5 23.5zM232 481q-26 -14 -38 -53t-12 -117v-7h142q0 26 -1 53t-6 51t-15.5 43t-28.5 30q-2 1 -7 3t-13 2t-13.5 -2t-7.5 -3z" />
    <glyph glyph-name="h" unicode="h" 
d="M471 31q0 -11 7 -18t18 -7v-6h-13h-84h-112v6q11 0 18.5 7t7.5 18v71v284q0 34 -10.5 50.5t-26.5 21t-34 -0.5t-33 -14v-260v-32v-120q0 -11 7 -18t18 -7v-6h-14h-83h-112v6q11 0 18 7t7 18v120v328v70v120q0 11 -7 18t-18 7v6h112q40 0 56 -20t16 -68v-61v-67v-33
q41 25 87 36t85 3t64.5 -38t25.5 -88v-277v-56v0z" />
    <glyph glyph-name="i" unicode="i" horiz-adv-x="259" 
d="M209 621q0 -33 -23.5 -56t-56.5 -23q-32 0 -55.5 23t-23.5 56q0 32 23.5 55.5t55.5 23.5q33 0 56.5 -23.5t23.5 -55.5zM50 343v119q0 11 -7 18t-18 7v6h112h83h14v-6q-11 0 -18 -7t-7 -18v-119v-192v-120q0 -11 7 -18t18 -7v-6h-14h-83h-112v6q11 0 18 7t7 18v120v192z
" />
    <glyph glyph-name="j" unicode="j" horiz-adv-x="439" 
d="M389 -106q0 -31 -14.5 -60.5t-39 -53t-58 -37.5t-70.5 -14q-38 0 -71 12t-58 32t-39 47.5t-14 58.5q0 32 23 55.5t56 23.5t56 -23.5t23 -55.5q0 -36 -26 -59q-15 -14 -18 -26t-1 -23t14 -23.5t32 -10.5q14 1 23 14.5t14 35t7 49.5t2 58v568q0 11 -7 18t-18 7v6h193h16v-6
q-11 0 -18 -7t-7 -18v-28v-540z" />
    <glyph glyph-name="l" unicode="l" horiz-adv-x="259" 
d="M209 151v-120q0 -11 7 -18t18 -7v-6h-14h-83h-112v6q11 0 18 7t7 18v120v398v120q0 11 -7 18t-18 7v6h112h83h14v-6q-11 0 -18 -7t-7 -18v-120v-398z" />
    <glyph glyph-name="m" unicode="m" horiz-adv-x="784" 
d="M734 31q0 -11 7 -18t18 -7v-6h-14h-83h-112v6q11 0 18 7t7 18v71v284q0 43 -15.5 58.5t-37.5 15.5q-16 0 -34 -8t-31 -18q14 -30 14 -70v-277v-56q0 -11 7 -18t18 -7v-6h-13h-84h-112v6q11 0 18.5 7t7.5 18v71v284q0 35 -11 52t-27.5 21t-35 -2t-33.5 -15q3 -17 3 -37
v-222v-32v-120q0 -11 7 -18t18 -7v-6h-14h-83h-112v6q11 0 18 7t7 18v120v311q0 11 -7 18t-18 7v6h112q29 0 45 -10.5t22 -34.5q34 21 71.5 33t71.5 12t62 -12.5t45 -40.5q36 26 78 39.5t77 13.5q26 0 48.5 -7t39.5 -22.5t27 -40t10 -59.5v-277v-56v0z" />
    <glyph glyph-name="n" unicode="n" 
d="M471 31q0 -11 7 -18t18 -7v-6h-13h-84h-112v6q11 0 18.5 7t7.5 18v71v284q0 35 -11 52t-27.5 21t-35 -2t-33.5 -15q3 -17 3 -37v-222v-32v-120q0 -11 7 -18t18 -7v-6h-14h-83h-112v6q11 0 18 7t7 18v120v311q0 11 -7 18t-18 7v6h112q29 0 45 -10.5t22 -34.5
q34 21 71.5 33t71.5 12q25 0 48 -7t39.5 -22.5t26.5 -40t10 -59.5v-277v-56v0z" />
    <glyph glyph-name="o" unicode="o" horiz-adv-x="506" 
d="M253 493q53 0 95 -19.5t71.5 -52.5t45.5 -78t16 -96t-16 -96t-45.5 -78.5t-71.5 -53t-95 -19.5t-95.5 19.5t-72 53t-45 78.5t-15.5 96t15.5 96t45 78t72 52.5t95.5 19.5zM324 311q0 91 -17.5 132.5t-53.5 41.5t-53.5 -41.5t-17.5 -132.5v-64v-65q0 -91 17.5 -132.5
t53.5 -41.5t53.5 41.5t17.5 132.5v65v64z" />
    <glyph glyph-name="p" unicode="p" horiz-adv-x="537" 
d="M329 493q39 0 72.5 -17t58 -49t38.5 -77t14 -102q0 -59 -15 -105.5t-42 -78.5t-64.5 -48t-82.5 -14q-32 2 -57.5 17.5t-41.5 35.5v-46v-67v-61q0 -48 -16 -68t-56 -20h-112v6q11 0 18 7t7 18v120v70v328v89v31q0 11 -7 18t-18 7v6h112q29 0 44.5 -10t22.5 -33
q9 6 21.5 13t28 14t34.5 11.5t41 4.5zM268 23q40 -5 63.5 51t21.5 174q-1 58 -8 98.5t-18.5 65.5t-27 36.5t-33.5 13.5q-18 1 -33.5 -5t-27.5 -14q4 -13 4 -38v-61v-279q12 -17 28 -28.5t31 -13.5z" />
    <glyph glyph-name="q" unicode="q" horiz-adv-x="537" 
d="M487 -56v-120q0 -11 7 -18t18 -7v-6h-112q-40 0 -55.5 20t-15.5 68v61v67v46q-17 -20 -42.5 -35.5t-57.5 -17.5q-44 -2 -81.5 14t-64.5 48t-42.5 78.5t-15.5 105.5q0 57 14 102t39 77t58 49t72 17q22 0 41 -4.5t34.5 -11.5t28.5 -14t22 -13q11 43 66 43h112v-6
q-11 0 -18 -7t-7 -18v-31v-89v-328v-70zM269 23q16 2 31.5 13.5t28.5 28.5v279v61q0 23 3 38q-12 8 -27.5 14t-32.5 5q-18 -2 -34 -13.5t-27.5 -36.5t-18 -65.5t-7.5 -98.5q-2 -118 21 -174t63 -51z" />
    <glyph glyph-name="r" unicode="r" horiz-adv-x="446" 
d="M382 482q28 -17 36.5 -48.5t-8.5 -59.5q-17 -29 -48.5 -37.5t-59.5 8.5q-29 17 -37 49q-4 14 -3 25t3 19.5t2.5 15t-4.5 10.5q-4 4 -11.5 3t-15.5 -4.5t-16.5 -9t-14.5 -10.5q4 -13 4 -38v-222v-32v-120q0 -11 7 -18t18 -7v-6h-14h-83h-112v6q11 0 18 7t7 18v120v311
q0 11 -7 18t-18 7v6h112q56 0 67 -44q12 9 32.5 20.5t45 19t51 7.5t49.5 -14z" />
    </font>
</defs>
</svg>
